<?xml version="1.0" encoding="utf-8"?>
<!-- Generator: Adobe Illustrator 26.5.0, SVG Export Plug-In . SVG Version: 6.00 Build 0)  -->
<svg version="1.1" id="Layer_1" xmlns="http://www.w3.org/2000/svg" xmlns:xlink="http://www.w3.org/1999/xlink" x="0px" y="0px"
	 viewBox="0 0 191 40" style="enable-background:new 0 0 191 40;" xml:space="preserve">
<style type="text/css">
	.st0{fill-rule:evenodd;clip-rule:evenodd;fill:#FFFFFF;fill-opacity:0;}
	.st1{fill:#142354;}
	.st2{fill:url(#path22_00000114772956921232977030000012612243153565079487_);}
	.st3{fill:url(#path30_00000135660404257513173250000011185333333879770248_);}
	.st4{fill:#FCD24B;}
	.st5{fill:#D6A632;}
	.st6{fill:#CA7F25;}
	.st7{fill:url(#path52_00000044856500753641471490000011977603030508527539_);}
	.st8{fill:#FFFFFF;}
	.st9{fill:url(#path94_00000101086850030016330790000004245002061703574448_);}
	.st10{fill:#0C1635;}
	.st11{fill:#FCD205;}
	.st12{fill:url(#path110_00000024684421761644864890000002486580827934795444_);}
	.st13{fill:url(#path124_00000123438247378316200940000004056888636236697993_);}
	.st14{fill:url(#path142_00000018933742194597972080000010374657884311937411_);}
	.st15{fill:url(#path152_00000049940228932558329240000004548626829692554175_);}
	.st16{fill:url(#path162_00000122693667968277654710000010823213828202253491_);}
	.st17{fill:url(#path172_00000152959514237728832200000013824835564227677595_);}
	.st18{fill:url(#path182_00000139292346109647279500000008972703861973157006_);}
	.st19{fill:url(#path192_00000010298429575827265870000014742724082509336997_);}
	.st20{fill:url(#path202_00000057830755318684125870000010509644851649048757_);}
	.st21{fill:url(#path212_00000004535268806887457360000010718942671939136640_);}
	.st22{fill:url(#path222_00000065774687865579079860000008405327823676250763_);}
	.st23{fill:url(#path232_00000145059785547524021520000017509356746196058008_);}
	.st24{fill:url(#path242_00000170248563302589070280000007819461662397507735_);}
	.st25{fill:url(#path268_00000125574350614193565540000017389276545147659689_);}
	.st26{fill:url(#path278_00000147214681135495942910000002979615341664155020_);}
	.st27{fill:url(#path288_00000181799257545709775630000005190956940499071907_);}
	.st28{fill:url(#path296_00000133517319836323996370000004694549508633620922_);}
	.st29{fill:#E18F16;}
	.st30{fill:#FEF0BB;}
	.st31{fill:url(#path376_00000181767568083860532550000006786492552211247795_);}
	.st32{fill:#009BDE;}
	.st33{fill-rule:evenodd;clip-rule:evenodd;fill:#001B60;}
</style>
<g id="Page-1">
	<g id="HOME-1---Horizon" transform="translate(-706.000000, -2020.000000)">
		<g id="Group-45" transform="translate(0.000000, 2018.757767)">
			<g id="banner-03" transform="translate(706.273366, 1.242233)">
				<rect id="Rectangle" x="0" y="-30" class="st0" width="190.5" height="100"/>
				<g id="Group-18" transform="translate(0.234800, 30.000000)">
					<g id="Emblem_of_Korean_Coast_Guard">
						
							<g id="g3399" transform="translate(22.520167, 20.000000) scale(-1, 1) rotate(-180.000000) translate(-22.520167, -20.000000) ">
							<path id="path12" class="st1" d="M8.9,61.1V47c0-0.8,0.6-2.7,1.4-4.5c0.6-1.3,1.8-3.8,3.5-5.5c1.5-1.5,3.1-2.8,5.2-4
								c2-1.2,3.3-2.7,3.6-3c0.3,0.3,1.6,1.8,3.6,3c2,1.2,3.7,2.5,5.2,4c1.6,1.7,2.9,4.2,3.5,5.5c0.8,1.8,1.4,3.7,1.4,4.5v14.1
								c-0.1,0-13.6,8.8-13.6,8.9C22.4,70,8.9,61.2,8.9,61.1L8.9,61.1z"/>
							
								<radialGradient id="path22_00000166644918307991066630000003666874310233513893_" cx="-194.5262" cy="-384.2988" r="1.2534" gradientTransform="matrix(26.1046 0 0 26.1046 5093.8594 10093.6973)" gradientUnits="userSpaceOnUse">
								<stop  offset="0" style="stop-color:#FDE093"/>
								<stop  offset="0.4607" style="stop-color:#FCD205"/>
								<stop  offset="1" style="stop-color:#E18F16"/>
							</radialGradient>
							<path id="path22" style="fill:url(#path22_00000166644918307991066630000003666874310233513893_);" d="M35.4,60.7l0.1,0.1
								v0.1c-0.6,0.4-12.4,8-13.1,8.5c-0.7-0.4-12.5-8.1-13.1-8.5v-0.1V47c0-1.4,2-6.8,4.7-9.6c1.4-1.5,3.1-2.8,5-3.9
								c1.5-0.9,2.7-2,3.3-2.6l0,0l0,0l0,0l0,0h0l0,0c0.6,0.7,1.7,1.7,3.3,2.6c2,1.2,3.6,2.5,5,3.9c2.7,2.8,4.7,8.2,4.7,9.6v13.7
								L35.4,60.7l0-0.2L35.4,60.7L35.4,60.7L35.4,60.7z"/>
							
								<linearGradient id="path30_00000037685817402165236590000011475780327042556039_" gradientUnits="userSpaceOnUse" x1="-193.7683" y1="-380.4433" x2="-193.6277" y2="-380.7049" gradientTransform="matrix(24.2335 0 0 35.9473 4715.8877 13735.5908)">
								<stop  offset="0" style="stop-color:#1F3781"/>
								<stop  offset="1" style="stop-color:#142354"/>
							</linearGradient>
							<path id="path30" style="fill:url(#path30_00000037685817402165236590000011475780327042556039_);" d="M10.4,60.2V46.9
								c0-0.4,0.4-1.9,1.3-3.9c0.6-1.2,1.7-3.5,3.2-5c1.4-1.4,2.9-2.6,4.9-3.8c1.2-0.7,2.1-1.5,2.8-2.1c0.7,0.7,1.6,1.4,2.8,2.1
								c1.9,1.1,3.5,2.4,4.8,3.8c1.5,1.5,2.6,3.8,3.2,5c0.9,2,1.3,3.5,1.3,3.9v13.2c-2.3,1.5-9.6,6.3-12.1,7.9
								C21.1,67.2,11.4,60.9,10.4,60.2L10.4,60.2z"/>
							<path id="path32" class="st4" d="M9.5,60.8L9.5,60.8l0.1-0.1l12.9,8.4v0.2l0,0C21.8,68.8,10,61.2,9.5,60.8z"/>
							<path id="path34" class="st5" d="M35.4,60.7l0.1,0.1v0.1c-0.6,0.4-12.4,8-13.1,8.5v-0.2L35.4,60.7z"/>
							<polygon id="path36" class="st4" points="22.5,68.9 22.5,68.9 22.5,68.1 							"/>
							<path id="path38" class="st6" d="M34.7,60.2l0.2,0.2v0c-0.2,0.1-12.1,7.9-12.4,8.1v-0.3C22.7,68,34.5,60.3,34.7,60.2
								L34.7,60.2z"/>
							<path id="path40" class="st6" d="M10.1,60.3L10.1,60.3l0.2-0.2c0.1,0.1,12,7.8,12.2,7.9v0.3l0,0
								C22.3,68.2,10.3,60.4,10.1,60.3z"/>
							<path id="path42" class="st4" d="M19.7,34.2c-1.9,1.2-3.5,2.4-4.9,3.8c-2.5,2.6-4.5,7.7-4.5,8.9v13.3l-0.2,0.2V46.9
								c0-0.6,0.5-2.1,1.3-4c0.6-1.2,1.7-3.5,3.2-5.1c1.4-1.4,3-2.7,4.9-3.8c1-0.6,2-1.4,2.9-2.3l0,0V32
								C21.6,32.8,20.7,33.6,19.7,34.2L19.7,34.2z"/>
							
								<linearGradient id="path52_00000080924123340898443800000013687464942999850638_" gradientUnits="userSpaceOnUse" x1="-185.7225" y1="-383.4417" x2="-185.7548" y2="-382.9757" gradientTransform="matrix(12.3955 0 0 28.5961 2318.321 11008.7188)">
								<stop  offset="0" style="stop-color:#C16E0D"/>
								<stop  offset="0.3" style="stop-color:#DA9219"/>
								<stop  offset="1" style="stop-color:#C16E0D"/>
							</linearGradient>
							<path id="path52" style="fill:url(#path52_00000080924123340898443800000013687464942999850638_);" d="M19.7,34.2
								c-1.9,1.2-3.5,2.4-4.9,3.8c-2.5,2.6-4.5,7.7-4.5,8.9v13.3l-0.2,0.2V46.9c0-0.6,0.5-2.1,1.3-4c0.6-1.2,1.7-3.5,3.2-5.1
								c1.4-1.4,3-2.7,4.9-3.8c1-0.6,2-1.4,2.9-2.3l0,0V32C21.6,32.8,20.7,33.6,19.7,34.2L19.7,34.2z"/>
							<path id="path54" class="st4" d="M34.7,46.9c0-1.2-2-6.4-4.5-8.9c-1.4-1.4-2.9-2.6-4.9-3.8c-1-0.6-1.9-1.3-2.8-2.2v-0.3
								c0.9,0.9,1.9,1.6,2.9,2.3c1.9,1.2,3.5,2.4,4.9,3.8c1.5,1.5,2.7,3.9,3.2,5.1c0.9,1.9,1.3,3.5,1.3,4v13.4l-0.2-0.2V46.9
								L34.7,46.9z"/>
							<path id="path56" class="st8" d="M18.1,63.6h0.5c0.4,0,0.5,0,0.6-0.1c0.2-0.1,0.3-0.3,0.3-0.5c0-0.3-0.1-0.5-0.4-0.6
								c-0.1,0-0.2-0.1-0.4-0.1h-0.2v-0.8h-0.4V63.6L18.1,63.6z M18.5,63.3v-0.6h0.2c0.2,0,0.2,0,0.3,0.1c0,0.1,0,0.1,0,0.2
								c0,0.2-0.1,0.3-0.3,0.3H18.5z"/>
							<path id="path58" class="st8" d="M20.5,63.7c0.6,0,0.9-0.4,0.9-1c0-0.5-0.2-0.8-0.5-1c-0.1-0.1-0.2-0.1-0.4-0.1
								c-0.3,0-0.5,0.1-0.7,0.3c-0.2,0.2-0.2,0.5-0.2,0.8c0,0.4,0.2,0.8,0.5,1C20.2,63.6,20.4,63.7,20.5,63.7L20.5,63.7z M20.5,63.3
								c-0.1,0-0.3-0.1-0.3-0.2c-0.1-0.1-0.1-0.3-0.1-0.6c0-0.4,0.1-0.6,0.2-0.7c0.1-0.1,0.1-0.1,0.2-0.1c0.3,0,0.4,0.2,0.4,0.7
								c0,0.2,0,0.4-0.1,0.5C20.8,63.2,20.7,63.3,20.5,63.3L20.5,63.3z"/>
							<polygon id="path60" class="st8" points="21.7,63.6 22.1,63.6 22.1,61.9 22.8,61.9 22.8,61.6 21.7,61.6 							"/>
							<polygon id="path62" class="st8" points="23.1,63.6 23.5,63.6 23.5,61.6 23.1,61.6 							"/>
							<path id="path64" class="st8" d="M25.3,63.5l-0.2-0.3c-0.1,0.1-0.2,0.1-0.3,0.1c-0.1,0-0.3-0.1-0.3-0.2
								c-0.1-0.1-0.1-0.3-0.1-0.5c0-0.3,0-0.4,0.1-0.6c0.1-0.2,0.2-0.2,0.4-0.2c0.1,0,0.2,0,0.3,0.1c0,0,0,0,0,0l0.2-0.3
								c-0.2-0.1-0.3-0.2-0.6-0.2c-0.3,0-0.5,0.1-0.7,0.3c-0.2,0.2-0.2,0.4-0.2,0.7c0,0.3,0,0.5,0.1,0.6c0.2,0.3,0.5,0.5,0.8,0.5
								C25,63.7,25.2,63.6,25.3,63.5L25.3,63.5z"/>
							<polygon id="path66" class="st8" points="25.6,63.6 26.7,63.6 26.7,63.3 26,63.3 26,62.8 26.6,62.8 26.6,62.5 26,62.5 
								26,61.9 26.8,61.9 26.8,61.6 25.6,61.6 							"/>
							<path id="path68" class="st8" d="M24.1,56.1c0-0.6,0.5-1,1.1-1c0.6,0,1.1,0.5,1.1,1c0,0.6-0.5,1-1.1,1
								C24.6,57.1,24.1,56.6,24.1,56.1L24.1,56.1z M24.8,56.1c0,0.3,0.2,0.5,0.5,0.5c0.3,0,0.5-0.2,0.5-0.5c0-0.3-0.2-0.5-0.5-0.5
								C25,55.5,24.8,55.8,24.8,56.1z"/>
							<path id="path70" class="st8" d="M25.8,59.6v-0.6H25l0,0.2v0.2c0,0-1.8,0-1.9,0v-0.5h1.2v-0.1c0-0.3-0.1-0.6-0.3-0.8
								c-0.2-0.3-0.6-0.4-0.9-0.5c0,0,0.3-0.4,0.3-0.4c0.4,0,0.8,0.2,1.1,0.6c0.2,0.2,0.3,0.4,0.4,0.7l0.9,0h0v-0.3H25v-0.5h0.8
								v-0.5h0.7v2.4H25.8L25.8,59.6z"/>
							<path id="path72" class="st8" d="M14.4,59.6V59h-0.9v-0.5h0.4l0,0c-0.1-0.2-0.1-0.3-0.1-0.5c0-0.5,0.4-1,1-1c0.5,0,1,0.4,1,1
								c0,0.2,0,0.3-0.1,0.5l0,0h0.3V59H15v0.6H14.4L14.4,59.6z M14.4,58c0,0.3,0.1,0.5,0.3,0.5c0.2,0,0.3-0.2,0.3-0.5
								c0-0.3-0.1-0.5-0.3-0.5C14.5,57.5,14.4,57.7,14.4,58z"/>
							<path id="path74" class="st8" d="M16.9,59.6v-1.3h-0.3v1.3H16v-4.4h0.6v2.6h0.3v-2.6h0.6v4.4H16.9z"/>
							<path id="path76" class="st8" d="M21,59.6v-2.3h0.7v0.5h0.6v0.5h-0.6v0.4h0.6V59h-0.6v0.5H21L21,59.6z"/>
							<path id="path78" class="st8" d="M19.3,56.1c0-0.6,0.5-1,1.2-1c0.6,0,1.1,0.5,1.1,1c0,0.6-0.5,1-1.1,1
								C19.8,57.1,19.3,56.6,19.3,56.1L19.3,56.1z M19.9,56.1c0,0.3,0.2,0.6,0.5,0.6c0.3,0,0.5-0.3,0.5-0.6c0-0.3-0.2-0.6-0.5-0.6
								C20.1,55.5,19.9,55.8,19.9,56.1z"/>
							<path id="path80" class="st8" d="M18.3,58.4c0-0.6,0.5-1,1.1-1c0.6,0,1.1,0.5,1.1,1c0,0.6-0.5,1-1.1,1
								C18.8,59.4,18.3,59,18.3,58.4L18.3,58.4z M19,58.4c0,0.3,0.2,0.5,0.5,0.5c0.2,0,0.4-0.3,0.4-0.5c0-0.3-0.2-0.5-0.4-0.5
								C19.2,57.9,19,58.1,19,58.4z"/>
							<path id="path82" class="st8" d="M30.2,59.6v-2.3h0.7v1h0.6v0.5h-0.6v0.9H30.2L30.2,59.6z"/>
							<path id="path84" class="st8" d="M28.3,59.6v-0.5h-0.8v-0.5h0.8v0c0-0.3-0.2-0.5-0.3-0.7c-0.2-0.2-0.4-0.3-0.6-0.3
								c0,0,0.2-0.2,0.2-0.2l0.1-0.2c0.2,0,0.6,0.2,0.9,0.7c0,0,0,0,0.1,0c0,0,0,0,0.1,0c0.2-0.4,0.7-0.6,0.9-0.7
								c0,0,0.3,0.4,0.3,0.4c-0.2,0-0.4,0.1-0.6,0.3c-0.1,0.1-0.3,0.3-0.3,0.7v0h0.8v0.5H29v0.5H28.3L28.3,59.6z"/>
							<path id="path86" class="st8" d="M28.1,57v-0.4h2.1v-0.3h-2.1v-0.7c0-0.3,0.1-0.4,0.4-0.4H31v0.4h-2.1c-0.1,0-0.1,0-0.1,0.1
								v0.2h2.1c0.1,0,0.1,0,0.1,0.1v1c0,0,0,0,0,0L28.1,57L28.1,57z"/>
							
								<linearGradient id="path94_00000126303957654425069290000005109967220313835422_" gradientUnits="userSpaceOnUse" x1="-186.4868" y1="-383.288" x2="-186.7873" y2="-381.6764" gradientTransform="matrix(13.0512 0 0 29.8356 2450.4419 11467.6162)">
								<stop  offset="0" style="stop-color:#FCD24B"/>
								<stop  offset="1" style="stop-color:#8B4E08"/>
							</linearGradient>
							<path id="path94" style="fill:url(#path94_00000126303957654425069290000005109967220313835422_);" d="M22.5,31l-0.2,0.2
								c-0.6,0.6-1.6,1.6-3,2.3c-2,1.2-3.6,2.5-5,3.9c-1.5,1.6-2.7,4-3.3,5.2c-0.8,1.8-1.4,3.5-1.4,4.2v13.5l0,0.2l-0.1,0.1V47
								c0-1.4,2-6.8,4.7-9.6c1.4-1.5,3.1-2.8,5-3.9c1.5-0.9,2.7-2,3.3-2.6l0,0L22.5,31L22.5,31L22.5,31z"/>
							<path id="path96" class="st6" d="M22.5,31l0.2,0.2c0.6,0.6,1.6,1.6,3,2.3c2,1.2,3.6,2.5,5,3.9c1.5,1.6,2.8,4,3.3,5.2
								c0.8,1.8,1.4,3.5,1.4,4.2v13.5v0.2l0.1,0.1V47c0-1.4-2-6.8-4.7-9.6c-1.4-1.5-3.1-2.8-5-3.9c-1.5-0.9-2.7-2-3.3-2.6l0,0V31
								L22.5,31L22.5,31z"/>
							<path id="path98" class="st10" d="M22.5,68.1c-0.2-0.1-12-7.8-12.2-7.9V46.9c0-1.2,2-6.4,4.5-8.9c1.4-1.4,2.9-2.6,4.9-3.8
								c1-0.6,1.9-1.3,2.8-2.2c0.9,0.9,1.8,1.6,2.8,2.2c1.9,1.2,3.5,2.4,4.9,3.8c2.5,2.6,4.5,7.7,4.5,8.9v13.3
								C34.5,60.3,22.7,68,22.5,68.1L22.5,68.1z M34.5,46.9c0-1.2-2-6.3-4.4-8.8c-1.4-1.4-2.9-2.6-4.8-3.8c-0.9-0.6-1.9-1.3-2.7-2.1
								c-0.9,0.8-1.8,1.5-2.7,2.1c-1.9,1.1-3.5,2.4-4.8,3.8c-2.5,2.6-4.4,7.6-4.4,8.8v13.2c0.1,0.1,11.8,7.7,12,7.8
								c1-0.7,11.1-7.2,12-7.8V46.9z"/>
							<path id="path100" class="st11" d="M22.5,48.4c-2.5,0-4.6-2-4.6-4.6c0-2.5,2-4.5,4.6-4.5c2.5,0,4.5,2,4.5,4.5
								C27.1,46.4,25,48.4,22.5,48.4z"/>
							
								<linearGradient id="path110_00000132051685280206544970000014249487730345183162_" gradientUnits="userSpaceOnUse" x1="-116.9894" y1="-565.3624" x2="-115.9894" y2="-565.3624" gradientTransform="matrix(2.3621 0 0 1.9028 291.849 1120.3262)">
								<stop  offset="0" style="stop-color:#FDE093"/>
								<stop  offset="0.4607" style="stop-color:#FCD205"/>
								<stop  offset="1" style="stop-color:#E18F16"/>
							</linearGradient>
							<path id="path110" style="fill:url(#path110_00000132051685280206544970000014249487730345183162_);" d="M15.5,44
								c0,0,0.7-0.7,2.1-0.4c0,0.1,0,0.2,0,0.2c0,0.6,0.1,1.1,0.3,1.6C17.2,44.9,16.4,44.3,15.5,44z"/>
							<path id="path112" class="st11" d="M15.3,43.4c0.2-1.3,0.5-2.5,1-3.5c0.1-0.1,0.2-0.2,0.3-0.2c1.3,0.2,1.9,0.8,2.2,1.1
								c-0.6,0.7-0.9,1.6-1.1,2.5c-1.4-0.3-2.4,0.3-2.4,0.3C15.2,43.6,15.3,43.5,15.3,43.4C15.3,43.4,15.3,43.4,15.3,43.4L15.3,43.4
								z"/>
							<path id="path114" class="st11" d="M19,36.3c0.9,0.7,1.4,2.6,1.5,3c-0.6,0.3-1.2,0.7-1.7,1.2c-0.8-0.9-1.8-1.1-2.4-1.2
								c0.6-1.2,1.5-2.2,2.2-3C18.9,36.3,19,36.3,19,36.3L19,36.3z"/>
							
								<linearGradient id="path124_00000057143198596449344940000006962753581067424167_" gradientUnits="userSpaceOnUse" x1="-165.5564" y1="-480.1526" x2="-164.5564" y2="-480.1526" gradientTransform="matrix(5.4666 0 0 3.38 918.6463 1669.0115)">
								<stop  offset="0" style="stop-color:#FDE093"/>
								<stop  offset="0.4607" style="stop-color:#FCD205"/>
								<stop  offset="1" style="stop-color:#E18F16"/>
							</linearGradient>
							<path id="path124" style="fill:url(#path124_00000057143198596449344940000006962753581067424167_);" d="M18.7,47
								c0.1,0.2,0.2,0.4,0.4,0.6c-0.3,0.1-0.5,0.1-0.7,0.2c-0.1,0-0.1,0-0.2,0c-1.1-0.9-2.7-2.3-4.6-2.7c0-0.1,0.8-1.1,2.3-0.5
								c1,0.4,1.8,1.2,2.5,2.1C18.5,46.7,18.6,46.9,18.7,47z"/>
							<path id="path126" class="st11" d="M26,36.3c0.1,0,0.2-0.1,0.3,0c0.8,0.8,1.6,1.8,2.2,3c-0.6,0.1-1.6,0.3-2.4,1.2
								c-0.5-0.5-1-0.9-1.6-1.2C24.6,38.9,25.1,37.1,26,36.3L26,36.3z"/>
							<path id="path128" class="st11" d="M23,39v-0.4c0-1,0-4,0.2-4.5c0,0,1.3,0.5,2.7,1.8c-0.4,0.3-1.1,1.1-1.7,3.3
								C23.7,39.1,23.4,39,23,39z"/>
							<path id="path130" class="st11" d="M28.8,39.9c0.5,1,0.8,2.2,1,3.5c0,0,0,0.1,0,0.1c0,0.1,0,0.1,0,0.2c0,0-1-0.6-2.4-0.3
								c-0.1-0.9-0.5-1.8-1-2.5c0.2-0.3,0.9-0.9,2.2-1.1C28.6,39.7,28.7,39.8,28.8,39.9L28.8,39.9z"/>
							<path id="path132" class="st11" d="M21.9,34.1L21.9,34.1c0.1,0.5,0.2,3.4,0.2,4.5V39c-0.4,0-0.8,0.1-1.1,0.2
								c-0.6-2.2-1.4-3-1.7-3.3C20.6,34.7,21.9,34.1,21.9,34.1L21.9,34.1L21.9,34.1z"/>
							
								<linearGradient id="path142_00000010306690878873455090000002948066359902385555_" gradientUnits="userSpaceOnUse" x1="-185.0797" y1="-445.5222" x2="-184.0797" y2="-445.5222" gradientTransform="matrix(11.5902 0 0 4.938 2148.095 2251.8542)">
								<stop  offset="0" style="stop-color:#FDE093"/>
								<stop  offset="0.4607" style="stop-color:#FCD205"/>
								<stop  offset="1" style="stop-color:#E18F16"/>
							</linearGradient>
							<path id="path142" style="fill:url(#path142_00000010306690878873455090000002948066359902385555_);" d="M14.6,49.5
								c-0.1,0.1-0.3,0.2-0.4,0.2c-1.1,0.8-1.8,1.4-1.8,1.4C7.9,52.3,3,54.4,3,54.4s0-4.1,3.7-4.7C9.3,49.4,12.6,49.4,14.6,49.5z"/>
							
								<linearGradient id="path152_00000099635725513427481530000014883438678994294922_" gradientUnits="userSpaceOnUse" x1="-192.2161" y1="-398.3364" x2="-191.1175" y2="-398.7315" gradientTransform="matrix(19.6746 0 0 13.1985 3782.7349 5314.0283)">
								<stop  offset="0" style="stop-color:#FDE093"/>
								<stop  offset="0.4607" style="stop-color:#FCD205"/>
								<stop  offset="1" style="stop-color:#E18F16"/>
							</linearGradient>
							<path id="path152" style="fill:url(#path152_00000099635725513427481530000014883438678994294922_);" d="M12.5,51.4
								c0,0,3-3,6.8-3.6c0.3,0.4,0.8,1.2,0.8,1.2c-3.3,0.3-5.3,2.2-6.6,3.5c-0.8,0.8-1.4,1.1-1.6,1.2C7.6,56.5,2.9,59.5,0.5,61l0,0
								c0,0-0.6-4.7,2.4-6.2c0,0,0.3-0.1,0.3-0.1C6.1,53.5,8.7,52.5,12.5,51.4L12.5,51.4z"/>
							
								<linearGradient id="path162_00000145020224644711168550000000736586740381645747_" gradientUnits="userSpaceOnUse" x1="-180.8317" y1="-531.5424" x2="-179.8317" y2="-531.5424" gradientTransform="matrix(9.3189 0 0 2.3022 1692.246 1271.7595)">
								<stop  offset="0" style="stop-color:#FDE093"/>
								<stop  offset="0.4607" style="stop-color:#FCD205"/>
								<stop  offset="1" style="stop-color:#E18F16"/>
							</linearGradient>
							<path id="path162" style="fill:url(#path162_00000145020224644711168550000000736586740381645747_);" d="M15,49.2
								c-1.9-0.1-4.5-0.1-7.9,0l0,0c0,0,0.8-2.6,3.7-2.3c1.8,0.2,4.2,0.9,5.6,1.5C16,48.6,15.5,48.9,15,49.2L15,49.2z"/>
							
								<linearGradient id="path172_00000060733912452216779270000016039705293590251396_" gradientUnits="userSpaceOnUse" x1="-173.9051" y1="-494.3948" x2="-172.9051" y2="-494.3948" gradientTransform="matrix(7.0622 0 0 2.9918 1238.9346 1525.9319)">
								<stop  offset="0" style="stop-color:#FDE093"/>
								<stop  offset="0.4607" style="stop-color:#FCD205"/>
								<stop  offset="1" style="stop-color:#E18F16"/>
							</linearGradient>
							<path id="path172" style="fill:url(#path172_00000060733912452216779270000016039705293590251396_);" d="M17.8,47.9
								c-0.3,0.1-0.7,0.2-1.1,0.4c-2-0.9-4.6-1.5-5.9-1.7c0,0,0.5-1.3,2.2-1.3C14.5,45.4,16.4,46.6,17.8,47.9L17.8,47.9z"/>
							
								<linearGradient id="path182_00000146457063491382194320000004358554520735828624_" gradientUnits="userSpaceOnUse" x1="-116.0721" y1="-565.3624" x2="-117.0721" y2="-565.3624" gradientTransform="matrix(2.3643 0 0 1.9028 303.9618 1120.3262)">
								<stop  offset="0" style="stop-color:#FDE093"/>
								<stop  offset="0.4607" style="stop-color:#FCD205"/>
								<stop  offset="1" style="stop-color:#E18F16"/>
							</linearGradient>
							<path id="path182" style="fill:url(#path182_00000146457063491382194320000004358554520735828624_);" d="M29.5,44
								c0,0-0.7-0.7-2.1-0.4c0,0.1,0,0.2,0,0.2c0,0.6-0.1,1.1-0.3,1.6C27.8,44.9,28.6,44.3,29.5,44L29.5,44z"/>
							
								<linearGradient id="path192_00000154390078847816754030000001167257341797966527_" gradientUnits="userSpaceOnUse" x1="-164.5312" y1="-480.1526" x2="-165.5312" y2="-480.1526" gradientTransform="matrix(5.4629 0 0 3.38 930.2344 1669.0115)">
								<stop  offset="0" style="stop-color:#FDE093"/>
								<stop  offset="0.4607" style="stop-color:#FCD205"/>
								<stop  offset="1" style="stop-color:#E18F16"/>
							</linearGradient>
							<path id="path192" style="fill:url(#path192_00000154390078847816754030000001167257341797966527_);" d="M26.3,47
								c-0.1,0.2-0.2,0.4-0.4,0.6c0.3,0.1,0.5,0.1,0.7,0.2c0.1,0,0.1,0,0.2,0c1.1-0.9,2.7-2.3,4.6-2.7c0-0.1-0.8-1.1-2.3-0.5
								c-1,0.4-1.8,1.2-2.5,2.1C26.5,46.7,26.4,46.9,26.3,47L26.3,47z"/>
							
								<linearGradient id="path202_00000160896263877708652050000005244267819822930607_" gradientUnits="userSpaceOnUse" x1="-184.0741" y1="-445.5222" x2="-185.0741" y2="-445.5222" gradientTransform="matrix(11.5865 0 0 4.938 2174.8474 2251.8542)">
								<stop  offset="0" style="stop-color:#FDE093"/>
								<stop  offset="0.4607" style="stop-color:#FCD205"/>
								<stop  offset="1" style="stop-color:#E18F16"/>
							</linearGradient>
							<path id="path202" style="fill:url(#path202_00000160896263877708652050000005244267819822930607_);" d="M30.5,49.5
								c0.1,0.1,0.2,0.2,0.4,0.2c1.1,0.8,1.8,1.4,1.8,1.4c4.5,1.2,9.4,3.2,9.4,3.2s0-4.1-3.7-4.7C35.7,49.4,32.5,49.4,30.5,49.5z"/>
							
								<linearGradient id="path212_00000094581026300267764380000008450957620536636051_" gradientUnits="userSpaceOnUse" x1="-191.265" y1="-398.3363" x2="-192.3637" y2="-398.7316" gradientTransform="matrix(19.6725 0 0 13.1985 3806.7354 5314.0283)">
								<stop  offset="0" style="stop-color:#FDE093"/>
								<stop  offset="0.4607" style="stop-color:#FCD205"/>
								<stop  offset="1" style="stop-color:#E18F16"/>
							</linearGradient>
							<path id="path212" style="fill:url(#path212_00000094581026300267764380000008450957620536636051_);" d="M32.5,51.4
								c0,0-3-3-6.8-3.6c-0.3,0.4-0.8,1.2-0.8,1.2c3.3,0.3,5.3,2.2,6.6,3.5c0.8,0.8,1.4,1.1,1.6,1.2c4.4,2.8,9.1,5.8,11.4,7.3l0,0
								c0,0,0.6-4.7-2.4-6.2c0,0-0.3-0.1-0.3-0.1C38.9,53.5,36.3,52.5,32.5,51.4L32.5,51.4z"/>
							
								<linearGradient id="path222_00000047058081011348026920000018256224187430931846_" gradientUnits="userSpaceOnUse" x1="-179.835" y1="-531.5424" x2="-180.835" y2="-531.5424" gradientTransform="matrix(9.3203 0 0 2.3022 1714.0571 1271.7595)">
								<stop  offset="0" style="stop-color:#FDE093"/>
								<stop  offset="0.4607" style="stop-color:#FCD205"/>
								<stop  offset="1" style="stop-color:#E18F16"/>
							</linearGradient>
							<path id="path222" style="fill:url(#path222_00000047058081011348026920000018256224187430931846_);" d="M30.1,49.2
								c1.9-0.1,4.5-0.1,7.9,0l0,0c0,0-0.8-2.6-3.7-2.3c-1.8,0.2-4.2,0.9-5.6,1.5C29.1,48.6,29.6,48.9,30.1,49.2L30.1,49.2z"/>
							
								<linearGradient id="path232_00000135685801562665409660000012984700156123942299_" gradientUnits="userSpaceOnUse" x1="-172.9057" y1="-494.3948" x2="-173.9057" y2="-494.3948" gradientTransform="matrix(7.0623 0 0 2.9918 1255.3696 1525.9319)">
								<stop  offset="0" style="stop-color:#FDE093"/>
								<stop  offset="0.4607" style="stop-color:#FCD205"/>
								<stop  offset="1" style="stop-color:#E18F16"/>
							</linearGradient>
							<path id="path232" style="fill:url(#path232_00000135685801562665409660000012984700156123942299_);" d="M27.2,47.9
								c0.3,0.1,0.8,0.2,1.1,0.4c2-0.9,4.6-1.5,5.9-1.7c0,0-0.5-1.3-2.2-1.3C30.5,45.4,28.7,46.6,27.2,47.9L27.2,47.9z"/>
							
								<linearGradient id="path242_00000056423353158945956430000007720505030679445689_" gradientUnits="userSpaceOnUse" x1="-179.8239" y1="-410.6076" x2="-179.8239" y2="-411.6279" gradientTransform="matrix(9.1055 0 0 9.107 1659.9044 3788.021)">
								<stop  offset="0" style="stop-color:#FDE093"/>
								<stop  offset="0.4607" style="stop-color:#FCD205"/>
								<stop  offset="1" style="stop-color:#E18F16"/>
							</linearGradient>
							<path id="path242" style="fill:url(#path242_00000056423353158945956430000007720505030679445689_);" d="M27.1,43.9
								c0-2.5-2-4.5-4.6-4.5c-2.5,0-4.6,2-4.6,4.5c0,2.5,2,4.6,4.6,4.6C25,48.4,27.1,46.4,27.1,43.9z"/>
							<path id="path244" class="st1" d="M22.6,47.3c-0.2,0-0.4,0.2-0.4,0.4c0,0.2,0.2,0.4,0.4,0.4c0.2,0,0.4-0.2,0.4-0.4
								C23.1,47.5,22.9,47.3,22.6,47.3z"/>
							<path id="path246" class="st1" d="M25.3,46.2c-0.2,0-0.4,0.2-0.4,0.4c0,0.2,0.2,0.4,0.4,0.4c0.2,0,0.4-0.2,0.4-0.4
								C25.7,46.4,25.5,46.2,25.3,46.2z"/>
							<path id="path248" class="st1" d="M26.4,43.6c-0.2,0-0.4,0.2-0.4,0.4c0,0.2,0.2,0.4,0.4,0.4c0.2,0,0.4-0.2,0.4-0.4
								C26.8,43.8,26.6,43.6,26.4,43.6z"/>
							<path id="path250" class="st1" d="M25.3,40.9c-0.2,0-0.4,0.2-0.4,0.4c0,0.2,0.2,0.4,0.4,0.4c0.2,0,0.4-0.2,0.4-0.4
								C25.7,41.1,25.5,40.9,25.3,40.9z"/>
							<path id="path252" class="st1" d="M22.6,39.8c-0.2,0-0.4,0.2-0.4,0.4c0,0.2,0.2,0.4,0.4,0.4c0.2,0,0.4-0.2,0.4-0.4
								C23.1,40,22.9,39.8,22.6,39.8z"/>
							<path id="path254" class="st1" d="M20,40.9c-0.2,0-0.4,0.2-0.4,0.4c0,0.2,0.2,0.4,0.4,0.4c0.2,0,0.4-0.2,0.4-0.4
								C20.4,41.1,20.2,40.9,20,40.9z"/>
							<path id="path256" class="st1" d="M18.9,43.6c-0.2,0-0.4,0.2-0.4,0.4c0,0.2,0.2,0.4,0.4,0.4c0.2,0,0.4-0.2,0.4-0.4
								C19.3,43.8,19.1,43.6,18.9,43.6z"/>
							<path id="path258" class="st1" d="M20,46.2c-0.2,0-0.4,0.2-0.4,0.4c0,0.2,0.2,0.4,0.4,0.4c0.2,0,0.4-0.2,0.4-0.4
								C20.4,46.4,20.2,46.2,20,46.2z"/>
							
								<radialGradient id="path268_00000130617777508550338070000011885754715165300926_" cx="-168.5206" cy="-431.8193" r="0.6975" gradientTransform="matrix(6.0368 0 0 6.0368 1040.0056 2650.8677)" gradientUnits="userSpaceOnUse">
								<stop  offset="0" style="stop-color:#3871C1"/>
								<stop  offset="0.573" style="stop-color:#2744A0"/>
								<stop  offset="1" style="stop-color:#2744A0"/>
							</radialGradient>
							<path id="path268" style="fill:url(#path268_00000130617777508550338070000011885754715165300926_);" d="M25.5,43.8
								c0-1.7-1.4-3-3.1-3c-1.7,0-3,1.4-3,3.1c0,1.7,1.4,3,3.1,3C24.2,46.9,25.6,45.5,25.5,43.8L25.5,43.8z"/>
							
								<linearGradient id="path278_00000147207385997611395890000001732850139438942883_" gradientUnits="userSpaceOnUse" x1="-162.2219" y1="-451.5446" x2="-161.6395" y2="-451.6871" gradientTransform="matrix(5.0676 0 0 4.5693 844.0458 2106.8552)">
								<stop  offset="0" style="stop-color:#FDE093"/>
								<stop  offset="0.4607" style="stop-color:#FCD205"/>
								<stop  offset="1" style="stop-color:#E18F16"/>
							</linearGradient>
							<path id="path278" style="fill:url(#path278_00000147207385997611395890000001732850139438942883_);" d="M24.9,43.5
								c0,1.4-0.9,2.2-1.7,2.2c-0.7,0-1.2-0.5-1.2-1c0-0.5,0.5-0.8,0.5-0.8s0.5,0.3,0.9,0c0.4-0.3,0.6-0.9,0.2-1.5
								c-0.4-0.6-1.5-1-2.7-0.3c-0.7,0.4-1.1,1.2-1.2,1.9c0-1.8,1.3-2.9,2.7-2.9c0.5,0,0.9,0.1,1.2,0.3
								C24.4,41.9,24.9,42.6,24.9,43.5L24.9,43.5z"/>
							
								<radialGradient id="path288_00000124855217590329846300000009397174790400172690_" cx="-152.7126" cy="-460.4872" r="1.3994" gradientTransform="matrix(4.1227 0 0 4.1227 652.6558 1942.0605)" gradientUnits="userSpaceOnUse">
								<stop  offset="0" style="stop-color:#3871C1"/>
								<stop  offset="0.573" style="stop-color:#2744A0"/>
								<stop  offset="1" style="stop-color:#2744A0"/>
							</radialGradient>
							<path id="path288" style="fill:url(#path288_00000124855217590329846300000009397174790400172690_);" d="M21,42
								c1.2-0.7,2.3-0.3,2.7,0.4c0.3,0.6,0.2,1.2-0.3,1.5c-0.5,0.3-0.9,0-0.9,0s0-0.6-0.5-0.8c-0.5-0.3-1.1-0.1-1.4,0.5
								c-0.4,0.7-0.2,1.8,1.1,2.5c0.7,0.4,1.6,0.4,2.2,0.1c-1.6,0.9-3.1,0.2-3.8-0.9c-0.2-0.4-0.3-0.8-0.3-1.2
								C19.8,43.2,20.2,42.5,21,42L21,42z"/>
							
								<radialGradient id="path296_00000086665599587025485990000001738298353768207280_" cx="-160.3688" cy="-446.9705" r="0.7596" gradientTransform="matrix(4.8456 0 0 4.8456 799.7015 2209.7673)" gradientUnits="userSpaceOnUse">
								<stop  offset="0" style="stop-color:#ED1639"/>
								<stop  offset="1" style="stop-color:#8F1E23"/>
							</radialGradient>
							<path id="path296" style="fill:url(#path296_00000086665599587025485990000001738298353768207280_);" d="M21.6,46.1
								c-1.2-0.7-1.4-1.9-1-2.5c0.3-0.6,1-0.8,1.5-0.5c0.5,0.3,0.4,0.8,0.4,0.8S22,44.2,22,44.7c0,0.5,0.5,1,1.2,1
								c0.8,0,1.7-0.8,1.6-2.2c0-0.8-0.4-1.5-1.1-2c1.6,0.9,1.8,2.6,1.1,3.8c-0.2,0.4-0.5,0.7-0.9,0.9
								C23.3,46.6,22.4,46.6,21.6,46.1L21.6,46.1z"/>
							<path id="path298" class="st29" d="M27.4,43.7c1.4-0.5,2.1,0.6,2.1,0.6c-0.1,0-0.2,0.1-0.3,0.1c-0.3-0.3-0.9-0.7-1.8-0.3V44
								C27.4,43.9,27.4,43.8,27.4,43.7L27.4,43.7z"/>
							<path id="path300" class="st29" d="M42.1,54.8c1.1,0.6,1.8,1.6,2.1,2.6l0,0c-0.4-0.7-1-1.5-1.8-2c0,0-2.1-1.4-9.9-3.7
								c0,0-3.6-3.4-7-3.7c0.1-0.1,0.1-0.2,0.2-0.3c3.8,0.6,6.8,3.6,6.8,3.6c3.8,1.1,6.4,2.1,9.2,3.3C41.8,54.7,42.1,54.8,42.1,54.8
								L42.1,54.8z"/>
							<path id="path302" class="st29" d="M38.4,49.9c-2.5-0.2-5.4-0.2-7.4-0.1c0,0-0.1,0-0.1-0.1c-0.1-0.1-0.3-0.2-0.4-0.2
								c2-0.1,5.3,0,7.9,0.2c1.5,0.3,2.4,1.1,2.9,2v0c0,0,0,0,0,0C40.8,50.9,39.7,50.2,38.4,49.9L38.4,49.9z"/>
							<path id="path304" class="st29" d="M34.4,47.3c-1.6,0.2-4,0.9-5.4,1.3c-0.1-0.1-0.2-0.1-0.3-0.2c1.4-0.6,3.9-1.2,5.6-1.5
								c1.6-0.2,2.6,0.6,3.1,1.3C36.8,47.7,35.9,47.1,34.4,47.3L34.4,47.3z"/>
							<path id="path306" class="st29" d="M32.2,45.6c-1.9,0.2-3.9,1.7-4.7,2.4c-0.1,0-0.2-0.1-0.3-0.1c1.5-1.3,3.3-2.5,4.9-2.6
								c1.1,0,1.6,0.5,1.9,0.9c0,0,0,0,0,0c0,0,0,0,0,0C33.7,45.9,33.1,45.5,32.2,45.6L32.2,45.6z"/>
							<path id="path308" class="st29" d="M29.4,44.7c-1.2,0.5-2.4,1.7-3.2,2.9c-0.1,0-0.2,0-0.3-0.1c0.1-0.2,0.3-0.5,0.4-0.7
								c0,0,0.1-0.1,0.1-0.1c0.7-0.9,1.6-1.8,2.7-2.2c0.9-0.3,1.6-0.1,1.9,0.2c0,0,0,0,0,0C30.7,44.6,30.1,44.5,29.4,44.7L29.4,44.7
								z"/>
							<path id="path310" class="st30" d="M31.6,52.2c0.8,0.8,1.4,1.1,1.6,1.2c4.8,3.2,7.6,4.7,11.3,7.2c0,0.2,0,0.4,0,0.4l0,0
								c-2.7-1.8-4.3-2.8-6.2-4c-1.7-1.1-3.5-2.2-5.3-3.4c-0.2-0.1-0.8-0.4-1.6-1.2c-1.3-1.3-3.4-3.2-6.6-3.5c0,0,0.1-0.1,0.2-0.2
								l0,0C26.1,48.8,28.8,49.3,31.6,52.2L31.6,52.2z"/>
							<path id="path312" class="st30" d="M32.7,51.1c0,0-0.1-0.1-0.4-0.3c3.3,0.9,5.4,1.5,9.8,3.2c0,0.2,0,0.3,0,0.3
								S37.2,52.3,32.7,51.1L32.7,51.1z"/>
							<path id="path314" class="st30" d="M37.9,49.8c-3.4-0.4-5.9-0.4-7.9,0c-0.1-0.1-0.2-0.3-0.2-0.4c2.1-0.4,5.3-0.6,8-0.2
								C37.9,49.5,37.9,49.7,37.9,49.8L37.9,49.8L37.9,49.8z"/>
							<path id="path316" class="st30" d="M28.3,48.3c-0.1,0-0.2-0.1-0.2-0.1c2-1,4.7-1.6,6.1-1.8c0.1,0.1,0.1,0.2,0.1,0.2
								C33,46.8,30.4,47.4,28.3,48.3L28.3,48.3z"/>
							<path id="path318" class="st30" d="M31.4,45.1c-1.9,0.4-3.5,1.8-4.6,2.7c0,0-0.1,0-0.2,0c0,0,0,0,0,0
								c1.9-1.8,3.4-2.5,4.6-2.8C31.4,45,31.4,45.1,31.4,45.1L31.4,45.1z"/>
							<path id="path320" class="st29" d="M17.6,43.7c-1.4-0.5-2.1,0.6-2.1,0.6c0.1,0,0.2,0.1,0.3,0.1c0.3-0.3,0.9-0.7,1.8-0.3V44
								C17.6,43.9,17.6,43.8,17.6,43.7L17.6,43.7z"/>
							<path id="path322" class="st29" d="M3,54.8c-1.1,0.6-1.8,1.6-2.1,2.6l0,0c0.4-0.7,1-1.5,1.8-2c0,0,2.1-1.4,9.8-3.7
								c0,0,3.6-3.4,7-3.7c-0.1-0.1-0.1-0.2-0.2-0.3c-3.8,0.6-6.8,3.6-6.8,3.6c-3.8,1.1-6.4,2.1-9.2,3.3C3.3,54.7,3,54.8,3,54.8
								L3,54.8z"/>
							<path id="path324" class="st29" d="M6.7,49.9c2.5-0.2,5.4-0.2,7.4-0.1c0,0,0.1,0,0.1-0.1c0.1-0.1,0.3-0.2,0.4-0.2
								c-2-0.1-5.3,0-7.9,0.2c-1.5,0.3-2.4,1.1-2.9,2v0c0,0,0,0,0,0C4.3,50.9,5.3,50.2,6.7,49.9L6.7,49.9z"/>
							<path id="path326" class="st29" d="M10.6,47.3c1.6,0.2,4,0.9,5.4,1.3c0.1-0.1,0.2-0.1,0.3-0.2c-1.4-0.6-3.9-1.2-5.6-1.5
								c-1.6-0.2-2.6,0.6-3.1,1.3C8.2,47.7,9.1,47.1,10.6,47.3z"/>
							<path id="path328" class="st29" d="M12.9,45.6c1.9,0.2,3.9,1.7,4.7,2.4c0.1,0,0.2-0.1,0.3-0.1c-1.5-1.3-3.3-2.5-4.9-2.6
								c-1.1,0-1.6,0.5-1.9,0.9c0,0,0,0,0,0c0,0,0,0,0,0C11.3,45.9,11.9,45.5,12.9,45.6L12.9,45.6z"/>
							<path id="path330" class="st29" d="M15.6,44.7c1.2,0.5,2.4,1.7,3.2,2.9c0.1,0,0.2,0,0.3-0.1c-0.1-0.2-0.3-0.5-0.4-0.7
								c0,0-0.1-0.1-0.1-0.1c-0.7-0.9-1.6-1.8-2.7-2.2c-0.9-0.3-1.6-0.1-1.9,0.2c0,0,0,0,0,0C14.3,44.6,14.9,44.5,15.6,44.7
								L15.6,44.7z"/>
							<path id="path332" class="st30" d="M13.4,52.2c-0.8,0.8-1.4,1.1-1.6,1.2c-4.8,3.2-7.6,4.7-11.3,7.2c0,0.2,0,0.4,0,0.4l0,0
								c2.7-1.8,4.4-2.8,6.2-4c1.7-1.1,3.5-2.2,5.3-3.4c0.2-0.1,0.8-0.4,1.6-1.2c1.4-1.3,3.4-3.2,6.6-3.5c0,0-0.1-0.1-0.2-0.2l0,0
								C18.9,48.8,16.2,49.3,13.4,52.2L13.4,52.2z"/>
							<path id="path334" class="st30" d="M12.4,51.1c0,0,0.1-0.1,0.4-0.3C9.4,51.7,7.4,52.3,3,54c0,0.2,0,0.3,0,0.3
								S7.9,52.3,12.4,51.1L12.4,51.1z"/>
							<path id="path336" class="st30" d="M7.1,49.8c3.4-0.4,5.9-0.4,7.9,0c0.1-0.1,0.1-0.3,0.2-0.4c-2.1-0.4-5.3-0.6-8-0.2
								C7.1,49.5,7.1,49.7,7.1,49.8L7.1,49.8L7.1,49.8z"/>
							<path id="path338" class="st30" d="M16.7,48.3c0.1,0,0.2-0.1,0.2-0.1c-2-1-4.7-1.6-6.1-1.8c-0.1,0.1-0.1,0.2-0.1,0.2
								C12.1,46.8,14.7,47.4,16.7,48.3L16.7,48.3z"/>
							<path id="path340" class="st30" d="M13.6,45.1c1.9,0.4,3.5,1.8,4.6,2.7c0,0,0.1,0,0.2,0c0,0,0,0,0,0
								c-1.9-1.8-3.4-2.5-4.6-2.8C13.7,45,13.6,45.1,13.6,45.1L13.6,45.1z"/>
							<path id="path342" class="st30" d="M28.4,39.1c0,0.1,0.1,0.2,0.1,0.3c-0.6,0.1-1.6,0.3-2.4,1.2c-0.1-0.1-0.1-0.1-0.2-0.2
								C26.8,39.4,27.7,39.2,28.4,39.1L28.4,39.1z"/>
							<path id="path344" class="st29" d="M26.2,36.7c-0.8,0.8-1.3,2.2-1.5,2.8c-0.1,0-0.2-0.1-0.2-0.1c0.1-0.5,0.6-2.3,1.5-3
								c0.1,0,0.2-0.1,0.3,0c0.1,0.1,0.2,0.2,0.2,0.2C26.4,36.6,26.3,36.6,26.2,36.7L26.2,36.7z"/>
							<path id="path346" class="st30" d="M27.4,43.1c1.3-0.4,2.2,0.2,2.4,0.3c0,0,0,0,0,0c0,0,0,0.1,0,0.1c0,0.1,0,0.2,0,0.3
								c0,0-0.5-0.4-1.4-0.5c0,0-0.1,0-0.1,0c0,0-0.1,0-0.1,0h-0.2c0,0,0,0,0,0c-0.2,0-0.4,0-0.7,0.1C27.4,43.3,27.4,43.2,27.4,43.1
								L27.4,43.1z"/>
							<path id="path348" class="st29" d="M28.6,40c-0.9,0.1-1.6,0.5-2.1,1c-0.1-0.1-0.1-0.1-0.2-0.2c0.2-0.3,0.9-0.9,2.2-1.1
								c0.1,0,0.2,0,0.3,0.2c0,0.1,0.1,0.1,0.1,0.2C28.8,40,28.7,40,28.6,40z"/>
							<path id="path350" class="st30" d="M25.8,35.9c-0.4,0.3-1.1,1.1-1.7,3.3c-0.1,0-0.2-0.1-0.3-0.1C24.7,36,25.8,35.9,25.8,35.9
								z"/>
							<path id="path352" class="st29" d="M23.4,35c-0.1,0.9-0.2,3.1-0.2,4c-0.1,0-0.2,0-0.3,0c0-0.3,0-3.8,0.2-4.7v0c0,0,0,0,0-0.1
								c0,0,0,0,0,0c0,0,0,0,0-0.1c0,0,1.2,0.5,2.5,1.7c-0.8-0.6-1.6-0.9-2-1.1C23.6,34.8,23.4,34.7,23.4,35L23.4,35z"/>
							<path id="path354" class="st30" d="M16.6,39.1c0,0.1-0.1,0.2-0.1,0.3c0.6,0.1,1.6,0.3,2.4,1.2c0.1-0.1,0.1-0.1,0.2-0.2
								C18.2,39.4,17.4,39.2,16.6,39.1L16.6,39.1z"/>
							<path id="path356" class="st29" d="M18.9,36.7c0.8,0.8,1.3,2.2,1.5,2.8c0.1,0,0.2-0.1,0.2-0.1c-0.1-0.5-0.6-2.3-1.5-3
								c-0.1,0-0.2-0.1-0.3,0c-0.1,0.1-0.1,0.2-0.2,0.2C18.6,36.6,18.7,36.6,18.9,36.7L18.9,36.7z"/>
							<path id="path358" class="st30" d="M17.7,43.1c-1.3-0.4-2.2,0.2-2.4,0.3c0,0,0,0,0,0c0,0,0,0.1,0,0.1c0,0.1,0,0.2,0,0.3
								c0,0,0.5-0.4,1.4-0.5c0,0,0.1,0,0.1,0c0,0,0.1,0,0.1,0H17c0,0,0,0,0,0c0.2,0,0.4,0,0.7,0.1C17.7,43.3,17.7,43.2,17.7,43.1
								L17.7,43.1z"/>
							<path id="path360" class="st29" d="M16.4,40c0.9,0.1,1.6,0.5,2.1,1c0.1-0.1,0.1-0.1,0.2-0.2c-0.2-0.3-0.9-0.9-2.2-1.1
								c-0.1,0-0.2,0-0.3,0.2c0,0.1-0.1,0.1-0.1,0.2C16.2,40,16.3,40,16.4,40z"/>
							<path id="path362" class="st30" d="M19.2,35.9c0.4,0.3,1.1,1.1,1.7,3.3c0.1,0,0.2-0.1,0.3-0.1C20.4,36,19.2,35.9,19.2,35.9z"
								/>
							<path id="path364" class="st29" d="M21.6,35c0.1,0.9,0.2,3.1,0.2,4c0.1,0,0.2,0,0.3,0c0-0.3,0-3.8-0.2-4.7c0,0,0,0,0,0
								c0,0,0,0,0-0.1c0,0,0,0,0,0c0,0,0,0,0-0.1c0,0-1.2,0.5-2.6,1.7c0.8-0.6,1.6-0.9,2-1.1C21.4,34.8,21.6,34.7,21.6,35L21.6,35z"
								/>
							<path id="path366" class="st1" d="M20.9,49.6c0.4,0.8,0.5,1.2,0.4,2c-0.1,0-1.2,0.5-1.1,0c-0.2,0.1-0.4,0.7,0.1,0.9
								c0.1,0.1,0.4,0.1,0.7,0l0.5-0.2c0.2,0.3,0.7,0.3,0.9,0.3v0c-0.8,0.3-1.3,0.1-1.4,0.1c0.2,0.7,0.8,0.7,1.4,0.6
								c0.4-0.1,0.7-0.2,1-0.3c0.2,0,0.6,0,0.8,0.1c0.1-0.4-0.1-0.8-0.5-0.8c0,0-0.1-2,0.4-3c0.4-0.7,0.7-1.1,0.9-1.4
								c-0.8,0.5-1.7,0.8-2.7,0.8c-1,0-1.9-0.3-2.6-0.8C20.2,48.4,20.8,49.3,20.9,49.6L20.9,49.6z M45,61.3c0,0.6-0.4,0.3-0.4,0.3
								c-4.3-2.9-10.2-6.6-11.9-7.7c-0.9-0.6-1.6-1.3-1.9-1.6c-3-3-6-2.9-6.1-2.9c-0.6,0.8-0.5,2.7-0.5,2.7c1,0.4,0.3,1.7,0.3,1.7
								c-0.5-0.5-1.2-0.3-1.2-0.3c-0.3,0.1-0.6,0.2-0.8,0.2c-1.6,0.2-1.8-0.9-1.8-0.9c-0.4,0.1-0.9,0-1-0.5
								c-0.2-0.8,0.6-1.1,0.6-1.1c0,0.5,0.7,0.1,0.7,0.1c0.1-0.9-0.4-1.7-0.7-2c-0.2,0-3.1-0.1-6.1,2.9c-0.3,0.3-1,1.1-1.9,1.6
								c-1.7,1.1-7.7,4.8-12,7.7c0,0-0.4,0.3-0.4-0.3c-0.2-2.6,0.2-5.4,2.5-6.8c0,0-0.3-4.4,4.1-5.3c0,0,0.9-2.8,3.8-2.7
								c0,0,0.5-1.2,1.8-1.5c0,0,0.5-0.1,1.1,0c0,0,0.3-0.8,1.5-1c0,0,0.1-7.3,7.8-10.8c7.7,3.4,7.8,10.8,7.8,10.8
								c1.2,0.2,1.5,1,1.5,1c0.5-0.1,1.1,0,1.1,0c1.4,0.4,1.8,1.5,1.8,1.5c2.9-0.1,3.8,2.7,3.8,2.7c4.4,0.9,4.1,5.3,4.1,5.3
								C44.8,56,45.2,58.7,45,61.3L45,61.3z M0.5,61L0.5,61c2.4-1.5,7-4.5,11.4-7.3c0.2-0.1,0.8-0.4,1.6-1.2
								c1.4-1.3,3.4-3.2,6.6-3.5c0,0-0.5-0.7-0.8-1.2c-3.8,0.6-6.8,3.6-6.8,3.6c-3.8,1.1-6.4,2.1-9.2,3.3c0,0-0.3,0.1-0.3,0.1
								C-0.1,56.3,0.5,61,0.5,61L0.5,61z M3,54.4c0,0,4.9-2,9.4-3.2c0,0,0.7-0.6,1.8-1.4c0.1-0.1,0.3-0.2,0.4-0.2
								c-2-0.1-5.3,0-7.9,0.2C3,50.3,3,54.4,3,54.4L3,54.4z M7.1,49.2L7.1,49.2c3.4-0.1,5.9-0.1,7.9,0c0.5-0.3,1-0.6,1.4-0.8
								c-1.4-0.6-3.9-1.2-5.6-1.5C7.9,46.6,7.1,49.2,7.1,49.2L7.1,49.2z M13,45.3c-1.7,0-2.2,1.3-2.2,1.3c1.3,0.2,3.9,0.8,5.9,1.7
								c0.4-0.2,0.8-0.3,1.1-0.4C16.4,46.6,14.5,45.4,13,45.3L13,45.3z M13.6,45.1c1.9,0.4,3.5,1.8,4.6,2.7c0,0,0.1,0,0.2,0
								c0.2-0.1,0.5-0.1,0.7-0.2c-0.1-0.2-0.2-0.4-0.4-0.6c-0.1-0.1-0.2-0.3-0.3-0.4c-0.7-0.9-1.6-1.7-2.5-2.1
								C14.4,44,13.7,45,13.6,45.1L13.6,45.1z M17.6,43.7c-1.4-0.3-2.1,0.4-2.1,0.4c0.9,0.3,1.7,0.8,2.4,1.4c-0.2-0.5-0.3-1-0.3-1.6
								C17.6,43.8,17.6,43.7,17.6,43.7L17.6,43.7z M16.2,39.9c-0.5,1-0.8,2.2-1,3.5c0,0,0,0.1,0,0.1c0,0.1,0,0.1,0,0.2
								c0,0,1-0.6,2.4-0.3c0.1-0.9,0.5-1.8,1.1-2.5c-0.2-0.3-0.9-0.9-2.2-1.1C16.4,39.7,16.3,39.8,16.2,39.9L16.2,39.9z M19,36.3
								c-0.1,0-0.2-0.1-0.3,0c-0.8,0.8-1.6,1.8-2.2,3c0.6,0.1,1.6,0.3,2.4,1.2c0.5-0.5,1-0.9,1.7-1.2C20.4,38.9,19.9,37.1,19,36.3
								L19,36.3z M22.1,38.6c0-1,0-4-0.2-4.5l0,0l0,0c0,0-1.3,0.5-2.7,1.8c0.4,0.3,1.1,1.1,1.7,3.3c0.4-0.1,0.7-0.2,1.1-0.2V38.6
								L22.1,38.6z M22.5,39.3c-2.5,0-4.6,2-4.6,4.5c0,2.5,2,4.6,4.6,4.6c2.5,0,4.5-2,4.5-4.6C27.1,41.4,25,39.3,22.5,39.3
								L22.5,39.3z M23.2,34.1C23,34.7,23,37.6,23,38.6V39c0.4,0,0.8,0.1,1.1,0.2c0.6-2.2,1.4-3,1.7-3.3
								C24.4,34.7,23.2,34.1,23.2,34.1L23.2,34.1z M26.3,36.4c-0.1-0.1-0.2-0.1-0.3,0c-0.9,0.7-1.4,2.6-1.5,3
								c0.6,0.3,1.2,0.7,1.6,1.2c0.8-0.9,1.8-1.1,2.4-1.2C27.9,38.1,27.1,37.1,26.3,36.4L26.3,36.4z M29.8,43.5
								C29.8,43.4,29.8,43.4,29.8,43.5c-0.2-1.4-0.5-2.6-1-3.6c-0.1-0.1-0.2-0.2-0.3-0.2c-1.3,0.2-2,0.8-2.2,1.1
								c0.6,0.7,0.9,1.6,1,2.5c1.4-0.3,2.4,0.3,2.4,0.3C29.8,43.6,29.8,43.5,29.8,43.5L29.8,43.5z M27.2,45.5
								c0.6-0.6,1.5-1.2,2.4-1.4c0,0-0.7-0.7-2.1-0.4c0,0.1,0,0.1,0,0.2C27.4,44.5,27.3,45,27.2,45.5L27.2,45.5z M29.1,44.6
								c-1,0.4-1.9,1.3-2.7,2.2c0,0-0.1,0.1-0.1,0.1c-0.2,0.2-0.3,0.5-0.4,0.7c0.3,0.1,0.5,0.1,0.7,0.2c0.1,0,0.1,0,0.2,0
								c1.1-0.9,2.7-2.3,4.6-2.7C31.4,45,30.6,44,29.1,44.6L29.1,44.6z M32.1,45.3c-1.6,0.1-3.4,1.3-4.9,2.6
								c0.3,0.1,0.8,0.2,1.1,0.4c2-0.9,4.6-1.5,5.9-1.7C34.2,46.6,33.8,45.3,32.1,45.3L32.1,45.3z M37.9,49.2c0,0-0.8-2.6-3.7-2.3
								c-1.8,0.2-4.2,0.9-5.6,1.5c0.4,0.2,0.9,0.5,1.4,0.8C32,49.1,34.6,49.1,37.9,49.2L37.9,49.2L37.9,49.2z M38.4,49.6
								c-2.6-0.2-5.9-0.3-7.9-0.2c0.1,0.1,0.2,0.2,0.4,0.2c1.1,0.8,1.8,1.4,1.8,1.4c4.5,1.2,9.4,3.2,9.4,3.2S42.1,50.3,38.4,49.6
								L38.4,49.6z M42.1,54.8c0,0-0.3-0.1-0.3-0.1c-2.8-1.2-5.5-2.2-9.2-3.3c0,0-3-3-6.8-3.6c-0.3,0.4-0.8,1.2-0.8,1.2
								c3.3,0.3,5.3,2.2,6.6,3.5c0.8,0.8,1.4,1.1,1.6,1.2c4.4,2.8,9.1,5.8,11.4,7.3l0,0C44.5,61,45.1,56.3,42.1,54.8L42.1,54.8z"/>
							
								<linearGradient id="path376_00000126293254987694554450000000495233206516197554_" gradientUnits="userSpaceOnUse" x1="-163.7948" y1="-438.5452" x2="-163.7948" y2="-439.4962" gradientTransform="matrix(5.2861 0 0 5.409 888.3604 2425.1494)">
								<stop  offset="0" style="stop-color:#FDE093"/>
								<stop  offset="0.4607" style="stop-color:#FCD205"/>
								<stop  offset="1" style="stop-color:#E18F16"/>
							</linearGradient>
							<path id="path376" style="fill:url(#path376_00000126293254987694554450000000495233206516197554_);" d="M22.5,48.8
								c1,0,1.9-0.3,2.7-0.8c-0.2,0.3-0.6,0.8-0.9,1.4c-0.6,1-0.4,3-0.4,3c0.4,0,0.6,0.4,0.5,0.8c-0.1-0.1-0.6-0.2-0.8-0.1
								c-0.2,0-0.6,0.2-1,0.3c-0.6,0.1-1.2,0.1-1.4-0.6c0.1,0,0.6,0.2,1.4-0.1v0c-0.2,0-0.7-0.1-0.9-0.3l-0.5,0.2
								c-0.3,0.1-0.6,0.1-0.7,0c-0.5-0.2-0.3-0.7-0.1-0.9c0,0.5,1.1,0,1.1,0c0-0.9-0.1-1.3-0.4-2c-0.1-0.3-0.8-1.2-1.1-1.6
								C20.6,48.5,21.5,48.8,22.5,48.8L22.5,48.8z"/>
							<path id="path378" class="st30" d="M22.5,53c0.4-0.1,0.7-0.3,1-0.3c0.2,0,0.6,0,0.8,0.1c0,0.2,0,0.3,0,0.5
								c-0.1-0.1-0.6-0.2-0.8-0.2c-0.2,0-0.6,0.2-1,0.3c-0.6,0.1-1.2,0.1-1.4-0.7c0.1,0,0.2,0.1,0.3,0.1
								C21.7,53.2,22.1,53.1,22.5,53L22.5,53z"/>
							<path id="path380" class="st30" d="M20.3,52.2c0.1,0.1,0.4,0.1,0.8,0l0.5-0.2c0.1,0.3,0.6,0.7,0.8,0.8c0,0-0.4,0-0.7-0.2
								c-0.1-0.1-0.2-0.1-0.2-0.2l-0.4,0.1c-0.5,0.2-0.8,0.1-0.9,0.1c-0.3-0.1-0.3-0.4-0.3-0.7C20.1,52,20.2,52.1,20.3,52.2
								L20.3,52.2z"/>
						</g>
					</g>
					<path id="수상구조사종합정보" class="st32" d="M60.7-2.1l1.4-1.4l-5.3-4.2v-3.2h-2.6v2.5c0,0.3-0.1,0.9-0.6,1.2
						c-0.5,0.4-3,2.4-4.6,3.7l1.4,1.4c1.7-1.1,3.4-2.2,5.1-3.3L60.7-2.1z M54.2,6.7L56.9,6V0.9h5.9v-1.8H48.4v1.8h5.9V6.7z M77-1.2
						v-4.3h2.4v-1.8H77v-3.3h-2.7v9.4H77z M65-0.9c1.2-1.1,2.3-2.3,3.5-3.4l3,3l1.5-1.2l-3.3-4.3v-3.7h-2.6v3.3c0,0.2,0,0.6-0.3,0.9
						c-0.5,0.6-2.2,2.9-3.3,4.3L65-0.9z M73.6,7c1.2,0,3.5-1.9,3.5-2.9l0,0V2c0-1.1-1.9-2.5-3.1-2.5l0,0h-4.3
						c-1.2,0-3.5,1.9-3.5,2.9l0,0v2c0,1,1.9,2.6,3.1,2.6l0,0H73.6z M72.8,5.1H70c-0.5,0-1.1-0.5-1.1-1l0,0V2.8
						c0-0.6,1.2-1.5,1.7-1.5l0,0h2.9c0.5,0,1.1,0.4,1.1,1l0,0v1.3C74.5,4.2,73.3,5.1,72.8,5.1L72.8,5.1z M86.2,6.7L88.9,6V0h5.9
						v-1.8h-2.6l0.6-1.9C92.9-4.1,93-4.6,93-5.1l0,0v-3.1c0-0.4-0.1-0.5-0.2-0.6l0,0L92-9.7c-0.2-0.2-0.4-0.2-0.6-0.2l0,0H82v1.8
						h8.3v3.5l-0.2,2.7h-9.8V0h5.9V6.7z M108.5-0.3l1.4-1.4l-5.1-4.4v-1.9h4.1v-1.8H98v1.8h4.1V-7c0,0.3-0.2,0.9-0.6,1.2
						c-0.5,0.4-3.7,3.2-4.6,3.9l0,0l1.4,1.4l5.1-3.7L108.5-0.3z M110.6,4V2.1h-5.9v-3.6H102v3.6h-5.9V4H110.6z M122.1,6l2.7-0.7
						v-8.5h2.6V-5h-2.6v-5.5h-2.7V6z M112.8,2.7l3.5-3.8l3.1,3.4l1.5-1.2l-3.4-4.7v-6.7H115V-4c0,0.3-0.1,0.7-0.4,1
						c-0.5,0.7-2.2,3.1-3.2,4.5L112.8,2.7z M140.2-3.4l1-1.3L136.8-8v-0.5h4.1v-1.8H130v1.8h4.1v0.2c0,0.1-0.1,0.3-0.6,0.6
						c-0.5,0.4-2.4,1.8-3.9,2.9l0,0l1,1.3c1.4-0.9,3.4-2,4.8-2.8l0,0L140.2-3.4z M142.6-0.7v-1.8h-5.9v-1.8h-2.7v1.8h-5.9v1.8H142.6
						z M137.4,6.9c1.2,0,3.5-2,3.5-3.1l0,0v-1c0-1.1-1.8-2.5-3-2.5l0,0h-4.3c-1.2,0-3.5,2-3.5,3.1l0,0v1c0,1,1.8,2.6,3,2.6l0,0
						H137.4z M136.4,5.1h-2.4c-0.6,0-1.4-0.6-1.4-1.1l0,0V3.6c0-0.6,1.2-1.5,1.7-1.5l0,0h2.6c0.6,0,1.2,0.5,1.2,1.1l0,0v0.4
						C138.2,4.2,137,5.1,136.4,5.1L136.4,5.1z M153-7.6v-1.8h-3.6v-2h-2.5v2h-3.2v1.8H153z M156.8-1v-3.8h2.4v-1.8h-2.4v-3.9h-2.7
						V-1H156.8z M149.4-1c1,0,3-1.6,3-2.5l0,0v-1.3c0-0.9-1.7-2.2-2.7-2.2l0,0h-2.6c-1,0-3,1.6-3,2.5l0,0v1.3c0,0.9,1.7,2.2,2.7,2.2
						l0,0H149.4z M148.5-2.9h-0.8c-0.5,0-1-0.4-1-0.9l0,0V-4c0-0.5,1-1.3,1.4-1.3l0,0h0.8c0.4,0,1,0.4,1,0.9l0,0v0.3
						C150-3.7,149-2.9,148.5-2.9L148.5-2.9z M155,6.8c0.2,0,0.4,0,0.6-0.2l0,0l1-0.7c0.1-0.1,0.2-0.2,0.2-0.6l0,0v-5.3h-2.7v1.6
						h-5.6v-1.6h-2.7v6.8H155z M154.1,4.9h-5.6V3.4h5.6V4.9z M173.9-1.2v-9.4h-2.7v3.5h-2.8v1.8h2.8v4.1H173.9z M161.4-0.9
						c1.2-1.1,2.3-2.2,3.5-3.3l0,0l3,2.8l1.5-1.2l-3.1-4v-1.7h2.8V-10h-8.3v1.8h2.8V-7c0,0.3-0.1,0.5-0.3,0.8
						c-0.4,0.5-1.2,1.5-1.9,2.4L161-3.3c-0.3,0.4-0.7,0.9-1,1.2l0,0L161.4-0.9z M170.3,7c1.2,0,3.5-1.9,3.5-2.9l0,0V2
						c0-1.1-1.9-2.5-3.1-2.5l0,0h-4.3c-1.2,0-3.5,1.9-3.5,2.9l0,0v2c0,1,1.9,2.6,3.1,2.6l0,0H170.3z M169.5,5.1h-2.9
						c-0.5,0-1.1-0.5-1.1-1l0,0V2.8c0-0.6,1.2-1.5,1.7-1.5l0,0h2.9c0.5,0,1.1,0.4,1.1,1l0,0v1.3C171.2,4.2,170,5.1,169.5,5.1
						L169.5,5.1z M190.3,4V2.1h-5.9v-2.7h2.3c0.2,0,0.4,0,0.6-0.2l0,0l0.9-0.7c0.1-0.1,0.2-0.2,0.2-0.6l0,0v-8h-2.7v3h-5.4v-3h-2.7
						v9.5h4.1v2.7h-5.9V4H190.3z M185.8-2.4h-5.4v-2.9h5.4V-2.4z"/>
					<g id="Group-242" transform="translate(49.375410, 2.543683)">
						<path id="Fill-214" class="st33" d="M4.5-30H2.4v1.9H0v1.5h1c-0.2,0.4-0.4,0.9-0.4,1.4c0,1.6,1.3,2.9,2.9,2.9
							c1.6,0,2.9-1.3,2.9-2.9c0-0.5-0.1-1-0.4-1.4h0.9v-1.5H4.5V-30z M3.5-23.8c-0.5,0-0.9-0.6-0.9-1.4c0-0.8,0.4-1.4,0.9-1.4
							c0.4,0,0.8,0.6,0.8,1.4C4.3-24.5,4-23.8,3.5-23.8L3.5-23.8z"/>
						<polygon id="Fill-216" class="st33" points="9.8,-26 9,-26 9,-29.8 7.2,-29.8 7.2,-17.1 9,-17.1 9,-24.4 9.8,-24.4 9.8,-17.1 
							11.6,-17.1 11.6,-29.8 9.8,-29.8 						"/>
						<polygon id="Fill-218" class="st33" points="23.4,-29.8 21.4,-29.8 21.4,-23 23.4,-23 23.4,-24.4 25.2,-24.4 25.2,-25.8 
							23.4,-25.8 23.4,-26.9 25.2,-26.9 25.2,-28.3 23.4,-28.3 						"/>
						<path id="Fill-220" class="st33" d="M19.8-22.8c-1.9,0-3.3,1.4-3.3,3c0,1.7,1.5,3,3.3,3c1.8,0,3.4-1.4,3.4-3
							C23.1-21.5,21.6-22.8,19.8-22.8 M19.8-18.3c-0.7,0-1.3-0.6-1.3-1.5c0-0.9,0.6-1.5,1.3-1.5c0.7,0,1.3,0.6,1.3,1.5
							C21.1-18.9,20.5-18.3,19.8-18.3"/>
						<path id="Fill-222" class="st33" d="M20.2-26.4c0-1.6-1.4-3-3.2-3c-1.8,0-3.2,1.3-3.2,3c0,1.6,1.4,3,3.2,3
							C18.7-23.4,20.2-24.8,20.2-26.4 M15.7-26.4c0-0.8,0.6-1.5,1.2-1.5s1.2,0.7,1.2,1.5c0,0.8-0.6,1.5-1.2,1.5S15.7-25.6,15.7-26.4
							"/>
						<path id="Fill-224" class="st33" d="M33.7-22.8c-1.8,0-3.3,1.3-3.3,3c0,1.6,1.5,3,3.3,3c1.8,0,3.3-1.3,3.3-3
							C37-21.5,35.5-22.8,33.7-22.8 M33.7-18.4c-0.7,0-1.2-0.6-1.2-1.5c0-0.8,0.5-1.5,1.2-1.5c0.7,0,1.2,0.6,1.2,1.5
							C34.9-19,34.4-18.4,33.7-18.4"/>
						<path id="Fill-226" class="st33" d="M33.2-29.2h-5.4v1.5h3.3v0.2c0,0.9-0.3,1.6-0.9,2.2c-0.4,0.4-1.2,1.1-2.6,1.3
							c-0.1,0-0.1,0.1,0,0.1l0.9,1.1c1.4-0.1,2.4-0.8,3.3-1.7c0.5-0.5,1-1.2,1.2-2c0.2-0.5,0.3-0.9,0.3-1.4c0-0.2,0-0.3,0-0.5v-0.7
							C33.3-29.2,33.3-29.2,33.2-29.2"/>
						<polygon id="Fill-228" class="st33" points="35.3,-29.8 35.3,-28 32.9,-28 32.9,-26.5 35.3,-26.5 35.3,-25.7 32.9,-25.7 
							32.9,-24.3 35.3,-24.3 35.3,-22.9 37.4,-22.9 37.4,-29.8 						"/>
						<polygon id="Fill-230" class="st33" points="51.5,-27.3 51.5,-29.8 49.4,-29.8 49.4,-23 51.5,-23 51.5,-25.7 53.1,-25.7 
							53.1,-27.3 						"/>
						<path id="Fill-232" class="st33" d="M44.8-25c0.1-0.1,0.1-0.1,0.2,0c0.6,1.1,2,1.8,2.6,1.9c0,0,0.7-0.7,1-1.1c0,0,0-0.1,0-0.1
							c-0.6-0.1-1.1-0.2-1.7-0.8C46.4-25.6,46-26.2,46-27h2.2v-1.5H46V-30h-2.1v1.5h-2.2v1.5h2.2c0,0.8-0.4,1.4-0.9,1.9
							c-0.5,0.5-1,0.7-1.6,0.8c-0.1,0-0.1,0.1,0,0.1c0.3,0.4,0.9,1,0.9,1.1C42.9-23.2,44-23.7,44.8-25"/>
						<path id="Fill-234" class="st33" d="M45.4-18.5v-0.7h5.8c0.2,0,0.3-0.1,0.3-0.3v-2.8c0-0.1-0.1-0.2-0.1-0.2h-8v1.3h6.1v0.7
							h-6.1v2.1c0,0.8,0.3,1.1,1.1,1.1h7.2v-1.3h-6.1C45.5-18.4,45.4-18.5,45.4-18.5"/>
						<path id="Fill-236" class="st33" d="M61.2-22.8c-1.8,0-3.3,1.3-3.3,3c0,1.6,1.5,3,3.3,3c1.8,0,3.3-1.3,3.3-3
							C64.5-21.5,63-22.8,61.2-22.8 M61.2-18.4c-0.7,0-1.2-0.6-1.2-1.5c0-0.8,0.5-1.5,1.2-1.5c0.7,0,1.2,0.6,1.2,1.5
							C62.4-19,61.9-18.4,61.2-18.4"/>
						<polygon id="Fill-238" class="st33" points="63.1,-27.2 63.1,-29.8 65.2,-29.8 65.2,-23 63.1,-23 63.1,-25.6 61.8,-25.6 
							61.8,-27.2 						"/>
						<path id="Fill-240" class="st33" d="M58.5-25c0.1-0.1,0.1-0.1,0.2,0c0.4,0.9,1.7,1.8,2.3,1.9c0,0,0.9-1.1,0.9-1.1
							c0.1-0.1-0.4,0-1.4-0.9c-0.5-0.5-0.9-1.1-0.9-1.8h2v-1.5h-2V-30h-2.1v1.5h-2.1v1.5h2.1c0,1-1,2.5-2.4,2.7
							c-0.1,0-0.1,0.1,0,0.1c0.3,0.4,0.9,1.1,0.9,1.2C56.8-23.2,57.8-23.9,58.5-25"/>
					</g>
				</g>
			</g>
		</g>
	</g>
</g>
</svg>
