<?xml version="1.0" encoding="utf-8"?>
<!-- Generator: Adobe Illustrator 26.5.0, SVG Export Plug-In . SVG Version: 6.00 Build 0)  -->
<svg version="1.1" id="Layer_1" xmlns="http://www.w3.org/2000/svg" xmlns:xlink="http://www.w3.org/1999/xlink" x="0px" y="0px"
	 viewBox="0 0 114 40.8" style="enable-background:new 0 0 114 40.8;" xml:space="preserve">
<style type="text/css">
	.st0{fill-rule:evenodd;clip-rule:evenodd;fill:#FFFFFF;fill-opacity:0;}
	.st1{fill:#142354;}
	.st2{fill:url(#path22_00000048502257305290356820000000421020004562919819_);}
	.st3{fill:url(#path30_00000034066509759042377140000012845734795119280061_);}
	.st4{fill:#FCD24B;}
	.st5{fill:#D6A632;}
	.st6{fill:#CA7F25;}
	.st7{fill:url(#path52_00000127763051731922513160000007339659566842523325_);}
	.st8{fill:#FFFFFF;}
	.st9{fill:url(#path94_00000085962051587441992190000002615297992487506322_);}
	.st10{fill:#0C1635;}
	.st11{fill:#FCD205;}
	.st12{fill:url(#path110_00000052083858587314973900000005338945540416024754_);}
	.st13{fill:url(#path124_00000066488406835861089270000015132788441357448893_);}
	.st14{fill:url(#path142_00000034062071019430494960000010050472144534327436_);}
	.st15{fill:url(#path152_00000023966065785108962660000017902949543859115449_);}
	.st16{fill:url(#path162_00000008870518312770324550000014160350875773823134_);}
	.st17{fill:url(#path172_00000156582385050835672470000008765152709770417797_);}
	.st18{fill:url(#path182_00000098926526173256089390000008530367613131460747_);}
	.st19{fill:url(#path192_00000007392198881975190040000010602248255122480795_);}
	.st20{fill:url(#path202_00000106829090646525783830000017696737934496581271_);}
	.st21{fill:url(#path212_00000173847749026698892530000005465331401409779885_);}
	.st22{fill:url(#path222_00000106843301893776004460000003616694579161998227_);}
	.st23{fill:url(#path232_00000016072437031867215520000015100311398552054164_);}
	.st24{fill:url(#path242_00000094620141397666102940000003321292573462630303_);}
	.st25{fill:url(#path268_00000028316476302517883650000015909587953543523206_);}
	.st26{fill:url(#path278_00000098925895945448549450000013649896772273103022_);}
	.st27{fill:url(#path288_00000159470704339625879820000016122489549225641659_);}
	.st28{fill:url(#path296_00000120552458192752050910000000864517903701637520_);}
	.st29{fill:#E18F16;}
	.st30{fill:#FEF0BB;}
	.st31{fill:url(#path376_00000054961335747952407520000013275574652858349229_);}
	.st32{fill-rule:evenodd;clip-rule:evenodd;fill:#001B60;}
</style>
<g id="Page-1">
	<g id="HOME-1---Horizon" transform="translate(-390.000000, -2020.000000)">
		<g id="Group-45" transform="translate(0.000000, 2018.757767)">
			<g id="banner-01" transform="translate(390.000000, 1.242233)">
				<rect id="Rectangle" y="0" class="st0" width="114" height="42.1"/>
				
					<g id="g3399" transform="translate(22.520167, 50.000000) scale(-1, 1) rotate(-180.000000) translate(-22.520167, -50.000000) translate(0.000000, 30.000000)">
					<path id="path12" class="st1" d="M8.9,61.1V47c0-0.8,0.6-2.7,1.4-4.5c0.6-1.3,1.8-3.8,3.5-5.5c1.5-1.5,3.1-2.8,5.2-4
						c2-1.2,3.3-2.7,3.6-3c0.3,0.3,1.6,1.8,3.6,3c2,1.2,3.7,2.5,5.2,4c1.6,1.7,2.9,4.2,3.5,5.5c0.8,1.8,1.4,3.7,1.4,4.5v14.1
						c-0.1,0-13.6,8.8-13.6,8.9C22.4,70,8.9,61.2,8.9,61.1L8.9,61.1z"/>
					
						<radialGradient id="path22_00000110439186290396803100000009161512600143390652_" cx="-230.5623" cy="-384.2988" r="1.2534" gradientTransform="matrix(26.1046 0 0 26.1046 6034.5674 10093.6973)" gradientUnits="userSpaceOnUse">
						<stop  offset="0" style="stop-color:#FDE093"/>
						<stop  offset="0.4607" style="stop-color:#FCD205"/>
						<stop  offset="1" style="stop-color:#E18F16"/>
					</radialGradient>
					<path id="path22" style="fill:url(#path22_00000110439186290396803100000009161512600143390652_);" d="M35.4,60.7l0.1,0.1v0.1
						c-0.6,0.4-12.4,8-13.1,8.5c-0.7-0.4-12.5-8.1-13.1-8.5v-0.1V47c0-1.4,2-6.8,4.7-9.6c1.4-1.5,3.1-2.8,5-3.9
						c1.5-0.9,2.7-2,3.3-2.6l0,0l0,0l0,0l0,0h0l0,0c0.6,0.7,1.7,1.7,3.3,2.6c2,1.2,3.6,2.5,5,3.9c2.7,2.8,4.7,8.2,4.7,9.6v13.7
						L35.4,60.7l0-0.2L35.4,60.7L35.4,60.7L35.4,60.7z"/>
					
						<linearGradient id="path30_00000146480864040583335950000011220429907691574685_" gradientUnits="userSpaceOnUse" x1="-229.692" y1="-380.4433" x2="-229.5515" y2="-380.7049" gradientTransform="matrix(24.2335 0 0 35.9473 5586.4458 13735.5908)">
						<stop  offset="0" style="stop-color:#1F3781"/>
						<stop  offset="1" style="stop-color:#142354"/>
					</linearGradient>
					<path id="path30" style="fill:url(#path30_00000146480864040583335950000011220429907691574685_);" d="M10.4,60.2V46.9
						c0-0.4,0.4-1.9,1.3-3.9c0.6-1.2,1.7-3.5,3.2-5c1.4-1.4,2.9-2.6,4.9-3.8c1.2-0.7,2.1-1.5,2.8-2.1c0.7,0.7,1.6,1.4,2.8,2.1
						c1.9,1.1,3.5,2.4,4.8,3.8c1.5,1.5,2.6,3.8,3.2,5c0.9,2,1.3,3.5,1.3,3.9v13.2c-2.3,1.5-9.6,6.3-12.1,7.9
						C21.1,67.2,11.4,60.9,10.4,60.2L10.4,60.2z"/>
					<path id="path32" class="st4" d="M9.5,60.8L9.5,60.8l0.1-0.1l12.9,8.4v0.2l0,0C21.8,68.8,10,61.2,9.5,60.8z"/>
					<path id="path34" class="st5" d="M35.4,60.7l0.1,0.1v0.1c-0.6,0.4-12.4,8-13.1,8.5v-0.2L35.4,60.7z"/>
					<polygon id="path36" class="st4" points="22.5,68.9 22.5,68.9 22.5,68.1 					"/>
					<path id="path38" class="st6" d="M34.7,60.2l0.2,0.2v0c-0.2,0.1-12.1,7.9-12.4,8.1v-0.3C22.7,68,34.5,60.3,34.7,60.2L34.7,60.2
						z"/>
					<path id="path40" class="st6" d="M10.1,60.3L10.1,60.3l0.2-0.2c0.1,0.1,12,7.8,12.2,7.9v0.3l0,0C22.3,68.2,10.3,60.4,10.1,60.3
						z"/>
					<path id="path42" class="st4" d="M19.7,34.2c-1.9,1.2-3.5,2.4-4.9,3.8c-2.5,2.6-4.5,7.7-4.5,8.9v13.3l-0.2,0.2V46.9
						c0-0.6,0.5-2.1,1.3-4c0.6-1.2,1.7-3.5,3.2-5.1c1.4-1.4,3-2.7,4.9-3.8c1-0.6,2-1.4,2.9-2.3l0,0V32
						C21.6,32.8,20.7,33.6,19.7,34.2L19.7,34.2z"/>
					
						<linearGradient id="path52_00000020384133310105703980000013146834210312420245_" gradientUnits="userSpaceOnUse" x1="-220.1487" y1="-383.4417" x2="-220.181" y2="-382.9757" gradientTransform="matrix(12.3955 0 0 28.5961 2745.0522 11008.7188)">
						<stop  offset="0" style="stop-color:#C16E0D"/>
						<stop  offset="0.3" style="stop-color:#DA9219"/>
						<stop  offset="1" style="stop-color:#C16E0D"/>
					</linearGradient>
					<path id="path52" style="fill:url(#path52_00000020384133310105703980000013146834210312420245_);" d="M19.7,34.2
						c-1.9,1.2-3.5,2.4-4.9,3.8c-2.5,2.6-4.5,7.7-4.5,8.9v13.3l-0.2,0.2V46.9c0-0.6,0.5-2.1,1.3-4c0.6-1.2,1.7-3.5,3.2-5.1
						c1.4-1.4,3-2.7,4.9-3.8c1-0.6,2-1.4,2.9-2.3l0,0V32C21.6,32.8,20.7,33.6,19.7,34.2L19.7,34.2z"/>
					<path id="path54" class="st4" d="M34.7,46.9c0-1.2-2-6.4-4.5-8.9c-1.4-1.4-2.9-2.6-4.9-3.8c-1-0.6-1.9-1.3-2.8-2.2v-0.3
						c0.9,0.9,1.9,1.6,2.9,2.3c1.9,1.2,3.5,2.4,4.9,3.8c1.5,1.5,2.7,3.9,3.2,5.1c0.9,1.9,1.3,3.5,1.3,4v13.4l-0.2-0.2V46.9
						L34.7,46.9z"/>
					<path id="path56" class="st8" d="M18.1,63.6h0.5c0.4,0,0.5,0,0.6-0.1c0.2-0.1,0.3-0.3,0.3-0.5c0-0.3-0.1-0.5-0.4-0.6
						c-0.1,0-0.2-0.1-0.4-0.1h-0.2v-0.8h-0.4V63.6L18.1,63.6z M18.5,63.3v-0.6h0.2c0.2,0,0.2,0,0.3,0.1c0,0.1,0,0.1,0,0.2
						c0,0.2-0.1,0.3-0.3,0.3H18.5z"/>
					<path id="path58" class="st8" d="M20.5,63.7c0.6,0,0.9-0.4,0.9-1c0-0.5-0.2-0.8-0.5-1c-0.1-0.1-0.2-0.1-0.4-0.1
						c-0.3,0-0.5,0.1-0.7,0.3c-0.2,0.2-0.2,0.5-0.2,0.8c0,0.4,0.2,0.8,0.5,1C20.2,63.6,20.4,63.7,20.5,63.7L20.5,63.7z M20.5,63.3
						c-0.1,0-0.3-0.1-0.3-0.2c-0.1-0.1-0.1-0.3-0.1-0.6c0-0.4,0.1-0.6,0.2-0.7c0.1-0.1,0.1-0.1,0.2-0.1c0.3,0,0.4,0.2,0.4,0.7
						c0,0.2,0,0.4-0.1,0.5C20.8,63.2,20.7,63.3,20.5,63.3L20.5,63.3z"/>
					<polygon id="path60" class="st8" points="21.7,63.6 22.1,63.6 22.1,61.9 22.8,61.9 22.8,61.6 21.7,61.6 					"/>
					<polygon id="path62" class="st8" points="23.1,63.6 23.5,63.6 23.5,61.6 23.1,61.6 					"/>
					<path id="path64" class="st8" d="M25.3,63.5l-0.2-0.3c-0.1,0.1-0.2,0.1-0.3,0.1c-0.1,0-0.3-0.1-0.3-0.2
						c-0.1-0.1-0.1-0.3-0.1-0.5c0-0.3,0-0.4,0.1-0.6c0.1-0.2,0.2-0.2,0.4-0.2c0.1,0,0.2,0,0.3,0.1c0,0,0,0,0,0l0.2-0.3
						c-0.2-0.1-0.3-0.2-0.6-0.2c-0.3,0-0.5,0.1-0.7,0.3c-0.2,0.2-0.2,0.4-0.2,0.7c0,0.3,0,0.5,0.1,0.6c0.2,0.3,0.5,0.5,0.8,0.5
						C25,63.7,25.2,63.6,25.3,63.5L25.3,63.5z"/>
					<polygon id="path66" class="st8" points="25.6,63.6 26.7,63.6 26.7,63.3 26,63.3 26,62.8 26.6,62.8 26.6,62.5 26,62.5 26,61.9 
						26.8,61.9 26.8,61.6 25.6,61.6 					"/>
					<path id="path68" class="st8" d="M24.1,56.1c0-0.6,0.5-1,1.1-1c0.6,0,1.1,0.5,1.1,1c0,0.6-0.5,1-1.1,1
						C24.6,57.1,24.1,56.6,24.1,56.1L24.1,56.1z M24.8,56.1c0,0.3,0.2,0.5,0.5,0.5c0.3,0,0.5-0.2,0.5-0.5c0-0.3-0.2-0.5-0.5-0.5
						C25,55.5,24.8,55.8,24.8,56.1z"/>
					<path id="path70" class="st8" d="M25.8,59.6v-0.6H25l0,0.2v0.2c0,0-1.8,0-1.9,0v-0.5h1.2v-0.1c0-0.3-0.1-0.6-0.3-0.8
						c-0.2-0.3-0.6-0.4-0.9-0.5c0,0,0.3-0.4,0.3-0.4c0.4,0,0.8,0.2,1.1,0.6c0.2,0.2,0.3,0.4,0.4,0.7l0.9,0h0v-0.3H25v-0.5h0.8v-0.5
						h0.7v2.4H25.8L25.8,59.6z"/>
					<path id="path72" class="st8" d="M14.4,59.6V59h-0.9v-0.5h0.4l0,0c-0.1-0.2-0.1-0.3-0.1-0.5c0-0.5,0.4-1,1-1c0.5,0,1,0.4,1,1
						c0,0.2,0,0.3-0.1,0.5l0,0h0.3V59H15v0.6H14.4L14.4,59.6z M14.4,58c0,0.3,0.1,0.5,0.3,0.5c0.2,0,0.3-0.2,0.3-0.5
						c0-0.3-0.1-0.5-0.3-0.5C14.5,57.5,14.4,57.7,14.4,58z"/>
					<path id="path74" class="st8" d="M16.9,59.6v-1.3h-0.3v1.3H16v-4.4h0.6v2.6h0.3v-2.6h0.6v4.4H16.9z"/>
					<path id="path76" class="st8" d="M21,59.6v-2.3h0.7v0.5h0.6v0.5h-0.6v0.4h0.6V59h-0.6v0.5H21L21,59.6z"/>
					<path id="path78" class="st8" d="M19.3,56.1c0-0.6,0.5-1,1.2-1c0.6,0,1.1,0.5,1.1,1c0,0.6-0.5,1-1.1,1
						C19.8,57.1,19.3,56.6,19.3,56.1L19.3,56.1z M19.9,56.1c0,0.3,0.2,0.6,0.5,0.6c0.3,0,0.5-0.3,0.5-0.6c0-0.3-0.2-0.6-0.5-0.6
						C20.1,55.5,19.9,55.8,19.9,56.1z"/>
					<path id="path80" class="st8" d="M18.3,58.4c0-0.6,0.5-1,1.1-1c0.6,0,1.1,0.5,1.1,1c0,0.6-0.5,1-1.1,1
						C18.8,59.4,18.3,59,18.3,58.4L18.3,58.4z M19,58.4c0,0.3,0.2,0.5,0.5,0.5c0.2,0,0.4-0.3,0.4-0.5c0-0.3-0.2-0.5-0.4-0.5
						C19.2,57.9,19,58.1,19,58.4z"/>
					<path id="path82" class="st8" d="M30.2,59.6v-2.3h0.7v1h0.6v0.5h-0.6v0.9H30.2L30.2,59.6z"/>
					<path id="path84" class="st8" d="M28.3,59.6v-0.5h-0.8v-0.5h0.8v0c0-0.3-0.2-0.5-0.3-0.7c-0.2-0.2-0.4-0.3-0.6-0.3
						c0,0,0.2-0.2,0.2-0.2l0.1-0.2c0.2,0,0.6,0.2,0.9,0.7c0,0,0,0,0.1,0c0,0,0,0,0.1,0c0.2-0.4,0.7-0.6,0.9-0.7c0,0,0.3,0.4,0.3,0.4
						c-0.2,0-0.4,0.1-0.6,0.3c-0.1,0.1-0.3,0.3-0.3,0.7v0h0.8v0.5H29v0.5H28.3L28.3,59.6z"/>
					<path id="path86" class="st8" d="M28.1,57v-0.4h2.1v-0.3h-2.1v-0.7c0-0.3,0.1-0.4,0.4-0.4H31v0.4h-2.1c-0.1,0-0.1,0-0.1,0.1
						v0.2h2.1c0.1,0,0.1,0,0.1,0.1v1c0,0,0,0,0,0L28.1,57L28.1,57z"/>
					
						<linearGradient id="path94_00000041985916692484138820000005723707063255324290_" gradientUnits="userSpaceOnUse" x1="-221.067" y1="-383.288" x2="-221.3675" y2="-381.6764" gradientTransform="matrix(13.0512 0 0 29.8356 2901.7549 11467.6162)">
						<stop  offset="0" style="stop-color:#FCD24B"/>
						<stop  offset="1" style="stop-color:#8B4E08"/>
					</linearGradient>
					<path id="path94" style="fill:url(#path94_00000041985916692484138820000005723707063255324290_);" d="M22.5,31l-0.2,0.2
						c-0.6,0.6-1.6,1.6-3,2.3c-2,1.2-3.6,2.5-5,3.9c-1.5,1.6-2.7,4-3.3,5.2c-0.8,1.8-1.4,3.5-1.4,4.2v13.5l0,0.2l-0.1,0.1V47
						c0-1.4,2-6.8,4.7-9.6c1.4-1.5,3.1-2.8,5-3.9c1.5-0.9,2.7-2,3.3-2.6l0,0L22.5,31L22.5,31L22.5,31z"/>
					<path id="path96" class="st6" d="M22.5,31l0.2,0.2c0.6,0.6,1.6,1.6,3,2.3c2,1.2,3.6,2.5,5,3.9c1.5,1.6,2.8,4,3.3,5.2
						c0.8,1.8,1.4,3.5,1.4,4.2v13.5v0.2l0.1,0.1V47c0-1.4-2-6.8-4.7-9.6c-1.4-1.5-3.1-2.8-5-3.9c-1.5-0.9-2.7-2-3.3-2.6l0,0V31
						L22.5,31L22.5,31z"/>
					<path id="path98" class="st10" d="M22.5,68.1c-0.2-0.1-12-7.8-12.2-7.9V46.9c0-1.2,2-6.4,4.5-8.9c1.4-1.4,2.9-2.6,4.9-3.8
						c1-0.6,1.9-1.3,2.8-2.2c0.9,0.9,1.8,1.6,2.8,2.2c1.9,1.2,3.5,2.4,4.9,3.8c2.5,2.6,4.5,7.7,4.5,8.9v13.3
						C34.5,60.3,22.7,68,22.5,68.1L22.5,68.1z M34.5,46.9c0-1.2-2-6.3-4.4-8.8c-1.4-1.4-2.9-2.6-4.8-3.8c-0.9-0.6-1.9-1.3-2.7-2.1
						c-0.9,0.8-1.8,1.5-2.7,2.1c-1.9,1.1-3.5,2.4-4.8,3.8c-2.5,2.6-4.4,7.6-4.4,8.8v13.2c0.1,0.1,11.8,7.7,12,7.8
						c1-0.7,11.1-7.2,12-7.8V46.9z"/>
					<path id="path100" class="st11" d="M22.5,48.4c-2.5,0-4.6-2-4.6-4.6c0-2.5,2-4.5,4.6-4.5c2.5,0,4.5,2,4.5,4.5
						C27.1,46.4,25,48.4,22.5,48.4z"/>
					
						<linearGradient id="path110_00000071533833542278396980000006786824307323594115_" gradientUnits="userSpaceOnUse" x1="-138.3936" y1="-565.3624" x2="-137.3936" y2="-565.3624" gradientTransform="matrix(2.3621 0 0 1.9028 342.4067 1120.3262)">
						<stop  offset="0" style="stop-color:#FDE093"/>
						<stop  offset="0.4607" style="stop-color:#FCD205"/>
						<stop  offset="1" style="stop-color:#E18F16"/>
					</linearGradient>
					<path id="path110" style="fill:url(#path110_00000071533833542278396980000006786824307323594115_);" d="M15.5,44
						c0,0,0.7-0.7,2.1-0.4c0,0.1,0,0.2,0,0.2c0,0.6,0.1,1.1,0.3,1.6C17.2,44.9,16.4,44.3,15.5,44z"/>
					<path id="path112" class="st11" d="M15.3,43.4c0.2-1.3,0.5-2.5,1-3.5c0.1-0.1,0.2-0.2,0.3-0.2c1.3,0.2,1.9,0.8,2.2,1.1
						c-0.6,0.7-0.9,1.6-1.1,2.5c-1.4-0.3-2.4,0.3-2.4,0.3C15.2,43.6,15.3,43.5,15.3,43.4C15.3,43.4,15.3,43.4,15.3,43.4L15.3,43.4z"
						/>
					<path id="path114" class="st11" d="M19,36.3c0.9,0.7,1.4,2.6,1.5,3c-0.6,0.3-1.2,0.7-1.7,1.2c-0.8-0.9-1.8-1.1-2.4-1.2
						c0.6-1.2,1.5-2.2,2.2-3C18.9,36.3,19,36.3,19,36.3L19,36.3z"/>
					
						<linearGradient id="path124_00000041992918695160723440000017888147357912758658_" gradientUnits="userSpaceOnUse" x1="-196.0969" y1="-480.1526" x2="-195.0969" y2="-480.1526" gradientTransform="matrix(5.4666 0 0 3.38 1085.5984 1669.0115)">
						<stop  offset="0" style="stop-color:#FDE093"/>
						<stop  offset="0.4607" style="stop-color:#FCD205"/>
						<stop  offset="1" style="stop-color:#E18F16"/>
					</linearGradient>
					<path id="path124" style="fill:url(#path124_00000041992918695160723440000017888147357912758658_);" d="M18.7,47
						c0.1,0.2,0.2,0.4,0.4,0.6c-0.3,0.1-0.5,0.1-0.7,0.2c-0.1,0-0.1,0-0.2,0c-1.1-0.9-2.7-2.3-4.6-2.7c0-0.1,0.8-1.1,2.3-0.5
						c1,0.4,1.8,1.2,2.5,2.1C18.5,46.7,18.6,46.9,18.7,47z"/>
					<path id="path126" class="st11" d="M26,36.3c0.1,0,0.2-0.1,0.3,0c0.8,0.8,1.6,1.8,2.2,3c-0.6,0.1-1.6,0.3-2.4,1.2
						c-0.5-0.5-1-0.9-1.6-1.2C24.6,38.9,25.1,37.1,26,36.3L26,36.3z"/>
					<path id="path128" class="st11" d="M23,39v-0.4c0-1,0-4,0.2-4.5c0,0,1.3,0.5,2.7,1.8c-0.4,0.3-1.1,1.1-1.7,3.3
						C23.7,39.1,23.4,39,23,39z"/>
					<path id="path130" class="st11" d="M28.8,39.9c0.5,1,0.8,2.2,1,3.5c0,0,0,0.1,0,0.1c0,0.1,0,0.1,0,0.2c0,0-1-0.6-2.4-0.3
						c-0.1-0.9-0.5-1.8-1-2.5c0.2-0.3,0.9-0.9,2.2-1.1C28.6,39.7,28.7,39.8,28.8,39.9L28.8,39.9z"/>
					<path id="path132" class="st11" d="M21.9,34.1L21.9,34.1c0.1,0.5,0.2,3.4,0.2,4.5V39c-0.4,0-0.8,0.1-1.1,0.2
						c-0.6-2.2-1.4-3-1.7-3.3C20.6,34.7,21.9,34.1,21.9,34.1L21.9,34.1L21.9,34.1z"/>
					
						<linearGradient id="path142_00000179628564615578130470000017612277656369691577_" gradientUnits="userSpaceOnUse" x1="-219.2929" y1="-445.5222" x2="-218.2929" y2="-445.5222" gradientTransform="matrix(11.5902 0 0 4.938 2544.6345 2251.8542)">
						<stop  offset="0" style="stop-color:#FDE093"/>
						<stop  offset="0.4607" style="stop-color:#FCD205"/>
						<stop  offset="1" style="stop-color:#E18F16"/>
					</linearGradient>
					<path id="path142" style="fill:url(#path142_00000179628564615578130470000017612277656369691577_);" d="M14.6,49.5
						c-0.1,0.1-0.3,0.2-0.4,0.2c-1.1,0.8-1.8,1.4-1.8,1.4C7.9,52.3,3,54.4,3,54.4s0-4.1,3.7-4.7C9.3,49.4,12.6,49.4,14.6,49.5z"/>
					
						<linearGradient id="path152_00000016076766951259378990000004773539349189185668_" gradientUnits="userSpaceOnUse" x1="-227.7765" y1="-398.3364" x2="-226.6779" y2="-398.7315" gradientTransform="matrix(19.6746 0 0 13.1985 4482.3711 5314.0283)">
						<stop  offset="0" style="stop-color:#FDE093"/>
						<stop  offset="0.4607" style="stop-color:#FCD205"/>
						<stop  offset="1" style="stop-color:#E18F16"/>
					</linearGradient>
					<path id="path152" style="fill:url(#path152_00000016076766951259378990000004773539349189185668_);" d="M12.5,51.4
						c0,0,3-3,6.8-3.6c0.3,0.4,0.8,1.2,0.8,1.2c-3.3,0.3-5.3,2.2-6.6,3.5c-0.8,0.8-1.4,1.1-1.6,1.2C7.6,56.5,2.9,59.5,0.5,61l0,0
						c0,0-0.6-4.7,2.4-6.2c0,0,0.3-0.1,0.3-0.1C6.1,53.5,8.7,52.5,12.5,51.4L12.5,51.4z"/>
					
						<linearGradient id="path162_00000165948308899054672000000016317650551913181832_" gradientUnits="userSpaceOnUse" x1="-214.2458" y1="-531.5424" x2="-213.2458" y2="-531.5424" gradientTransform="matrix(9.3189 0 0 2.3022 2003.6273 1271.7595)">
						<stop  offset="0" style="stop-color:#FDE093"/>
						<stop  offset="0.4607" style="stop-color:#FCD205"/>
						<stop  offset="1" style="stop-color:#E18F16"/>
					</linearGradient>
					<path id="path162" style="fill:url(#path162_00000165948308899054672000000016317650551913181832_);" d="M15,49.2
						c-1.9-0.1-4.5-0.1-7.9,0l0,0c0,0,0.8-2.6,3.7-2.3c1.8,0.2,4.2,0.9,5.6,1.5C16,48.6,15.5,48.9,15,49.2L15,49.2z"/>
					
						<linearGradient id="path172_00000181800367166591160410000004674414238896625335_" gradientUnits="userSpaceOnUse" x1="-206.0161" y1="-494.3948" x2="-205.0161" y2="-494.3948" gradientTransform="matrix(7.0622 0 0 2.9918 1465.7084 1525.9319)">
						<stop  offset="0" style="stop-color:#FDE093"/>
						<stop  offset="0.4607" style="stop-color:#FCD205"/>
						<stop  offset="1" style="stop-color:#E18F16"/>
					</linearGradient>
					<path id="path172" style="fill:url(#path172_00000181800367166591160410000004674414238896625335_);" d="M17.8,47.9
						c-0.3,0.1-0.7,0.2-1.1,0.4c-2-0.9-4.6-1.5-5.9-1.7c0,0,0.5-1.3,2.2-1.3C14.5,45.4,16.4,46.6,17.8,47.9L17.8,47.9z"/>
					
						<linearGradient id="path182_00000075867018441008455960000014969023340642523305_" gradientUnits="userSpaceOnUse" x1="-137.4917" y1="-565.3624" x2="-138.4917" y2="-565.3624" gradientTransform="matrix(2.3643 0 0 1.9028 354.6052 1120.3262)">
						<stop  offset="0" style="stop-color:#FDE093"/>
						<stop  offset="0.4607" style="stop-color:#FCD205"/>
						<stop  offset="1" style="stop-color:#E18F16"/>
					</linearGradient>
					<path id="path182" style="fill:url(#path182_00000075867018441008455960000014969023340642523305_);" d="M29.5,44
						c0,0-0.7-0.7-2.1-0.4c0,0.1,0,0.2,0,0.2c0,0.6-0.1,1.1-0.3,1.6C27.8,44.9,28.6,44.3,29.5,44L29.5,44z"/>
					
						<linearGradient id="path192_00000035500437272051192880000008849647996244760500_" gradientUnits="userSpaceOnUse" x1="-195.067" y1="-480.1526" x2="-196.067" y2="-480.1526" gradientTransform="matrix(5.4629 0 0 3.38 1097.0472 1669.0115)">
						<stop  offset="0" style="stop-color:#FDE093"/>
						<stop  offset="0.4607" style="stop-color:#FCD205"/>
						<stop  offset="1" style="stop-color:#E18F16"/>
					</linearGradient>
					<path id="path192" style="fill:url(#path192_00000035500437272051192880000008849647996244760500_);" d="M26.3,47
						c-0.1,0.2-0.2,0.4-0.4,0.6c0.3,0.1,0.5,0.1,0.7,0.2c0.1,0,0.1,0,0.2,0c1.1-0.9,2.7-2.3,4.6-2.7c0-0.1-0.8-1.1-2.3-0.5
						c-1,0.4-1.8,1.2-2.5,2.1C26.5,46.7,26.4,46.9,26.3,47L26.3,47z"/>
					
						<linearGradient id="path202_00000067205558042619937980000015844840908839991475_" gradientUnits="userSpaceOnUse" x1="-218.2863" y1="-445.5222" x2="-219.2863" y2="-445.5222" gradientTransform="matrix(11.5865 0 0 4.938 2571.2478 2251.8542)">
						<stop  offset="0" style="stop-color:#FDE093"/>
						<stop  offset="0.4607" style="stop-color:#FCD205"/>
						<stop  offset="1" style="stop-color:#E18F16"/>
					</linearGradient>
					<path id="path202" style="fill:url(#path202_00000067205558042619937980000015844840908839991475_);" d="M30.5,49.5
						c0.1,0.1,0.2,0.2,0.4,0.2c1.1,0.8,1.8,1.4,1.8,1.4c4.5,1.2,9.4,3.2,9.4,3.2s0-4.1-3.7-4.7C35.7,49.4,32.5,49.4,30.5,49.5z"/>
					
						<linearGradient id="path212_00000140706769262271648240000017165799405624778133_" gradientUnits="userSpaceOnUse" x1="-226.8252" y1="-398.3363" x2="-227.9239" y2="-398.7316" gradientTransform="matrix(19.6725 0 0 13.1985 4506.2925 5314.0283)">
						<stop  offset="0" style="stop-color:#FDE093"/>
						<stop  offset="0.4607" style="stop-color:#FCD205"/>
						<stop  offset="1" style="stop-color:#E18F16"/>
					</linearGradient>
					<path id="path212" style="fill:url(#path212_00000140706769262271648240000017165799405624778133_);" d="M32.5,51.4
						c0,0-3-3-6.8-3.6c-0.3,0.4-0.8,1.2-0.8,1.2c3.3,0.3,5.3,2.2,6.6,3.5c0.8,0.8,1.4,1.1,1.6,1.2c4.4,2.8,9.1,5.8,11.4,7.3l0,0
						c0,0,0.6-4.7-2.4-6.2c0,0-0.3-0.1-0.3-0.1C38.9,53.5,36.3,52.5,32.5,51.4L32.5,51.4z"/>
					
						<linearGradient id="path222_00000091736847818309759210000012622478826635155640_" gradientUnits="userSpaceOnUse" x1="-213.2497" y1="-531.5424" x2="-214.2497" y2="-531.5424" gradientTransform="matrix(9.3203 0 0 2.3022 2025.4918 1271.7595)">
						<stop  offset="0" style="stop-color:#FDE093"/>
						<stop  offset="0.4607" style="stop-color:#FCD205"/>
						<stop  offset="1" style="stop-color:#E18F16"/>
					</linearGradient>
					<path id="path222" style="fill:url(#path222_00000091736847818309759210000012622478826635155640_);" d="M30.1,49.2
						c1.9-0.1,4.5-0.1,7.9,0l0,0c0,0-0.8-2.6-3.7-2.3c-1.8,0.2-4.2,0.9-5.6,1.5C29.1,48.6,29.6,48.9,30.1,49.2L30.1,49.2z"/>
					
						<linearGradient id="path232_00000165216595144932106470000001950917220040892050_" gradientUnits="userSpaceOnUse" x1="-205.0168" y1="-494.3948" x2="-206.0168" y2="-494.3948" gradientTransform="matrix(7.0623 0 0 2.9918 1482.1488 1525.9319)">
						<stop  offset="0" style="stop-color:#FDE093"/>
						<stop  offset="0.4607" style="stop-color:#FCD205"/>
						<stop  offset="1" style="stop-color:#E18F16"/>
					</linearGradient>
					<path id="path232" style="fill:url(#path232_00000165216595144932106470000001950917220040892050_);" d="M27.2,47.9
						c0.3,0.1,0.8,0.2,1.1,0.4c2-0.9,4.6-1.5,5.9-1.7c0,0-0.5-1.3-2.2-1.3C30.5,45.4,28.7,46.6,27.2,47.9L27.2,47.9z"/>
					
						<linearGradient id="path242_00000086667120962369436480000004397195376054720148_" gradientUnits="userSpaceOnUse" x1="-213.1424" y1="-410.6076" x2="-213.1424" y2="-411.6279" gradientTransform="matrix(9.1055 0 0 9.107 1963.2876 3788.021)">
						<stop  offset="0" style="stop-color:#FDE093"/>
						<stop  offset="0.4607" style="stop-color:#FCD205"/>
						<stop  offset="1" style="stop-color:#E18F16"/>
					</linearGradient>
					<path id="path242" style="fill:url(#path242_00000086667120962369436480000004397195376054720148_);" d="M27.1,43.9
						c0-2.5-2-4.5-4.6-4.5c-2.5,0-4.6,2-4.6,4.5c0,2.5,2,4.6,4.6,4.6C25,48.4,27.1,46.4,27.1,43.9z"/>
					<path id="path244" class="st1" d="M22.6,47.3c-0.2,0-0.4,0.2-0.4,0.4c0,0.2,0.2,0.4,0.4,0.4c0.2,0,0.4-0.2,0.4-0.4
						C23.1,47.5,22.9,47.3,22.6,47.3z"/>
					<path id="path246" class="st1" d="M25.3,46.2c-0.2,0-0.4,0.2-0.4,0.4c0,0.2,0.2,0.4,0.4,0.4c0.2,0,0.4-0.2,0.4-0.4
						C25.7,46.4,25.5,46.2,25.3,46.2z"/>
					<path id="path248" class="st1" d="M26.4,43.6c-0.2,0-0.4,0.2-0.4,0.4c0,0.2,0.2,0.4,0.4,0.4c0.2,0,0.4-0.2,0.4-0.4
						C26.8,43.8,26.6,43.6,26.4,43.6z"/>
					<path id="path250" class="st1" d="M25.3,40.9c-0.2,0-0.4,0.2-0.4,0.4c0,0.2,0.2,0.4,0.4,0.4c0.2,0,0.4-0.2,0.4-0.4
						C25.7,41.1,25.5,40.9,25.3,40.9z"/>
					<path id="path252" class="st1" d="M22.6,39.8c-0.2,0-0.4,0.2-0.4,0.4c0,0.2,0.2,0.4,0.4,0.4c0.2,0,0.4-0.2,0.4-0.4
						C23.1,40,22.9,39.8,22.6,39.8z"/>
					<path id="path254" class="st1" d="M20,40.9c-0.2,0-0.4,0.2-0.4,0.4c0,0.2,0.2,0.4,0.4,0.4c0.2,0,0.4-0.2,0.4-0.4
						C20.4,41.1,20.2,40.9,20,40.9z"/>
					<path id="path256" class="st1" d="M18.9,43.6c-0.2,0-0.4,0.2-0.4,0.4c0,0.2,0.2,0.4,0.4,0.4c0.2,0,0.4-0.2,0.4-0.4
						C19.3,43.8,19.1,43.6,18.9,43.6z"/>
					<path id="path258" class="st1" d="M20,46.2c-0.2,0-0.4,0.2-0.4,0.4c0,0.2,0.2,0.4,0.4,0.4c0.2,0,0.4-0.2,0.4-0.4
						C20.4,46.4,20.2,46.2,20,46.2z"/>
					
						<radialGradient id="path268_00000036223762147102617180000017938156335056877185_" cx="-199.7177" cy="-431.8193" r="0.6975" gradientTransform="matrix(6.0368 0 0 6.0368 1228.3374 2650.8677)" gradientUnits="userSpaceOnUse">
						<stop  offset="0" style="stop-color:#3871C1"/>
						<stop  offset="0.573" style="stop-color:#2744A0"/>
						<stop  offset="1" style="stop-color:#2744A0"/>
					</radialGradient>
					<path id="path268" style="fill:url(#path268_00000036223762147102617180000017938156335056877185_);" d="M25.5,43.8
						c0-1.7-1.4-3-3.1-3c-1.7,0-3,1.4-3,3.1c0,1.7,1.4,3,3.1,3C24.2,46.9,25.6,45.5,25.5,43.8L25.5,43.8z"/>
					
						<linearGradient id="path278_00000114064797965193063690000006171074532496959158_" gradientUnits="userSpaceOnUse" x1="-192.2151" y1="-451.5446" x2="-191.6327" y2="-451.6871" gradientTransform="matrix(5.0676 0 0 4.5693 996.0411 2106.8552)">
						<stop  offset="0" style="stop-color:#FDE093"/>
						<stop  offset="0.4607" style="stop-color:#FCD205"/>
						<stop  offset="1" style="stop-color:#E18F16"/>
					</linearGradient>
					<path id="path278" style="fill:url(#path278_00000114064797965193063690000006171074532496959158_);" d="M24.9,43.5
						c0,1.4-0.9,2.2-1.7,2.2c-0.7,0-1.2-0.5-1.2-1c0-0.5,0.5-0.8,0.5-0.8s0.5,0.3,0.9,0c0.4-0.3,0.6-0.9,0.2-1.5
						c-0.4-0.6-1.5-1-2.7-0.3c-0.7,0.4-1.1,1.2-1.2,1.9c0-1.8,1.3-2.9,2.7-2.9c0.5,0,0.9,0.1,1.2,0.3C24.4,41.9,24.9,42.6,24.9,43.5
						L24.9,43.5z"/>
					
						<radialGradient id="path288_00000044862814231771355210000017828337760916198589_" cx="-180.9871" cy="-460.4872" r="1.3994" gradientTransform="matrix(4.1227 0 0 4.1227 769.2223 1942.0605)" gradientUnits="userSpaceOnUse">
						<stop  offset="0" style="stop-color:#3871C1"/>
						<stop  offset="0.573" style="stop-color:#2744A0"/>
						<stop  offset="1" style="stop-color:#2744A0"/>
					</radialGradient>
					<path id="path288" style="fill:url(#path288_00000044862814231771355210000017828337760916198589_);" d="M21,42
						c1.2-0.7,2.3-0.3,2.7,0.4c0.3,0.6,0.2,1.2-0.3,1.5c-0.5,0.3-0.9,0-0.9,0s0-0.6-0.5-0.8c-0.5-0.3-1.1-0.1-1.4,0.5
						c-0.4,0.7-0.2,1.8,1.1,2.5c0.7,0.4,1.6,0.4,2.2,0.1c-1.6,0.9-3.1,0.2-3.8-0.9c-0.2-0.4-0.3-0.8-0.3-1.2
						C19.8,43.2,20.2,42.5,21,42L21,42z"/>
					
						<radialGradient id="path296_00000018230428896627733970000005219970118345619841_" cx="-190.0185" cy="-446.9705" r="0.7596" gradientTransform="matrix(4.8456 0 0 4.8456 943.3729 2209.7673)" gradientUnits="userSpaceOnUse">
						<stop  offset="0" style="stop-color:#ED1639"/>
						<stop  offset="1" style="stop-color:#8F1E23"/>
					</radialGradient>
					<path id="path296" style="fill:url(#path296_00000018230428896627733970000005219970118345619841_);" d="M21.6,46.1
						c-1.2-0.7-1.4-1.9-1-2.5c0.3-0.6,1-0.8,1.5-0.5c0.5,0.3,0.4,0.8,0.4,0.8S22,44.2,22,44.7c0,0.5,0.5,1,1.2,1
						c0.8,0,1.7-0.8,1.6-2.2c0-0.8-0.4-1.5-1.1-2c1.6,0.9,1.8,2.6,1.1,3.8c-0.2,0.4-0.5,0.7-0.9,0.9C23.3,46.6,22.4,46.6,21.6,46.1
						L21.6,46.1z"/>
					<path id="path298" class="st29" d="M27.4,43.7c1.4-0.5,2.1,0.6,2.1,0.6c-0.1,0-0.2,0.1-0.3,0.1c-0.3-0.3-0.9-0.7-1.8-0.3V44
						C27.4,43.9,27.4,43.8,27.4,43.7L27.4,43.7z"/>
					<path id="path300" class="st29" d="M42.1,54.8c1.1,0.6,1.8,1.6,2.1,2.6l0,0c-0.4-0.7-1-1.5-1.8-2c0,0-2.1-1.4-9.9-3.7
						c0,0-3.6-3.4-7-3.7c0.1-0.1,0.1-0.2,0.2-0.3c3.8,0.6,6.8,3.6,6.8,3.6c3.8,1.1,6.4,2.1,9.2,3.3C41.8,54.7,42.1,54.8,42.1,54.8
						L42.1,54.8z"/>
					<path id="path302" class="st29" d="M38.4,49.9c-2.5-0.2-5.4-0.2-7.4-0.1c0,0-0.1,0-0.1-0.1c-0.1-0.1-0.3-0.2-0.4-0.2
						c2-0.1,5.3,0,7.9,0.2c1.5,0.3,2.4,1.1,2.9,2v0c0,0,0,0,0,0C40.8,50.9,39.7,50.2,38.4,49.9L38.4,49.9z"/>
					<path id="path304" class="st29" d="M34.4,47.3c-1.6,0.2-4,0.9-5.4,1.3c-0.1-0.1-0.2-0.1-0.3-0.2c1.4-0.6,3.9-1.2,5.6-1.5
						c1.6-0.2,2.6,0.6,3.1,1.3C36.8,47.7,35.9,47.1,34.4,47.3L34.4,47.3z"/>
					<path id="path306" class="st29" d="M32.2,45.6c-1.9,0.2-3.9,1.7-4.7,2.4c-0.1,0-0.2-0.1-0.3-0.1c1.5-1.3,3.3-2.5,4.9-2.6
						c1.1,0,1.6,0.5,1.9,0.9c0,0,0,0,0,0c0,0,0,0,0,0C33.7,45.9,33.1,45.5,32.2,45.6L32.2,45.6z"/>
					<path id="path308" class="st29" d="M29.4,44.7c-1.2,0.5-2.4,1.7-3.2,2.9c-0.1,0-0.2,0-0.3-0.1c0.1-0.2,0.3-0.5,0.4-0.7
						c0,0,0.1-0.1,0.1-0.1c0.7-0.9,1.6-1.8,2.7-2.2c0.9-0.3,1.6-0.1,1.9,0.2c0,0,0,0,0,0C30.7,44.6,30.1,44.5,29.4,44.7L29.4,44.7z"
						/>
					<path id="path310" class="st30" d="M31.6,52.2c0.8,0.8,1.4,1.1,1.6,1.2c4.8,3.2,7.6,4.7,11.3,7.2c0,0.2,0,0.4,0,0.4l0,0
						c-2.7-1.8-4.3-2.8-6.2-4c-1.7-1.1-3.5-2.2-5.3-3.4c-0.2-0.1-0.8-0.4-1.6-1.2c-1.3-1.3-3.4-3.2-6.6-3.5c0,0,0.1-0.1,0.2-0.2l0,0
						C26.1,48.8,28.8,49.3,31.6,52.2L31.6,52.2z"/>
					<path id="path312" class="st30" d="M32.7,51.1c0,0-0.1-0.1-0.4-0.3c3.3,0.9,5.4,1.5,9.8,3.2c0,0.2,0,0.3,0,0.3
						S37.2,52.3,32.7,51.1L32.7,51.1z"/>
					<path id="path314" class="st30" d="M37.9,49.8c-3.4-0.4-5.9-0.4-7.9,0c-0.1-0.1-0.2-0.3-0.2-0.4c2.1-0.4,5.3-0.6,8-0.2
						C37.9,49.5,37.9,49.7,37.9,49.8L37.9,49.8L37.9,49.8z"/>
					<path id="path316" class="st30" d="M28.3,48.3c-0.1,0-0.2-0.1-0.2-0.1c2-1,4.7-1.6,6.1-1.8c0.1,0.1,0.1,0.2,0.1,0.2
						C33,46.8,30.4,47.4,28.3,48.3L28.3,48.3z"/>
					<path id="path318" class="st30" d="M31.4,45.1c-1.9,0.4-3.5,1.8-4.6,2.7c0,0-0.1,0-0.2,0c0,0,0,0,0,0c1.9-1.8,3.4-2.5,4.6-2.8
						C31.4,45,31.4,45.1,31.4,45.1L31.4,45.1z"/>
					<path id="path320" class="st29" d="M17.6,43.7c-1.4-0.5-2.1,0.6-2.1,0.6c0.1,0,0.2,0.1,0.3,0.1c0.3-0.3,0.9-0.7,1.8-0.3V44
						C17.6,43.9,17.6,43.8,17.6,43.7L17.6,43.7z"/>
					<path id="path322" class="st29" d="M3,54.8c-1.1,0.6-1.8,1.6-2.1,2.6l0,0c0.4-0.7,1-1.5,1.8-2c0,0,2.1-1.4,9.8-3.7
						c0,0,3.6-3.4,7-3.7c-0.1-0.1-0.1-0.2-0.2-0.3c-3.8,0.6-6.8,3.6-6.8,3.6c-3.8,1.1-6.4,2.1-9.2,3.3C3.3,54.7,3,54.8,3,54.8
						L3,54.8z"/>
					<path id="path324" class="st29" d="M6.7,49.9c2.5-0.2,5.4-0.2,7.4-0.1c0,0,0.1,0,0.1-0.1c0.1-0.1,0.3-0.2,0.4-0.2
						c-2-0.1-5.3,0-7.9,0.2c-1.5,0.3-2.4,1.1-2.9,2v0c0,0,0,0,0,0C4.3,50.9,5.3,50.2,6.7,49.9L6.7,49.9z"/>
					<path id="path326" class="st29" d="M10.6,47.3c1.6,0.2,4,0.9,5.4,1.3c0.1-0.1,0.2-0.1,0.3-0.2c-1.4-0.6-3.9-1.2-5.6-1.5
						c-1.6-0.2-2.6,0.6-3.1,1.3C8.2,47.7,9.1,47.1,10.6,47.3z"/>
					<path id="path328" class="st29" d="M12.9,45.6c1.9,0.2,3.9,1.7,4.7,2.4c0.1,0,0.2-0.1,0.3-0.1c-1.5-1.3-3.3-2.5-4.9-2.6
						c-1.1,0-1.6,0.5-1.9,0.9c0,0,0,0,0,0c0,0,0,0,0,0C11.3,45.9,11.9,45.5,12.9,45.6L12.9,45.6z"/>
					<path id="path330" class="st29" d="M15.6,44.7c1.2,0.5,2.4,1.7,3.2,2.9c0.1,0,0.2,0,0.3-0.1c-0.1-0.2-0.3-0.5-0.4-0.7
						c0,0-0.1-0.1-0.1-0.1c-0.7-0.9-1.6-1.8-2.7-2.2c-0.9-0.3-1.6-0.1-1.9,0.2c0,0,0,0,0,0C14.3,44.6,14.9,44.5,15.6,44.7L15.6,44.7
						z"/>
					<path id="path332" class="st30" d="M13.4,52.2c-0.8,0.8-1.4,1.1-1.6,1.2c-4.8,3.2-7.6,4.7-11.3,7.2c0,0.2,0,0.4,0,0.4l0,0
						c2.7-1.8,4.4-2.8,6.2-4c1.7-1.1,3.5-2.2,5.3-3.4c0.2-0.1,0.8-0.4,1.6-1.2c1.4-1.3,3.4-3.2,6.6-3.5c0,0-0.1-0.1-0.2-0.2l0,0
						C18.9,48.8,16.2,49.3,13.4,52.2L13.4,52.2z"/>
					<path id="path334" class="st30" d="M12.4,51.1c0,0,0.1-0.1,0.4-0.3C9.4,51.7,7.4,52.3,3,54c0,0.2,0,0.3,0,0.3
						S7.9,52.3,12.4,51.1L12.4,51.1z"/>
					<path id="path336" class="st30" d="M7.1,49.8c3.4-0.4,5.9-0.4,7.9,0c0.1-0.1,0.1-0.3,0.2-0.4c-2.1-0.4-5.3-0.6-8-0.2
						C7.1,49.5,7.1,49.7,7.1,49.8L7.1,49.8L7.1,49.8z"/>
					<path id="path338" class="st30" d="M16.7,48.3c0.1,0,0.2-0.1,0.2-0.1c-2-1-4.7-1.6-6.1-1.8c-0.1,0.1-0.1,0.2-0.1,0.2
						C12.1,46.8,14.7,47.4,16.7,48.3L16.7,48.3z"/>
					<path id="path340" class="st30" d="M13.6,45.1c1.9,0.4,3.5,1.8,4.6,2.7c0,0,0.1,0,0.2,0c0,0,0,0,0,0c-1.9-1.8-3.4-2.5-4.6-2.8
						C13.7,45,13.6,45.1,13.6,45.1L13.6,45.1z"/>
					<path id="path342" class="st30" d="M28.4,39.1c0,0.1,0.1,0.2,0.1,0.3c-0.6,0.1-1.6,0.3-2.4,1.2c-0.1-0.1-0.1-0.1-0.2-0.2
						C26.8,39.4,27.7,39.2,28.4,39.1L28.4,39.1z"/>
					<path id="path344" class="st29" d="M26.2,36.7c-0.8,0.8-1.3,2.2-1.5,2.8c-0.1,0-0.2-0.1-0.2-0.1c0.1-0.5,0.6-2.3,1.5-3
						c0.1,0,0.2-0.1,0.3,0c0.1,0.1,0.2,0.2,0.2,0.2C26.4,36.6,26.3,36.6,26.2,36.7L26.2,36.7z"/>
					<path id="path346" class="st30" d="M27.4,43.1c1.3-0.4,2.2,0.2,2.4,0.3c0,0,0,0,0,0c0,0,0,0.1,0,0.1c0,0.1,0,0.2,0,0.3
						c0,0-0.5-0.4-1.4-0.5c0,0-0.1,0-0.1,0c0,0-0.1,0-0.1,0h-0.2c0,0,0,0,0,0c-0.2,0-0.4,0-0.7,0.1C27.4,43.3,27.4,43.2,27.4,43.1
						L27.4,43.1z"/>
					<path id="path348" class="st29" d="M28.6,40c-0.9,0.1-1.6,0.5-2.1,1c-0.1-0.1-0.1-0.1-0.2-0.2c0.2-0.3,0.9-0.9,2.2-1.1
						c0.1,0,0.2,0,0.3,0.2c0,0.1,0.1,0.1,0.1,0.2C28.8,40,28.7,40,28.6,40z"/>
					<path id="path350" class="st30" d="M25.8,35.9c-0.4,0.3-1.1,1.1-1.7,3.3c-0.1,0-0.2-0.1-0.3-0.1C24.7,36,25.8,35.9,25.8,35.9z"
						/>
					<path id="path352" class="st29" d="M23.4,35c-0.1,0.9-0.2,3.1-0.2,4c-0.1,0-0.2,0-0.3,0c0-0.3,0-3.8,0.2-4.7v0c0,0,0,0,0-0.1
						c0,0,0,0,0,0c0,0,0,0,0-0.1c0,0,1.2,0.5,2.5,1.7c-0.8-0.6-1.6-0.9-2-1.1C23.6,34.8,23.4,34.7,23.4,35L23.4,35z"/>
					<path id="path354" class="st30" d="M16.6,39.1c0,0.1-0.1,0.2-0.1,0.3c0.6,0.1,1.6,0.3,2.4,1.2c0.1-0.1,0.1-0.1,0.2-0.2
						C18.2,39.4,17.4,39.2,16.6,39.1L16.6,39.1z"/>
					<path id="path356" class="st29" d="M18.9,36.7c0.8,0.8,1.3,2.2,1.5,2.8c0.1,0,0.2-0.1,0.2-0.1c-0.1-0.5-0.6-2.3-1.5-3
						c-0.1,0-0.2-0.1-0.3,0c-0.1,0.1-0.1,0.2-0.2,0.2C18.6,36.6,18.7,36.6,18.9,36.7L18.9,36.7z"/>
					<path id="path358" class="st30" d="M17.7,43.1c-1.3-0.4-2.2,0.2-2.4,0.3c0,0,0,0,0,0c0,0,0,0.1,0,0.1c0,0.1,0,0.2,0,0.3
						c0,0,0.5-0.4,1.4-0.5c0,0,0.1,0,0.1,0c0,0,0.1,0,0.1,0H17c0,0,0,0,0,0c0.2,0,0.4,0,0.7,0.1C17.7,43.3,17.7,43.2,17.7,43.1
						L17.7,43.1z"/>
					<path id="path360" class="st29" d="M16.4,40c0.9,0.1,1.6,0.5,2.1,1c0.1-0.1,0.1-0.1,0.2-0.2c-0.2-0.3-0.9-0.9-2.2-1.1
						c-0.1,0-0.2,0-0.3,0.2c0,0.1-0.1,0.1-0.1,0.2C16.2,40,16.3,40,16.4,40z"/>
					<path id="path362" class="st30" d="M19.2,35.9c0.4,0.3,1.1,1.1,1.7,3.3c0.1,0,0.2-0.1,0.3-0.1C20.4,36,19.2,35.9,19.2,35.9z"/>
					<path id="path364" class="st29" d="M21.6,35c0.1,0.9,0.2,3.1,0.2,4c0.1,0,0.2,0,0.3,0c0-0.3,0-3.8-0.2-4.7c0,0,0,0,0,0
						c0,0,0,0,0-0.1c0,0,0,0,0,0c0,0,0,0,0-0.1c0,0-1.2,0.5-2.6,1.7c0.8-0.6,1.6-0.9,2-1.1C21.4,34.8,21.6,34.7,21.6,35L21.6,35z"/>
					<path id="path366" class="st1" d="M20.9,49.6c0.4,0.8,0.5,1.2,0.4,2c-0.1,0-1.2,0.5-1.1,0c-0.2,0.1-0.4,0.7,0.1,0.9
						c0.1,0.1,0.4,0.1,0.7,0l0.5-0.2c0.2,0.3,0.7,0.3,0.9,0.3v0c-0.8,0.3-1.3,0.1-1.4,0.1c0.2,0.7,0.8,0.7,1.4,0.6
						c0.4-0.1,0.7-0.2,1-0.3c0.2,0,0.6,0,0.8,0.1c0.1-0.4-0.1-0.8-0.5-0.8c0,0-0.1-2,0.4-3c0.4-0.7,0.7-1.1,0.9-1.4
						c-0.8,0.5-1.7,0.8-2.7,0.8c-1,0-1.9-0.3-2.6-0.8C20.2,48.4,20.8,49.3,20.9,49.6L20.9,49.6z M45,61.3c0,0.6-0.4,0.3-0.4,0.3
						c-4.3-2.9-10.2-6.6-11.9-7.7c-0.9-0.6-1.6-1.3-1.9-1.6c-3-3-6-2.9-6.1-2.9c-0.6,0.8-0.5,2.7-0.5,2.7c1,0.4,0.3,1.7,0.3,1.7
						c-0.5-0.5-1.2-0.3-1.2-0.3c-0.3,0.1-0.6,0.2-0.8,0.2c-1.6,0.2-1.8-0.9-1.8-0.9c-0.4,0.1-0.9,0-1-0.5c-0.2-0.8,0.6-1.1,0.6-1.1
						c0,0.5,0.7,0.1,0.7,0.1c0.1-0.9-0.4-1.7-0.7-2c-0.2,0-3.1-0.1-6.1,2.9c-0.3,0.3-1,1.1-1.9,1.6c-1.7,1.1-7.7,4.8-12,7.7
						c0,0-0.4,0.3-0.4-0.3c-0.2-2.6,0.2-5.4,2.5-6.8c0,0-0.3-4.4,4.1-5.3c0,0,0.9-2.8,3.8-2.7c0,0,0.5-1.2,1.8-1.5
						c0,0,0.5-0.1,1.1,0c0,0,0.3-0.8,1.5-1c0,0,0.1-7.3,7.8-10.8c7.7,3.4,7.8,10.8,7.8,10.8c1.2,0.2,1.5,1,1.5,1
						c0.5-0.1,1.1,0,1.1,0c1.4,0.4,1.8,1.5,1.8,1.5c2.9-0.1,3.8,2.7,3.8,2.7c4.4,0.9,4.1,5.3,4.1,5.3C44.8,56,45.2,58.7,45,61.3
						L45,61.3z M0.5,61L0.5,61c2.4-1.5,7-4.5,11.4-7.3c0.2-0.1,0.8-0.4,1.6-1.2c1.4-1.3,3.4-3.2,6.6-3.5c0,0-0.5-0.7-0.8-1.2
						c-3.8,0.6-6.8,3.6-6.8,3.6c-3.8,1.1-6.4,2.1-9.2,3.3c0,0-0.3,0.1-0.3,0.1C-0.1,56.3,0.5,61,0.5,61L0.5,61z M3,54.4
						c0,0,4.9-2,9.4-3.2c0,0,0.7-0.6,1.8-1.4c0.1-0.1,0.3-0.2,0.4-0.2c-2-0.1-5.3,0-7.9,0.2C3,50.3,3,54.4,3,54.4L3,54.4z M7.1,49.2
						L7.1,49.2c3.4-0.1,5.9-0.1,7.9,0c0.5-0.3,1-0.6,1.4-0.8c-1.4-0.6-3.9-1.2-5.6-1.5C7.9,46.6,7.1,49.2,7.1,49.2L7.1,49.2z
						 M13,45.3c-1.7,0-2.2,1.3-2.2,1.3c1.3,0.2,3.9,0.8,5.9,1.7c0.4-0.2,0.8-0.3,1.1-0.4C16.4,46.6,14.5,45.4,13,45.3L13,45.3z
						 M13.6,45.1c1.9,0.4,3.5,1.8,4.6,2.7c0,0,0.1,0,0.2,0c0.2-0.1,0.5-0.1,0.7-0.2c-0.1-0.2-0.2-0.4-0.4-0.6
						c-0.1-0.1-0.2-0.3-0.3-0.4c-0.7-0.9-1.6-1.7-2.5-2.1C14.4,44,13.7,45,13.6,45.1L13.6,45.1z M17.6,43.7
						c-1.4-0.3-2.1,0.4-2.1,0.4c0.9,0.3,1.7,0.8,2.4,1.4c-0.2-0.5-0.3-1-0.3-1.6C17.6,43.8,17.6,43.7,17.6,43.7L17.6,43.7z
						 M16.2,39.9c-0.5,1-0.8,2.2-1,3.5c0,0,0,0.1,0,0.1c0,0.1,0,0.1,0,0.2c0,0,1-0.6,2.4-0.3c0.1-0.9,0.5-1.8,1.1-2.5
						c-0.2-0.3-0.9-0.9-2.2-1.1C16.4,39.7,16.3,39.8,16.2,39.9L16.2,39.9z M19,36.3c-0.1,0-0.2-0.1-0.3,0c-0.8,0.8-1.6,1.8-2.2,3
						c0.6,0.1,1.6,0.3,2.4,1.2c0.5-0.5,1-0.9,1.7-1.2C20.4,38.9,19.9,37.1,19,36.3L19,36.3z M22.1,38.6c0-1,0-4-0.2-4.5l0,0l0,0
						c0,0-1.3,0.5-2.7,1.8c0.4,0.3,1.1,1.1,1.7,3.3c0.4-0.1,0.7-0.2,1.1-0.2V38.6L22.1,38.6z M22.5,39.3c-2.5,0-4.6,2-4.6,4.5
						c0,2.5,2,4.6,4.6,4.6c2.5,0,4.5-2,4.5-4.6C27.1,41.4,25,39.3,22.5,39.3L22.5,39.3z M23.2,34.1C23,34.7,23,37.6,23,38.6V39
						c0.4,0,0.8,0.1,1.1,0.2c0.6-2.2,1.4-3,1.7-3.3C24.4,34.7,23.2,34.1,23.2,34.1L23.2,34.1z M26.3,36.4c-0.1-0.1-0.2-0.1-0.3,0
						c-0.9,0.7-1.4,2.6-1.5,3c0.6,0.3,1.2,0.7,1.6,1.2c0.8-0.9,1.8-1.1,2.4-1.2C27.9,38.1,27.1,37.1,26.3,36.4L26.3,36.4z
						 M29.8,43.5C29.8,43.4,29.8,43.4,29.8,43.5c-0.2-1.4-0.5-2.6-1-3.6c-0.1-0.1-0.2-0.2-0.3-0.2c-1.3,0.2-2,0.8-2.2,1.1
						c0.6,0.7,0.9,1.6,1,2.5c1.4-0.3,2.4,0.3,2.4,0.3C29.8,43.6,29.8,43.5,29.8,43.5L29.8,43.5z M27.2,45.5c0.6-0.6,1.5-1.2,2.4-1.4
						c0,0-0.7-0.7-2.1-0.4c0,0.1,0,0.1,0,0.2C27.4,44.5,27.3,45,27.2,45.5L27.2,45.5z M29.1,44.6c-1,0.4-1.9,1.3-2.7,2.2
						c0,0-0.1,0.1-0.1,0.1c-0.2,0.2-0.3,0.5-0.4,0.7c0.3,0.1,0.5,0.1,0.7,0.2c0.1,0,0.1,0,0.2,0c1.1-0.9,2.7-2.3,4.6-2.7
						C31.4,45,30.6,44,29.1,44.6L29.1,44.6z M32.1,45.3c-1.6,0.1-3.4,1.3-4.9,2.6c0.3,0.1,0.8,0.2,1.1,0.4c2-0.9,4.6-1.5,5.9-1.7
						C34.2,46.6,33.8,45.3,32.1,45.3L32.1,45.3z M37.9,49.2c0,0-0.8-2.6-3.7-2.3c-1.8,0.2-4.2,0.9-5.6,1.5c0.4,0.2,0.9,0.5,1.4,0.8
						C32,49.1,34.6,49.1,37.9,49.2L37.9,49.2L37.9,49.2z M38.4,49.6c-2.6-0.2-5.9-0.3-7.9-0.2c0.1,0.1,0.2,0.2,0.4,0.2
						c1.1,0.8,1.8,1.4,1.8,1.4c4.5,1.2,9.4,3.2,9.4,3.2S42.1,50.3,38.4,49.6L38.4,49.6z M42.1,54.8c0,0-0.3-0.1-0.3-0.1
						c-2.8-1.2-5.5-2.2-9.2-3.3c0,0-3-3-6.8-3.6c-0.3,0.4-0.8,1.2-0.8,1.2c3.3,0.3,5.3,2.2,6.6,3.5c0.8,0.8,1.4,1.1,1.6,1.2
						c4.4,2.8,9.1,5.8,11.4,7.3l0,0C44.5,61,45.1,56.3,42.1,54.8L42.1,54.8z"/>
					
						<linearGradient id="path376_00000021802639862327367120000000869388141365142690_" gradientUnits="userSpaceOnUse" x1="-194.0979" y1="-438.5452" x2="-194.0979" y2="-439.4962" gradientTransform="matrix(5.2861 0 0 5.409 1048.546 2425.1494)">
						<stop  offset="0" style="stop-color:#FDE093"/>
						<stop  offset="0.4607" style="stop-color:#FCD205"/>
						<stop  offset="1" style="stop-color:#E18F16"/>
					</linearGradient>
					<path id="path376" style="fill:url(#path376_00000021802639862327367120000000869388141365142690_);" d="M22.5,48.8
						c1,0,1.9-0.3,2.7-0.8c-0.2,0.3-0.6,0.8-0.9,1.4c-0.6,1-0.4,3-0.4,3c0.4,0,0.6,0.4,0.5,0.8c-0.1-0.1-0.6-0.2-0.8-0.1
						c-0.2,0-0.6,0.2-1,0.3c-0.6,0.1-1.2,0.1-1.4-0.6c0.1,0,0.6,0.2,1.4-0.1v0c-0.2,0-0.7-0.1-0.9-0.3l-0.5,0.2
						c-0.3,0.1-0.6,0.1-0.7,0c-0.5-0.2-0.3-0.7-0.1-0.9c0,0.5,1.1,0,1.1,0c0-0.9-0.1-1.3-0.4-2c-0.1-0.3-0.8-1.2-1.1-1.6
						C20.6,48.5,21.5,48.8,22.5,48.8L22.5,48.8z"/>
					<path id="path378" class="st30" d="M22.5,53c0.4-0.1,0.7-0.3,1-0.3c0.2,0,0.6,0,0.8,0.1c0,0.2,0,0.3,0,0.5
						c-0.1-0.1-0.6-0.2-0.8-0.2c-0.2,0-0.6,0.2-1,0.3c-0.6,0.1-1.2,0.1-1.4-0.7c0.1,0,0.2,0.1,0.3,0.1C21.7,53.2,22.1,53.1,22.5,53
						L22.5,53z"/>
					<path id="path380" class="st30" d="M20.3,52.2c0.1,0.1,0.4,0.1,0.8,0l0.5-0.2c0.1,0.3,0.6,0.7,0.8,0.8c0,0-0.4,0-0.7-0.2
						c-0.1-0.1-0.2-0.1-0.2-0.2l-0.4,0.1c-0.5,0.2-0.8,0.1-0.9,0.1c-0.3-0.1-0.3-0.4-0.3-0.7C20.1,52,20.2,52.1,20.3,52.2L20.3,52.2
						z"/>
				</g>
				<g id="Group-273" transform="translate(45.279349, 47.929994)">
					<path id="Fill-214" class="st32" d="M5.1-30H2.9v1.9H0.4v1.6h1C1.2-26.1,1-25.6,1-25.1c0,1.6,1.3,3,3,3c1.6,0,3-1.4,3-3
						c0-0.5-0.1-1-0.4-1.4h0.9v-1.6H5.1V-30z M4-23.6c-0.5,0-0.9-0.7-0.9-1.5c0-0.8,0.4-1.4,0.9-1.4c0.5,0,0.9,0.6,0.9,1.4
						C4.9-24.3,4.5-23.6,4-23.6L4-23.6z"/>
					<polygon id="Fill-216" class="st32" points="10.5,-25.9 9.7,-25.9 9.7,-29.8 7.9,-29.8 7.9,-16.7 9.7,-16.7 9.7,-24.2 
						10.5,-24.2 10.5,-16.7 12.4,-16.7 12.4,-29.8 10.5,-29.8 					"/>
					<polygon id="Fill-218" class="st32" points="24.6,-29.8 22.5,-29.8 22.5,-22.7 24.6,-22.7 24.6,-24.2 26.5,-24.2 26.5,-25.7 
						24.6,-25.7 24.6,-26.7 26.5,-26.7 26.5,-28.2 24.6,-28.2 					"/>
					<path id="Fill-220" class="st32" d="M20.9-22.6c-1.9,0-3.5,1.4-3.5,3.1c0,1.7,1.6,3.1,3.5,3.1c1.9,0,3.5-1.4,3.5-3.1
						C24.3-21.2,22.8-22.6,20.9-22.6 M20.9-17.9c-0.7,0-1.3-0.7-1.3-1.6c0-0.9,0.6-1.6,1.3-1.6s1.4,0.7,1.4,1.6
						C22.2-18.5,21.6-17.9,20.9-17.9"/>
					<path id="Fill-222" class="st32" d="M21.3-26.3c0-1.7-1.5-3.1-3.3-3.1s-3.3,1.4-3.3,3.1c0,1.7,1.5,3.1,3.3,3.1
						S21.3-24.6,21.3-26.3 M16.7-26.3c0-0.8,0.6-1.5,1.2-1.5s1.2,0.7,1.2,1.5c0,0.8-0.6,1.6-1.2,1.6S16.7-25.5,16.7-26.3"/>
					<path id="Fill-224" class="st32" d="M35.3-22.6c-1.9,0-3.4,1.4-3.4,3.1c0,1.7,1.5,3.1,3.4,3.1c1.9,0,3.4-1.4,3.4-3.1
						C38.7-21.2,37.2-22.6,35.3-22.6 M35.3-18c-0.7,0-1.3-0.6-1.3-1.5c0-0.9,0.6-1.5,1.3-1.5c0.7,0,1.3,0.6,1.3,1.5
						C36.6-18.6,36-18,35.3-18"/>
					<path id="Fill-226" class="st32" d="M34.7-29.2h-5.6v1.6h3.4v0.2c0,0.9-0.3,1.6-1,2.3c-0.4,0.4-1.3,1.1-2.7,1.3
						c-0.1,0-0.1,0.1,0,0.1l0.9,1.1c1.4-0.1,2.5-0.8,3.4-1.7c0.6-0.6,1-1.3,1.3-2.1c0.2-0.5,0.3-1,0.3-1.5c0-0.2,0-0.3,0-0.5v-0.7
						C34.9-29.1,34.8-29.2,34.7-29.2"/>
					<polygon id="Fill-228" class="st32" points="37,-29.8 37,-27.9 34.5,-27.9 34.5,-26.4 37,-26.4 37,-25.6 34.5,-25.6 
						34.5,-24.1 37,-24.1 37,-22.7 39.1,-22.7 39.1,-29.8 					"/>
					<polygon id="Fill-230" class="st32" points="53.7,-27.2 53.7,-29.8 51.6,-29.8 51.6,-22.7 53.7,-22.7 53.7,-25.6 55.3,-25.6 
						55.3,-27.2 					"/>
					<path id="Fill-232" class="st32" d="M46.8-24.9c0.1-0.1,0.1-0.1,0.2,0c0.6,1.1,2,1.9,2.6,2c0,0,0.7-0.7,1.1-1.1
						c0,0,0-0.1,0-0.1c-0.6-0.1-1.1-0.3-1.7-0.8c-0.5-0.5-0.9-1.1-0.9-1.9h2.3v-1.6H48V-30h-2.2v1.6h-2.3v1.6h2.3
						c0,0.8-0.4,1.4-0.9,1.9c-0.5,0.5-1,0.7-1.7,0.8c-0.1,0-0.1,0.1,0,0.1c0.3,0.4,0.9,1.1,1,1.1C44.8-23,46-23.5,46.8-24.9"/>
					<path id="Fill-234" class="st32" d="M47.4-18.1v-0.7h6c0.2,0,0.3-0.1,0.3-0.3V-22c0-0.1-0.1-0.2-0.1-0.2h-8.3v1.3h6.3v0.8h-6.3
						v2.2c0,0.9,0.3,1.2,1.1,1.2h7.5V-18h-6.3C47.5-18,47.4-18,47.4-18.1"/>
					<path id="Fill-236" class="st32" d="M63.7-22.6c-1.9,0-3.4,1.4-3.4,3.1c0,1.7,1.5,3.1,3.4,3.1c1.9,0,3.4-1.4,3.4-3.1
						C67.1-21.2,65.6-22.6,63.7-22.6 M63.7-18c-0.7,0-1.3-0.6-1.3-1.5c0-0.9,0.6-1.5,1.3-1.5c0.7,0,1.3,0.6,1.3,1.5
						C65-18.6,64.4-18,63.7-18"/>
					<polygon id="Fill-238" class="st32" points="65.7,-27.1 65.7,-29.8 67.9,-29.8 67.9,-22.7 65.7,-22.7 65.7,-25.5 64.4,-25.5 
						64.4,-27.1 					"/>
					<path id="Fill-240" class="st32" d="M60.9-24.9c0.1-0.1,0.1-0.1,0.2,0c0.5,1,1.8,1.9,2.4,2c0,0,0.9-1.1,0.9-1.1
						c0.1-0.1-0.4,0-1.4-0.9c-0.5-0.5-0.9-1.1-0.9-1.9h2v-1.6h-2.1V-30h-2.2v1.6h-2.2v1.6h2.2c0,1-1.1,2.6-2.5,2.7
						c-0.1,0-0.1,0.1,0,0.1c0.3,0.4,0.9,1.2,1,1.2C59.2-23,60.3-23.6,60.9-24.9"/>
					<polygon id="Fill-242" class="st32" points="0,-13.8 1,-13.8 1,-11.5 2.5,-13.8 3.7,-13.8 2.1,-11.4 3.9,-8.7 2.6,-8.7 
						1,-11.4 1,-8.7 0,-8.7 					"/>
					<path id="Fill-244" class="st32" d="M6-13.8c1.3,0,2.2,1,2.2,2.6c0,1.1-0.4,2-1.1,2.4c-0.3,0.2-0.6,0.2-1,0.2
						c-0.8,0-1.3-0.2-1.6-0.7C4-9.8,3.8-10.5,3.8-11.2c0-1.1,0.4-2,1.1-2.4C5.3-13.7,5.6-13.8,6-13.8 M6-13c-0.3,0-0.6,0.2-0.8,0.4
						C5-12.3,5-11.8,5-11.2c0,0.9,0.2,1.4,0.5,1.6C5.6-9.5,5.8-9.4,6-9.4c0.7,0,1-0.5,1-1.8c0-0.5,0-0.9-0.1-1.2
						C6.8-12.7,6.5-13,6-13"/>
					<path id="Fill-246" class="st32" d="M8.9-13.8l1.9,0c0.9,0,1.5,0.6,1.5,1.5c0,0.8-0.5,1.4-1.1,1.4c0.1,0.1,0.1,0.1,0.2,0.2
						c0.3,0.4,1.2,2,1.2,2h-1.2c-0.2-0.3-0.3-0.5-0.5-0.8c-0.5-0.9-0.7-1.1-0.8-1.2c-0.1,0-0.1,0-0.2,0v2.1h-1V-13.8z M9.9-12.9
						l0,1.4h0.3c0.4,0,0.6,0,0.8-0.2c0.1-0.1,0.2-0.3,0.2-0.5c0-0.3-0.1-0.5-0.4-0.6c-0.1,0-0.3-0.1-0.6-0.1H9.9L9.9-12.9z"/>
					<polygon id="Fill-248" class="st32" points="13,-13.8 15.9,-13.8 15.8,-12.9 14.1,-12.9 14.1,-11.8 15.5,-11.8 15.5,-10.9 
						14.1,-10.9 14.1,-9.6 16,-9.6 16,-8.7 13,-8.7 					"/>
					<path id="Fill-250" class="st32" d="M17.9-13.8H19l1.6,5.1h-1.1l-0.4-1.2h-1.5l-0.4,1.2h-1.1L17.9-13.8z M17.9-10.8h1
						c0,0-0.2-0.5-0.3-1c-0.1-0.2-0.2-0.9-0.2-0.9s-0.1,0.6-0.2,1C18.1-11.3,18-11.1,17.9-10.8L17.9-10.8z"/>
					<path id="Fill-252" class="st32" d="M26.7-13.5l-0.5,0.7c-0.3-0.2-0.5-0.3-0.8-0.3c-0.3,0-0.7,0.2-0.9,0.4
						c-0.2,0.3-0.3,0.7-0.3,1.3c0,0.7,0.1,1.1,0.2,1.3c0.2,0.4,0.5,0.6,1,0.6c0.3,0,0.5-0.1,0.8-0.2c0,0,0.1,0,0.1-0.1l0.5,0.6
						c-0.4,0.3-0.8,0.5-1.4,0.5c-0.7,0-1.2-0.2-1.6-0.7c-0.4-0.5-0.6-1.1-0.6-1.8c0-0.6,0.1-1.1,0.3-1.6c0.4-0.7,1.1-1.2,1.9-1.2
						C25.9-13.9,26.4-13.7,26.7-13.5"/>
					<path id="Fill-254" class="st32" d="M29.1-13.8c1.3,0,2.2,1,2.2,2.6c0,1.1-0.4,2-1.1,2.4c-0.3,0.2-0.6,0.2-1,0.2
						c-0.8,0-1.3-0.2-1.6-0.7c-0.4-0.5-0.6-1.1-0.6-1.9c0-1.1,0.4-2,1.1-2.4C28.4-13.7,28.8-13.8,29.1-13.8 M29.1-13
						c-0.3,0-0.6,0.2-0.8,0.4c-0.2,0.3-0.3,0.8-0.3,1.4c0,0.9,0.2,1.4,0.4,1.6c0.2,0.1,0.4,0.2,0.6,0.2c0.7,0,1-0.5,1-1.8
						c0-0.5,0-0.9-0.1-1.2C29.9-12.7,29.7-13,29.1-13"/>
					<path id="Fill-256" class="st32" d="M33-13.8h1.1l1.6,5.1h-1.1l-0.4-1.2h-1.5l-0.4,1.2h-1.1L33-13.8z M33-10.8h1
						c0,0-0.2-0.5-0.3-1c-0.1-0.2-0.2-0.9-0.2-0.9s-0.1,0.6-0.2,1C33.2-11.3,33.1-11.1,33-10.8L33-10.8z"/>
					<path id="Fill-258" class="st32" d="M39.6-13.4l-0.5,0.7c-0.5-0.3-0.8-0.4-1.2-0.4c-0.4,0-0.7,0.2-0.7,0.6
						c0,0.3,0.1,0.4,0.6,0.5l0.6,0.2c0.8,0.2,1.3,0.8,1.3,1.5c0,1-0.8,1.7-2.1,1.7c-0.6,0-1.2-0.2-1.7-0.5l0.4-0.8
						c0.5,0.2,0.9,0.4,1.4,0.4c0.6,0,0.9-0.2,0.9-0.7c0-0.3-0.2-0.5-0.7-0.7l-0.6-0.2c-0.5-0.1-0.8-0.3-1-0.6
						c-0.1-0.2-0.2-0.5-0.2-0.8c0-0.9,0.7-1.6,1.8-1.6C38.5-13.9,39.2-13.7,39.6-13.4"/>
					<polygon id="Fill-260" class="st32" points="40,-13.8 43.7,-13.8 43.5,-12.9 42.3,-12.9 42.3,-8.7 41.3,-8.7 41.3,-12.9 
						40,-12.9 					"/>
					<path id="Fill-262" class="st32" d="M50.4-13.3l-0.5,0.6c-0.3-0.3-0.7-0.4-1.1-0.4c-0.3,0-0.5,0.1-0.7,0.3
						c-0.3,0.3-0.4,0.9-0.4,1.6c0,0.7,0.1,1.2,0.4,1.4c0.2,0.2,0.5,0.3,0.8,0.3c0.2,0,0.4,0,0.6-0.1v-1.1h-0.8l-0.1-0.8h1.9v2.4
						c-0.5,0.3-1.1,0.5-1.7,0.5c-0.8,0-1.3-0.2-1.7-0.8c-0.4-0.5-0.5-1-0.5-1.8c0-1.1,0.3-1.8,1.1-2.3c0.4-0.2,0.7-0.4,1.2-0.4
						C49.4-13.8,50-13.6,50.4-13.3"/>
					<path id="Fill-264" class="st32" d="M51.3-13.8h1v3.3c0,0.4,0,0.5,0.1,0.6c0.1,0.2,0.4,0.3,0.7,0.3c0.4,0,0.7-0.2,0.8-0.6
						c0-0.1,0-0.2,0-0.4v-3.2h1v3.4c0,0.5,0,0.6-0.1,0.8c-0.1,0.4-0.6,0.9-1.7,0.9c-0.8,0-1.3-0.2-1.6-0.7c-0.2-0.3-0.2-0.5-0.2-0.9
						V-13.8"/>
					<path id="Fill-266" class="st32" d="M57-13.8h1.1l1.6,5.1h-1.1l-0.4-1.2h-1.5l-0.4,1.2h-1.1L57-13.8z M57-10.8h1
						c0,0-0.2-0.5-0.3-1c-0.1-0.2-0.2-0.9-0.2-0.9s-0.1,0.6-0.2,1C57.2-11.3,57.1-11.1,57-10.8L57-10.8z"/>
					<path id="Fill-268" class="st32" d="M60.2-13.8l1.9,0c0.9,0,1.5,0.6,1.5,1.5c0,0.8-0.5,1.4-1.1,1.4c0.1,0.1,0.1,0.1,0.2,0.2
						c0.3,0.4,1.2,2,1.2,2h-1.2c-0.2-0.3-0.3-0.5-0.5-0.8c-0.5-0.9-0.7-1.1-0.8-1.2c-0.1,0-0.1,0-0.2,0v2.1h-1V-13.8z M61.2-12.9
						l0,1.4h0.3c0.4,0,0.6,0,0.8-0.2c0.1-0.1,0.2-0.3,0.2-0.5c0-0.3-0.1-0.5-0.4-0.6c-0.1,0-0.3-0.1-0.6-0.1H61.2L61.2-12.9z"/>
					<path id="Fill-270" class="st32" d="M64.5-13.7h1c0.3,0,0.7,0,0.9,0c0.4,0,0.8,0.2,1.1,0.5c0.5,0.5,0.7,1.1,0.7,2
						c0,0.7-0.2,1.3-0.5,1.7c-0.3,0.4-0.8,0.7-1.2,0.7c-0.2,0-0.4,0-0.7,0h-1.2V-13.7z M65.5-12.9v3.4h0.5c0.7,0,1-0.5,1-1.6
						c0-0.6,0-1.1-0.3-1.4c-0.2-0.3-0.4-0.4-0.8-0.4H65.5L65.5-12.9z"/>
				</g>
			</g>
		</g>
	</g>
</g>
</svg>
