<?xml version="1.0" encoding="utf-8"?>
<!-- Generator: Adobe Illustrator 26.5.0, SVG Export Plug-In . SVG Version: 6.00 Build 0)  -->
<svg version="1.1" id="Layer_1" xmlns="http://www.w3.org/2000/svg" xmlns:xlink="http://www.w3.org/1999/xlink" x="0px" y="0px"
	 viewBox="0 0 142 40.3" style="enable-background:new 0 0 142 40.3;" xml:space="preserve">
<style type="text/css">
	.st0{fill-rule:evenodd;clip-rule:evenodd;fill:#FFFFFF;fill-opacity:0;}
	.st1{fill:#142354;}
	.st2{fill:url(#path22_00000178162443299652333750000004073114372891727547_);}
	.st3{fill:url(#path30_00000122699179871063526880000002742803273929250999_);}
	.st4{fill:#FCD24B;}
	.st5{fill:#D6A632;}
	.st6{fill:#CA7F25;}
	.st7{fill:url(#path52_00000174594703656026817990000004734891529165046418_);}
	.st8{fill:#FFFFFF;}
	.st9{fill:url(#path94_00000062160230654142730540000006106183241665407896_);}
	.st10{fill:#0C1635;}
	.st11{fill:#FCD205;}
	.st12{fill:url(#path110_00000158718275634637368820000015035629921941367424_);}
	.st13{fill:url(#path124_00000111167484446689905730000015018672708204200118_);}
	.st14{fill:url(#path142_00000047034372958152902160000001930149166249691283_);}
	.st15{fill:url(#path152_00000038415196320363970380000012718652604089705867_);}
	.st16{fill:url(#path162_00000060029651224071816160000000233968330052392878_);}
	.st17{fill:url(#path172_00000044899508820422597550000013985421962756556964_);}
	.st18{fill:url(#path182_00000093890419136624793060000017017514639822883243_);}
	.st19{fill:url(#path192_00000173141378769156043020000009484436008762062506_);}
	.st20{fill:url(#path202_00000070838273464219189010000013945325997220039828_);}
	.st21{fill:url(#path212_00000116201932620485417540000001965636751167704510_);}
	.st22{fill:url(#path222_00000168092607719171016650000016622693037978555323_);}
	.st23{fill:url(#path232_00000155147731978245223620000009911292778897280185_);}
	.st24{fill:url(#path242_00000052079390823790661480000003080070324212204199_);}
	.st25{fill:url(#path268_00000082326883750647664040000005912979020013556125_);}
	.st26{fill:url(#path278_00000145022186469853480760000017502169261164924091_);}
	.st27{fill:url(#path288_00000005253140153799547210000003947681496545061558_);}
	.st28{fill:url(#path296_00000057122603633684965210000002187968715829659809_);}
	.st29{fill:#E18F16;}
	.st30{fill:#FEF0BB;}
	.st31{fill:url(#path376_00000121998841499022069760000003089043588246352054_);}
	.st32{fill:#001B60;}
</style>
<g id="Page-1">
	<g id="HOME-1---Horizon" transform="translate(-534.000000, -2020.000000)">
		<g id="Group-45" transform="translate(0.000000, 2018.757767)">
			<g id="banner-02" transform="translate(534.182758, 1.242233)">
				<rect id="Rectangle" x="0" y="-29.8" class="st0" width="141.6" height="100"/>
				<g id="Group-16" transform="translate(0.000000, 29.841221)">
					
						<g id="g3399" transform="translate(22.520167, 20.000000) scale(-1, 1) rotate(-180.000000) translate(-22.520167, -20.000000) ">
						<path id="path12" class="st1" d="M8.9,61V46.9c0-0.8,0.6-2.7,1.4-4.5c0.6-1.3,1.8-3.8,3.5-5.5c1.5-1.5,3.1-2.8,5.2-4
							c2-1.2,3.3-2.7,3.6-3c0.3,0.3,1.6,1.8,3.6,3c2,1.2,3.7,2.5,5.2,4c1.6,1.7,2.9,4.2,3.5,5.5c0.8,1.8,1.4,3.7,1.4,4.5V61
							c-0.1,0-13.6,8.8-13.6,8.9C22.4,69.8,8.9,61,8.9,61L8.9,61z"/>
						
							<radialGradient id="path22_00000084517615774941434400000000557251556979944607_" cx="-217.2814" cy="-384.6164" r="1.2534" gradientTransform="matrix(26.1046 0 0 26.1046 5687.874 10101.8281)" gradientUnits="userSpaceOnUse">
							<stop  offset="0" style="stop-color:#FDE093"/>
							<stop  offset="0.4607" style="stop-color:#FCD205"/>
							<stop  offset="1" style="stop-color:#E18F16"/>
						</radialGradient>
						<path id="path22" style="fill:url(#path22_00000084517615774941434400000000557251556979944607_);" d="M35.4,60.5l0.1,0.1v0.1
							c-0.6,0.4-12.4,8-13.1,8.5C21.8,68.7,10,61,9.5,60.6v-0.1V46.9c0-1.4,2-6.8,4.7-9.6c1.4-1.5,3.1-2.8,5-3.9
							c1.5-0.9,2.7-2,3.3-2.6l0,0l0,0l0,0l0,0h0l0,0c0.6,0.7,1.7,1.7,3.3,2.6c2,1.2,3.6,2.5,5,3.9c2.7,2.8,4.7,8.2,4.7,9.6v13.7
							L35.4,60.5l0-0.2L35.4,60.5L35.4,60.5L35.4,60.5z"/>
						
							<linearGradient id="path30_00000087373458683294592730000000871653294842878876_" gradientUnits="userSpaceOnUse" x1="-216.4525" y1="-380.7609" x2="-216.3119" y2="-381.0225" gradientTransform="matrix(24.2335 0 0 35.9473 5265.6055 13746.8477)">
							<stop  offset="0" style="stop-color:#1F3781"/>
							<stop  offset="1" style="stop-color:#142354"/>
						</linearGradient>
						<path id="path30" style="fill:url(#path30_00000087373458683294592730000000871653294842878876_);" d="M10.4,60V46.8
							c0-0.4,0.4-1.9,1.3-3.9c0.6-1.2,1.7-3.5,3.2-5c1.4-1.4,2.9-2.6,4.9-3.8c1.2-0.7,2.1-1.5,2.8-2.1c0.7,0.7,1.6,1.4,2.8,2.1
							c1.9,1.1,3.5,2.4,4.8,3.8c1.5,1.5,2.6,3.8,3.2,5c0.9,2,1.3,3.5,1.3,3.9V60c-2.3,1.5-9.6,6.3-12.1,7.9
							C21.1,67,11.4,60.7,10.4,60L10.4,60z"/>
						<path id="path32" class="st4" d="M9.5,60.6L9.5,60.6l0.1-0.1l12.9,8.4v0.2l0,0C21.8,68.7,10,61,9.5,60.6z"/>
						<path id="path34" class="st5" d="M35.4,60.5l0.1,0.1v0.1c-0.6,0.4-12.4,8-13.1,8.5v-0.2L35.4,60.5z"/>
						<polygon id="path36" class="st4" points="22.5,68.8 22.5,68.8 22.5,67.9 						"/>
						<path id="path38" class="st6" d="M34.7,60l0.2,0.2v0c-0.2,0.1-12.1,7.9-12.4,8.1v-0.3C22.7,67.8,34.5,60.1,34.7,60L34.7,60z"
							/>
						<path id="path40" class="st6" d="M10.1,60.2L10.1,60.2l0.2-0.2c0.1,0.1,12,7.8,12.2,7.9v0.3l0,0
							C22.3,68.1,10.3,60.3,10.1,60.2z"/>
						<path id="path42" class="st4" d="M19.7,34c-1.9,1.2-3.5,2.4-4.9,3.8c-2.5,2.6-4.5,7.7-4.5,8.9V60l-0.2,0.2V46.8
							c0-0.6,0.5-2.1,1.3-4c0.6-1.2,1.7-3.5,3.2-5.1c1.4-1.4,3-2.7,4.9-3.8c1-0.6,2-1.4,2.9-2.3l0,0v0.3
							C21.6,32.7,20.7,33.4,19.7,34L19.7,34z"/>
						
							<linearGradient id="path52_00000088846083636184351420000003758990248647961221_" gradientUnits="userSpaceOnUse" x1="-207.4609" y1="-383.7592" x2="-207.4931" y2="-383.2933" gradientTransform="matrix(12.3955 0 0 28.5961 2587.7798 11017.6406)">
							<stop  offset="0" style="stop-color:#C16E0D"/>
							<stop  offset="0.3" style="stop-color:#DA9219"/>
							<stop  offset="1" style="stop-color:#C16E0D"/>
						</linearGradient>
						<path id="path52" style="fill:url(#path52_00000088846083636184351420000003758990248647961221_);" d="M19.7,34
							c-1.9,1.2-3.5,2.4-4.9,3.8c-2.5,2.6-4.5,7.7-4.5,8.9V60l-0.2,0.2V46.8c0-0.6,0.5-2.1,1.3-4c0.6-1.2,1.7-3.5,3.2-5.1
							c1.4-1.4,3-2.7,4.9-3.8c1-0.6,2-1.4,2.9-2.3l0,0v0.3C21.6,32.7,20.7,33.4,19.7,34L19.7,34z"/>
						<path id="path54" class="st4" d="M34.7,46.7c0-1.2-2-6.4-4.5-8.9c-1.4-1.4-2.9-2.6-4.9-3.8c-1-0.6-1.9-1.3-2.8-2.2v-0.3
							c0.9,0.9,1.9,1.6,2.9,2.3c1.9,1.2,3.5,2.4,4.9,3.8c1.5,1.5,2.7,3.9,3.2,5.1c0.9,1.9,1.3,3.5,1.3,4v13.4L34.7,60V46.7
							L34.7,46.7z"/>
						<path id="path56" class="st8" d="M18.1,63.5h0.5c0.4,0,0.5,0,0.6-0.1c0.2-0.1,0.3-0.3,0.3-0.5c0-0.3-0.1-0.5-0.4-0.6
							c-0.1,0-0.2-0.1-0.4-0.1h-0.2v-0.8h-0.4V63.5L18.1,63.5z M18.5,63.1v-0.6h0.2c0.2,0,0.2,0,0.3,0.1c0,0.1,0,0.1,0,0.2
							c0,0.2-0.1,0.3-0.3,0.3H18.5z"/>
						<path id="path58" class="st8" d="M20.5,63.5c0.6,0,0.9-0.4,0.9-1c0-0.5-0.2-0.8-0.5-1c-0.1-0.1-0.2-0.1-0.4-0.1
							c-0.3,0-0.5,0.1-0.7,0.3c-0.2,0.2-0.2,0.5-0.2,0.8c0,0.4,0.2,0.8,0.5,1C20.2,63.5,20.4,63.5,20.5,63.5L20.5,63.5z M20.5,63.2
							c-0.1,0-0.3-0.1-0.3-0.2c-0.1-0.1-0.1-0.3-0.1-0.6c0-0.4,0.1-0.6,0.2-0.7c0.1-0.1,0.1-0.1,0.2-0.1c0.3,0,0.4,0.2,0.4,0.7
							c0,0.2,0,0.4-0.1,0.5C20.8,63,20.7,63.2,20.5,63.2L20.5,63.2z"/>
						<polygon id="path60" class="st8" points="21.7,63.5 22.1,63.5 22.1,61.8 22.8,61.8 22.8,61.4 21.7,61.4 						"/>
						<polygon id="path62" class="st8" points="23.1,63.5 23.5,63.5 23.5,61.4 23.1,61.4 						"/>
						<path id="path64" class="st8" d="M25.3,63.4l-0.2-0.3c-0.1,0.1-0.2,0.1-0.3,0.1c-0.1,0-0.3-0.1-0.3-0.2
							c-0.1-0.1-0.1-0.3-0.1-0.5c0-0.3,0-0.4,0.1-0.6c0.1-0.2,0.2-0.2,0.4-0.2c0.1,0,0.2,0,0.3,0.1c0,0,0,0,0,0l0.2-0.3
							c-0.2-0.1-0.3-0.2-0.6-0.2c-0.3,0-0.5,0.1-0.7,0.3c-0.2,0.2-0.2,0.4-0.2,0.7c0,0.3,0,0.5,0.1,0.6c0.2,0.3,0.5,0.5,0.8,0.5
							C25,63.5,25.2,63.4,25.3,63.4L25.3,63.4z"/>
						<polygon id="path66" class="st8" points="25.6,63.5 26.7,63.5 26.7,63.1 26,63.1 26,62.7 26.6,62.7 26.6,62.3 26,62.3 
							26,61.8 26.8,61.8 26.8,61.4 25.6,61.4 						"/>
						<path id="path68" class="st8" d="M24.1,55.9c0-0.6,0.5-1,1.1-1c0.6,0,1.1,0.5,1.1,1c0,0.6-0.5,1-1.1,1
							C24.6,56.9,24.1,56.5,24.1,55.9L24.1,55.9z M24.8,55.9c0,0.3,0.2,0.5,0.5,0.5c0.3,0,0.5-0.2,0.5-0.5c0-0.3-0.2-0.5-0.5-0.5
							C25,55.4,24.8,55.6,24.8,55.9z"/>
						<path id="path70" class="st8" d="M25.8,59.4v-0.6H25l0,0.2v0.2c0,0-1.8,0-1.9,0v-0.5h1.2v-0.1c0-0.3-0.1-0.6-0.3-0.8
							c-0.2-0.3-0.6-0.4-0.9-0.5c0,0,0.3-0.4,0.3-0.4c0.4,0,0.8,0.2,1.1,0.6c0.2,0.2,0.3,0.4,0.4,0.7l0.9,0h0V58H25v-0.5h0.8v-0.5
							h0.7v2.4H25.8L25.8,59.4z"/>
						<path id="path72" class="st8" d="M14.4,59.5v-0.6h-0.9v-0.5h0.4l0,0c-0.1-0.2-0.1-0.3-0.1-0.5c0-0.5,0.4-1,1-1
							c0.5,0,1,0.4,1,1c0,0.2,0,0.3-0.1,0.5l0,0h0.3v0.5H15v0.6H14.4L14.4,59.5z M14.4,57.8c0,0.3,0.1,0.5,0.3,0.5
							c0.2,0,0.3-0.2,0.3-0.5c0-0.3-0.1-0.5-0.3-0.5C14.5,57.3,14.4,57.6,14.4,57.8z"/>
						<path id="path74" class="st8" d="M16.9,59.4v-1.3h-0.3v1.3H16V55h0.6v2.6h0.3V55h0.6v4.4H16.9z"/>
						<path id="path76" class="st8" d="M21,59.4v-2.3h0.7v0.5h0.6V58h-0.6v0.4h0.6v0.5h-0.6v0.5H21L21,59.4z"/>
						<path id="path78" class="st8" d="M19.3,55.9c0-0.6,0.5-1,1.2-1c0.6,0,1.1,0.5,1.1,1c0,0.6-0.5,1-1.1,1
							C19.8,57,19.3,56.5,19.3,55.9L19.3,55.9z M19.9,55.9c0,0.3,0.2,0.6,0.5,0.6c0.3,0,0.5-0.3,0.5-0.6c0-0.3-0.2-0.6-0.5-0.6
							C20.1,55.4,19.9,55.6,19.9,55.9z"/>
						<path id="path80" class="st8" d="M18.3,58.2c0-0.6,0.5-1,1.1-1c0.6,0,1.1,0.5,1.1,1c0,0.6-0.5,1-1.1,1
							C18.8,59.3,18.3,58.8,18.3,58.2L18.3,58.2z M19,58.2c0,0.3,0.2,0.5,0.5,0.5c0.2,0,0.4-0.3,0.4-0.5c0-0.3-0.2-0.5-0.4-0.5
							C19.2,57.7,19,58,19,58.2z"/>
						<path id="path82" class="st8" d="M30.2,59.4v-2.3h0.7v1h0.6v0.5h-0.6v0.9H30.2L30.2,59.4z"/>
						<path id="path84" class="st8" d="M28.3,59.5V59h-0.8v-0.5h0.8v0c0-0.3-0.2-0.5-0.3-0.7c-0.2-0.2-0.4-0.3-0.6-0.3
							c0,0,0.2-0.2,0.2-0.2l0.1-0.2c0.2,0,0.6,0.2,0.9,0.7c0,0,0,0,0.1,0c0,0,0,0,0.1,0c0.2-0.4,0.7-0.6,0.9-0.7
							c0,0,0.3,0.4,0.3,0.4c-0.2,0-0.4,0.1-0.6,0.3c-0.1,0.1-0.3,0.3-0.3,0.7v0h0.8V59H29v0.5H28.3L28.3,59.5z"/>
						<path id="path86" class="st8" d="M28.1,56.8v-0.4h2.1v-0.3h-2.1v-0.7c0-0.3,0.1-0.4,0.4-0.4H31v0.4h-2.1c-0.1,0-0.1,0-0.1,0.1
							v0.2h2.1c0.1,0,0.1,0,0.1,0.1v1c0,0,0,0,0,0L28.1,56.8L28.1,56.8z"/>
						
							<linearGradient id="path94_00000144330299022404515320000003804294323816048545_" gradientUnits="userSpaceOnUse" x1="-208.3225" y1="-383.6056" x2="-208.623" y2="-381.994" gradientTransform="matrix(13.0512 0 0 29.8356 2735.4231 11476.9316)">
							<stop  offset="0" style="stop-color:#FCD24B"/>
							<stop  offset="1" style="stop-color:#8B4E08"/>
						</linearGradient>
						<path id="path94" style="fill:url(#path94_00000144330299022404515320000003804294323816048545_);" d="M22.5,30.9l-0.2,0.2
							c-0.6,0.6-1.6,1.6-3,2.3c-2,1.2-3.6,2.5-5,3.9c-1.5,1.6-2.7,4-3.3,5.2c-0.8,1.8-1.4,3.5-1.4,4.2v13.5l0,0.2l-0.1,0.1V46.9
							c0-1.4,2-6.8,4.7-9.6c1.4-1.5,3.1-2.8,5-3.9c1.5-0.9,2.7-2,3.3-2.6l0,0L22.5,30.9L22.5,30.9L22.5,30.9z"/>
						<path id="path96" class="st6" d="M22.5,30.9l0.2,0.2c0.6,0.6,1.6,1.6,3,2.3c2,1.2,3.6,2.5,5,3.9c1.5,1.6,2.8,4,3.3,5.2
							c0.8,1.8,1.4,3.5,1.4,4.2v13.5v0.2l0.1,0.1V46.9c0-1.4-2-6.8-4.7-9.6c-1.4-1.5-3.1-2.8-5-3.9c-1.5-0.9-2.7-2-3.3-2.6l0,0V30.9
							L22.5,30.9L22.5,30.9z"/>
						<path id="path98" class="st10" d="M22.5,67.9c-0.2-0.1-12-7.8-12.2-7.9V46.7c0-1.2,2-6.4,4.5-8.9c1.4-1.4,2.9-2.6,4.9-3.8
							c1-0.6,1.9-1.3,2.8-2.2c0.9,0.9,1.8,1.6,2.8,2.2c1.9,1.2,3.5,2.4,4.9,3.8c2.5,2.6,4.5,7.7,4.5,8.9V60
							C34.5,60.1,22.7,67.8,22.5,67.9L22.5,67.9z M34.5,46.7c0-1.2-2-6.3-4.4-8.8c-1.4-1.4-2.9-2.6-4.8-3.8
							c-0.9-0.6-1.9-1.3-2.7-2.1c-0.9,0.8-1.8,1.5-2.7,2.1c-1.9,1.1-3.5,2.4-4.8,3.8c-2.5,2.6-4.4,7.6-4.4,8.8v13.2
							c0.1,0.1,11.8,7.7,12,7.8c1-0.7,11.1-7.2,12-7.8V46.7z"/>
						<path id="path100" class="st11" d="M22.5,48.3c-2.5,0-4.6-2-4.6-4.6c0-2.5,2-4.5,4.6-4.5c2.5,0,4.5,2,4.5,4.5
							C27.1,46.2,25,48.3,22.5,48.3z"/>
						
							<linearGradient id="path110_00000182501432577966216530000008131639167512949950_" gradientUnits="userSpaceOnUse" x1="-130.5033" y1="-565.6799" x2="-129.5033" y2="-565.6799" gradientTransform="matrix(2.3621 0 0 1.9028 323.7696 1120.7716)">
							<stop  offset="0" style="stop-color:#FDE093"/>
							<stop  offset="0.4607" style="stop-color:#FCD205"/>
							<stop  offset="1" style="stop-color:#E18F16"/>
						</linearGradient>
						<path id="path110" style="fill:url(#path110_00000182501432577966216530000008131639167512949950_);" d="M15.5,43.9
							c0,0,0.7-0.7,2.1-0.4c0,0.1,0,0.2,0,0.2c0,0.6,0.1,1.1,0.3,1.6C17.2,44.7,16.4,44.1,15.5,43.9z"/>
						<path id="path112" class="st11" d="M15.3,43.2c0.2-1.3,0.5-2.5,1-3.5c0.1-0.1,0.2-0.2,0.3-0.2c1.3,0.2,1.9,0.8,2.2,1.1
							c-0.6,0.7-0.9,1.6-1.1,2.5c-1.4-0.3-2.4,0.3-2.4,0.3C15.2,43.4,15.3,43.4,15.3,43.2C15.3,43.3,15.3,43.3,15.3,43.2L15.3,43.2z
							"/>
						<path id="path114" class="st11" d="M19,36.2c0.9,0.7,1.4,2.6,1.5,3c-0.6,0.3-1.2,0.7-1.7,1.2c-0.8-0.9-1.8-1.1-2.4-1.2
							c0.6-1.2,1.5-2.2,2.2-3C18.9,36.1,19,36.2,19,36.2L19,36.2z"/>
						
							<linearGradient id="path124_00000004503904236657651330000008819452878550141077_" gradientUnits="userSpaceOnUse" x1="-184.8406" y1="-480.4702" x2="-183.8406" y2="-480.4702" gradientTransform="matrix(5.4666 0 0 3.38 1024.0652 1669.926)">
							<stop  offset="0" style="stop-color:#FDE093"/>
							<stop  offset="0.4607" style="stop-color:#FCD205"/>
							<stop  offset="1" style="stop-color:#E18F16"/>
						</linearGradient>
						<path id="path124" style="fill:url(#path124_00000004503904236657651330000008819452878550141077_);" d="M18.7,46.8
							c0.1,0.2,0.2,0.4,0.4,0.6c-0.3,0.1-0.5,0.1-0.7,0.2c-0.1,0-0.1,0-0.2,0c-1.1-0.9-2.7-2.3-4.6-2.7c0-0.1,0.8-1.1,2.3-0.5
							c1,0.4,1.8,1.2,2.5,2.1C18.5,46.6,18.6,46.7,18.7,46.8z"/>
						<path id="path126" class="st11" d="M26,36.2c0.1,0,0.2-0.1,0.3,0c0.8,0.8,1.6,1.8,2.2,3c-0.6,0.1-1.6,0.3-2.4,1.2
							c-0.5-0.5-1-0.9-1.6-1.2C24.6,38.8,25.1,36.9,26,36.2L26,36.2z"/>
						<path id="path128" class="st11" d="M23,38.8v-0.4c0-1,0-4,0.2-4.5c0,0,1.3,0.5,2.7,1.8c-0.4,0.3-1.1,1.1-1.7,3.3
							C23.7,39,23.4,38.9,23,38.8z"/>
						<path id="path130" class="st11" d="M28.8,39.7c0.5,1,0.8,2.2,1,3.5c0,0,0,0.1,0,0.1c0,0.1,0,0.1,0,0.2c0,0-1-0.6-2.4-0.3
							c-0.1-0.9-0.5-1.8-1-2.5c0.2-0.3,0.9-0.9,2.2-1.1C28.6,39.6,28.7,39.6,28.8,39.7L28.8,39.7z"/>
						<path id="path132" class="st11" d="M21.9,34L21.9,34c0.1,0.5,0.2,3.4,0.2,4.5v0.4c-0.4,0-0.8,0.1-1.1,0.2
							c-0.6-2.2-1.4-3-1.7-3.3C20.6,34.5,21.9,34,21.9,34L21.9,34L21.9,34z"/>
						
							<linearGradient id="path142_00000012458502594113932290000013288082728791013808_" gradientUnits="userSpaceOnUse" x1="-206.6836" y1="-445.8398" x2="-205.6836" y2="-445.8398" gradientTransform="matrix(11.5902 0 0 4.938 2398.489 2253.2634)">
							<stop  offset="0" style="stop-color:#FDE093"/>
							<stop  offset="0.4607" style="stop-color:#FCD205"/>
							<stop  offset="1" style="stop-color:#E18F16"/>
						</linearGradient>
						<path id="path142" style="fill:url(#path142_00000012458502594113932290000013288082728791013808_);" d="M14.6,49.3
							c-0.1,0.1-0.3,0.2-0.4,0.2C13,50.3,12.4,51,12.4,51C7.9,52.2,3,54.2,3,54.2s0-4.1,3.7-4.7C9.3,49.3,12.6,49.2,14.6,49.3z"/>
						
							<linearGradient id="path152_00000000181663553569669810000006303702666345959809_" gradientUnits="userSpaceOnUse" x1="-214.6708" y1="-398.6539" x2="-213.5722" y2="-399.0491" gradientTransform="matrix(19.6746 0 0 13.1985 4224.5225 5318.061)">
							<stop  offset="0" style="stop-color:#FDE093"/>
							<stop  offset="0.4607" style="stop-color:#FCD205"/>
							<stop  offset="1" style="stop-color:#E18F16"/>
						</linearGradient>
						<path id="path152" style="fill:url(#path152_00000000181663553569669810000006303702666345959809_);" d="M12.5,51.3
							c0,0,3-3,6.8-3.6c0.3,0.4,0.8,1.2,0.8,1.2c-3.3,0.3-5.3,2.2-6.6,3.5c-0.8,0.8-1.4,1.1-1.6,1.2c-4.4,2.8-9.1,5.8-11.4,7.3l0,0
							c0,0-0.6-4.7,2.4-6.2c0,0,0.3-0.1,0.3-0.1C6.1,53.3,8.7,52.3,12.5,51.3L12.5,51.3z"/>
						
							<linearGradient id="path162_00000024721052248844214800000005068869095755955350_" gradientUnits="userSpaceOnUse" x1="-201.9309" y1="-531.8599" x2="-200.9309" y2="-531.8599" gradientTransform="matrix(9.3189 0 0 2.3022 1888.8661 1272.3319)">
							<stop  offset="0" style="stop-color:#FDE093"/>
							<stop  offset="0.4607" style="stop-color:#FCD205"/>
							<stop  offset="1" style="stop-color:#E18F16"/>
						</linearGradient>
						<path id="path162" style="fill:url(#path162_00000024721052248844214800000005068869095755955350_);" d="M15,49
							c-1.9-0.1-4.5-0.1-7.9,0l0,0c0,0,0.8-2.6,3.7-2.3c1.8,0.2,4.2,0.9,5.6,1.5C16,48.5,15.5,48.7,15,49L15,49z"/>
						
							<linearGradient id="path172_00000168114814956445246790000001931911838045137036_" gradientUnits="userSpaceOnUse" x1="-194.1813" y1="-494.7124" x2="-193.1813" y2="-494.7124" gradientTransform="matrix(7.0622 0 0 2.9918 1382.1285 1526.7233)">
							<stop  offset="0" style="stop-color:#FDE093"/>
							<stop  offset="0.4607" style="stop-color:#FCD205"/>
							<stop  offset="1" style="stop-color:#E18F16"/>
						</linearGradient>
						<path id="path172" style="fill:url(#path172_00000168114814956445246790000001931911838045137036_);" d="M17.8,47.7
							c-0.3,0.1-0.7,0.2-1.1,0.4c-2-0.9-4.6-1.5-5.9-1.7c0,0,0.5-1.3,2.2-1.3C14.5,45.2,16.4,46.4,17.8,47.7L17.8,47.7z"/>
						
							<linearGradient id="path182_00000062164407731895306230000013169574273475575169_" gradientUnits="userSpaceOnUse" x1="-129.5958" y1="-565.6799" x2="-130.5958" y2="-565.6799" gradientTransform="matrix(2.3643 0 0 1.9028 335.9365 1120.7716)">
							<stop  offset="0" style="stop-color:#FDE093"/>
							<stop  offset="0.4607" style="stop-color:#FCD205"/>
							<stop  offset="1" style="stop-color:#E18F16"/>
						</linearGradient>
						<path id="path182" style="fill:url(#path182_00000062164407731895306230000013169574273475575169_);" d="M29.5,43.9
							c0,0-0.7-0.7-2.1-0.4c0,0.1,0,0.2,0,0.2c0,0.6-0.1,1.1-0.3,1.6C27.8,44.7,28.6,44.1,29.5,43.9L29.5,43.9z"/>
						
							<linearGradient id="path192_00000036967995453935606520000002641200190148360067_" gradientUnits="userSpaceOnUse" x1="-183.8125" y1="-480.4702" x2="-184.8125" y2="-480.4702" gradientTransform="matrix(5.4629 0 0 3.38 1035.5654 1669.926)">
							<stop  offset="0" style="stop-color:#FDE093"/>
							<stop  offset="0.4607" style="stop-color:#FCD205"/>
							<stop  offset="1" style="stop-color:#E18F16"/>
						</linearGradient>
						<path id="path192" style="fill:url(#path192_00000036967995453935606520000002641200190148360067_);" d="M26.3,46.8
							c-0.1,0.2-0.2,0.4-0.4,0.6c0.3,0.1,0.5,0.1,0.7,0.2c0.1,0,0.1,0,0.2,0c1.1-0.9,2.7-2.3,4.6-2.7c0-0.1-0.8-1.1-2.3-0.5
							c-1,0.4-1.8,1.2-2.5,2.1C26.5,46.6,26.4,46.7,26.3,46.8L26.3,46.8z"/>
						
							<linearGradient id="path202_00000132796149895571595540000016196259024119369912_" gradientUnits="userSpaceOnUse" x1="-205.6773" y1="-445.8398" x2="-206.6773" y2="-445.8398" gradientTransform="matrix(11.5865 0 0 4.938 2425.1536 2253.2634)">
							<stop  offset="0" style="stop-color:#FDE093"/>
							<stop  offset="0.4607" style="stop-color:#FCD205"/>
							<stop  offset="1" style="stop-color:#E18F16"/>
						</linearGradient>
						<path id="path202" style="fill:url(#path202_00000132796149895571595540000016196259024119369912_);" d="M30.5,49.3
							c0.1,0.1,0.2,0.2,0.4,0.2c1.1,0.8,1.8,1.4,1.8,1.4c4.5,1.2,9.4,3.2,9.4,3.2s0-4.1-3.7-4.7C35.7,49.3,32.5,49.2,30.5,49.3z"/>
						
							<linearGradient id="path212_00000047738751610670436640000009589962770973086616_" gradientUnits="userSpaceOnUse" x1="-213.7196" y1="-398.6539" x2="-214.8183" y2="-399.0491" gradientTransform="matrix(19.6725 0 0 13.1985 4248.4727 5318.061)">
							<stop  offset="0" style="stop-color:#FDE093"/>
							<stop  offset="0.4607" style="stop-color:#FCD205"/>
							<stop  offset="1" style="stop-color:#E18F16"/>
						</linearGradient>
						<path id="path212" style="fill:url(#path212_00000047738751610670436640000009589962770973086616_);" d="M32.5,51.3
							c0,0-3-3-6.8-3.6c-0.3,0.4-0.8,1.2-0.8,1.2c3.3,0.3,5.3,2.2,6.6,3.5c0.8,0.8,1.4,1.1,1.6,1.2c4.4,2.8,9.1,5.8,11.4,7.3l0,0
							c0,0,0.6-4.7-2.4-6.2c0,0-0.3-0.1-0.3-0.1C38.9,53.3,36.3,52.3,32.5,51.3L32.5,51.3z"/>
						
							<linearGradient id="path222_00000064354063980835703830000004887811483487997081_" gradientUnits="userSpaceOnUse" x1="-200.9346" y1="-531.8599" x2="-201.9346" y2="-531.8599" gradientTransform="matrix(9.3203 0 0 2.3022 1910.7109 1272.3319)">
							<stop  offset="0" style="stop-color:#FDE093"/>
							<stop  offset="0.4607" style="stop-color:#FCD205"/>
							<stop  offset="1" style="stop-color:#E18F16"/>
						</linearGradient>
						<path id="path222" style="fill:url(#path222_00000064354063980835703830000004887811483487997081_);" d="M30.1,49
							c1.9-0.1,4.5-0.1,7.9,0l0,0c0,0-0.8-2.6-3.7-2.3c-1.8,0.2-4.2,0.9-5.6,1.5C29.1,48.5,29.6,48.7,30.1,49L30.1,49z"/>
						
							<linearGradient id="path232_00000046298780265771090490000012659875672001986478_" gradientUnits="userSpaceOnUse" x1="-193.1819" y1="-494.7124" x2="-194.1819" y2="-494.7124" gradientTransform="matrix(7.0623 0 0 2.9918 1398.5669 1526.7233)">
							<stop  offset="0" style="stop-color:#FDE093"/>
							<stop  offset="0.4607" style="stop-color:#FCD205"/>
							<stop  offset="1" style="stop-color:#E18F16"/>
						</linearGradient>
						<path id="path232" style="fill:url(#path232_00000046298780265771090490000012659875672001986478_);" d="M27.2,47.7
							c0.3,0.1,0.8,0.2,1.1,0.4c2-0.9,4.6-1.5,5.9-1.7c0,0-0.5-1.3-2.2-1.3C30.5,45.2,28.7,46.4,27.2,47.7L27.2,47.7z"/>
						
							<linearGradient id="path242_00000078737575144723768460000017611121799283079342_" gradientUnits="userSpaceOnUse" x1="-200.8627" y1="-410.9251" x2="-200.8627" y2="-411.9454" gradientTransform="matrix(9.1055 0 0 9.107 1851.474 3790.7542)">
							<stop  offset="0" style="stop-color:#FDE093"/>
							<stop  offset="0.4607" style="stop-color:#FCD205"/>
							<stop  offset="1" style="stop-color:#E18F16"/>
						</linearGradient>
						<path id="path242" style="fill:url(#path242_00000078737575144723768460000017611121799283079342_);" d="M27.1,43.7
							c0-2.5-2-4.5-4.6-4.5c-2.5,0-4.6,2-4.6,4.5c0,2.5,2,4.6,4.6,4.6C25,48.3,27.1,46.2,27.1,43.7z"/>
						<path id="path244" class="st1" d="M22.6,47.2c-0.2,0-0.4,0.2-0.4,0.4c0,0.2,0.2,0.4,0.4,0.4c0.2,0,0.4-0.2,0.4-0.4
							C23.1,47.4,22.9,47.2,22.6,47.2z"/>
						<path id="path246" class="st1" d="M25.3,46.1c-0.2,0-0.4,0.2-0.4,0.4c0,0.2,0.2,0.4,0.4,0.4c0.2,0,0.4-0.2,0.4-0.4
							C25.7,46.3,25.5,46.1,25.3,46.1z"/>
						<path id="path248" class="st1" d="M26.4,43.4c-0.2,0-0.4,0.2-0.4,0.4c0,0.2,0.2,0.4,0.4,0.4c0.2,0,0.4-0.2,0.4-0.4
							C26.8,43.6,26.6,43.4,26.4,43.4z"/>
						<path id="path250" class="st1" d="M25.3,40.8c-0.2,0-0.4,0.2-0.4,0.4c0,0.2,0.2,0.4,0.4,0.4c0.2,0,0.4-0.2,0.4-0.4
							C25.7,41,25.5,40.8,25.3,40.8z"/>
						<path id="path252" class="st1" d="M22.6,39.7c-0.2,0-0.4,0.2-0.4,0.4c0,0.2,0.2,0.4,0.4,0.4c0.2,0,0.4-0.2,0.4-0.4
							C23.1,39.9,22.9,39.7,22.6,39.7z"/>
						<path id="path254" class="st1" d="M20,40.8c-0.2,0-0.4,0.2-0.4,0.4c0,0.2,0.2,0.4,0.4,0.4c0.2,0,0.4-0.2,0.4-0.4
							C20.4,41,20.2,40.8,20,40.8z"/>
						<path id="path256" class="st1" d="M18.9,43.4c-0.2,0-0.4,0.2-0.4,0.4c0,0.2,0.2,0.4,0.4,0.4c0.2,0,0.4-0.2,0.4-0.4
							C19.3,43.6,19.1,43.4,18.9,43.4z"/>
						<path id="path258" class="st1" d="M20,46.1c-0.2,0-0.4,0.2-0.4,0.4c0,0.2,0.2,0.4,0.4,0.4c0.2,0,0.4-0.2,0.4-0.4
							C20.4,46.3,20.2,46.1,20,46.1z"/>
						
							<radialGradient id="path268_00000044865588733861846750000003083764246190794400_" cx="-188.2196" cy="-432.1368" r="0.6975" gradientTransform="matrix(6.0368 0 0 6.0368 1158.9249 2652.626)" gradientUnits="userSpaceOnUse">
							<stop  offset="0" style="stop-color:#3871C1"/>
							<stop  offset="0.573" style="stop-color:#2744A0"/>
							<stop  offset="1" style="stop-color:#2744A0"/>
						</radialGradient>
						<path id="path268" style="fill:url(#path268_00000044865588733861846750000003083764246190794400_);" d="M25.5,43.7
							c0-1.7-1.4-3-3.1-3c-1.7,0-3,1.4-3,3.1c0,1.7,1.4,3,3.1,3C24.2,46.7,25.6,45.4,25.5,43.7L25.5,43.7z"/>
						
							<linearGradient id="path278_00000119082297019806395500000016083763977624607642_" gradientUnits="userSpaceOnUse" x1="-181.1605" y1="-451.8622" x2="-180.5781" y2="-452.0046" gradientTransform="matrix(5.0676 0 0 4.5693 940.0201 2108.1475)">
							<stop  offset="0" style="stop-color:#FDE093"/>
							<stop  offset="0.4607" style="stop-color:#FCD205"/>
							<stop  offset="1" style="stop-color:#E18F16"/>
						</linearGradient>
						<path id="path278" style="fill:url(#path278_00000119082297019806395500000016083763977624607642_);" d="M24.9,43.4
							c0,1.4-0.9,2.2-1.7,2.2c-0.7,0-1.2-0.5-1.2-1c0-0.5,0.5-0.8,0.5-0.8s0.5,0.3,0.9,0c0.4-0.3,0.6-0.9,0.2-1.5
							c-0.4-0.6-1.5-1-2.7-0.3c-0.7,0.4-1.1,1.2-1.2,1.9c0-1.8,1.3-2.9,2.7-2.9c0.5,0,0.9,0.1,1.2,0.3
							C24.4,41.7,24.9,42.5,24.9,43.4L24.9,43.4z"/>
						
							<radialGradient id="path288_00000149352237245282900190000017798194928655491723_" cx="-170.5657" cy="-460.8048" r="1.3994" gradientTransform="matrix(4.1227 0 0 4.1227 726.2582 1943.2109)" gradientUnits="userSpaceOnUse">
							<stop  offset="0" style="stop-color:#3871C1"/>
							<stop  offset="0.573" style="stop-color:#2744A0"/>
							<stop  offset="1" style="stop-color:#2744A0"/>
						</radialGradient>
						<path id="path288" style="fill:url(#path288_00000149352237245282900190000017798194928655491723_);" d="M21,41.9
							c1.2-0.7,2.3-0.3,2.7,0.4c0.3,0.6,0.2,1.2-0.3,1.5c-0.5,0.3-0.9,0-0.9,0s0-0.6-0.5-0.8c-0.5-0.3-1.1-0.1-1.4,0.5
							c-0.4,0.7-0.2,1.8,1.1,2.5c0.7,0.4,1.6,0.4,2.2,0.1c-1.6,0.9-3.1,0.2-3.8-0.9c-0.2-0.4-0.3-0.8-0.3-1.2
							C19.8,43.1,20.2,42.3,21,41.9L21,41.9z"/>
						
							<radialGradient id="path296_00000100362425667321184050000016299522577813528477_" cx="-179.0904" cy="-447.2881" r="0.7596" gradientTransform="matrix(4.8456 0 0 4.8456 890.4197 2211.1475)" gradientUnits="userSpaceOnUse">
							<stop  offset="0" style="stop-color:#ED1639"/>
							<stop  offset="1" style="stop-color:#8F1E23"/>
						</radialGradient>
						<path id="path296" style="fill:url(#path296_00000100362425667321184050000016299522577813528477_);" d="M21.6,46
							c-1.2-0.7-1.4-1.9-1-2.5c0.3-0.6,1-0.8,1.5-0.5c0.5,0.3,0.4,0.8,0.4,0.8S22,44,22,44.6c0,0.5,0.5,1,1.2,1
							c0.8,0,1.7-0.8,1.6-2.2c0-0.8-0.4-1.5-1.1-2c1.6,0.9,1.8,2.6,1.1,3.8c-0.2,0.4-0.5,0.7-0.9,0.9C23.3,46.4,22.4,46.4,21.6,46
							L21.6,46z"/>
						<path id="path298" class="st29" d="M27.4,43.5c1.4-0.5,2.1,0.6,2.1,0.6c-0.1,0-0.2,0.1-0.3,0.1c-0.3-0.3-0.9-0.7-1.8-0.3v-0.1
							C27.4,43.8,27.4,43.7,27.4,43.5L27.4,43.5z"/>
						<path id="path300" class="st29" d="M42.1,54.7c1.1,0.6,1.8,1.6,2.1,2.6l0,0c-0.4-0.7-1-1.5-1.8-2c0,0-2.1-1.4-9.9-3.7
							c0,0-3.6-3.4-7-3.7c0.1-0.1,0.1-0.2,0.2-0.3c3.8,0.6,6.8,3.6,6.8,3.6c3.8,1.1,6.4,2.1,9.2,3.3C41.8,54.5,42.1,54.7,42.1,54.7
							L42.1,54.7z"/>
						<path id="path302" class="st29" d="M38.4,49.8c-2.5-0.2-5.4-0.2-7.4-0.1c0,0-0.1,0-0.1-0.1c-0.1-0.1-0.3-0.2-0.4-0.2
							c2-0.1,5.3,0,7.9,0.2c1.5,0.3,2.4,1.1,2.9,2v0c0,0,0,0,0,0C40.8,50.7,39.7,50,38.4,49.8L38.4,49.8z"/>
						<path id="path304" class="st29" d="M34.4,47.1c-1.6,0.2-4,0.9-5.4,1.3c-0.1-0.1-0.2-0.1-0.3-0.2c1.4-0.6,3.9-1.2,5.6-1.5
							c1.6-0.2,2.6,0.6,3.1,1.3C36.8,47.5,35.9,46.9,34.4,47.1L34.4,47.1z"/>
						<path id="path306" class="st29" d="M32.2,45.4c-1.9,0.2-3.9,1.7-4.7,2.4c-0.1,0-0.2-0.1-0.3-0.1c1.5-1.3,3.3-2.5,4.9-2.6
							c1.1,0,1.6,0.5,1.9,0.9c0,0,0,0,0,0c0,0,0,0,0,0C33.7,45.7,33.1,45.3,32.2,45.4L32.2,45.4z"/>
						<path id="path308" class="st29" d="M29.4,44.6c-1.2,0.5-2.4,1.7-3.2,2.9c-0.1,0-0.2,0-0.3-0.1c0.1-0.2,0.3-0.5,0.4-0.7
							c0,0,0.1-0.1,0.1-0.1c0.7-0.9,1.6-1.8,2.7-2.2c0.9-0.3,1.6-0.1,1.9,0.2c0,0,0,0,0,0C30.7,44.4,30.1,44.3,29.4,44.6L29.4,44.6z
							"/>
						<path id="path310" class="st30" d="M31.6,52.1c0.8,0.8,1.4,1.1,1.6,1.2c4.8,3.2,7.6,4.7,11.3,7.2c0,0.2,0,0.4,0,0.4l0,0
							c-2.7-1.8-4.3-2.8-6.2-4c-1.7-1.1-3.5-2.2-5.3-3.4c-0.2-0.1-0.8-0.4-1.6-1.2c-1.3-1.3-3.4-3.2-6.6-3.5c0,0,0.1-0.1,0.2-0.2
							l0,0C26.1,48.6,28.8,49.1,31.6,52.1L31.6,52.1z"/>
						<path id="path312" class="st30" d="M32.7,51c0,0-0.1-0.1-0.4-0.3c3.3,0.9,5.4,1.5,9.8,3.2c0,0.2,0,0.3,0,0.3
							S37.2,52.2,32.7,51L32.7,51z"/>
						<path id="path314" class="st30" d="M37.9,49.6c-3.4-0.4-5.9-0.4-7.9,0c-0.1-0.1-0.2-0.3-0.2-0.4c2.1-0.4,5.3-0.6,8-0.2
							C37.9,49.4,37.9,49.6,37.9,49.6L37.9,49.6L37.9,49.6z"/>
						<path id="path316" class="st30" d="M28.3,48.1c-0.1,0-0.2-0.1-0.2-0.1c2-1,4.7-1.6,6.1-1.8c0.1,0.1,0.1,0.2,0.1,0.2
							C33,46.6,30.4,47.2,28.3,48.1L28.3,48.1z"/>
						<path id="path318" class="st30" d="M31.4,44.9c-1.9,0.4-3.5,1.8-4.6,2.7c0,0-0.1,0-0.2,0c0,0,0,0,0,0c1.9-1.8,3.4-2.5,4.6-2.8
							C31.4,44.9,31.4,44.9,31.4,44.9L31.4,44.9z"/>
						<path id="path320" class="st29" d="M17.6,43.5c-1.4-0.5-2.1,0.6-2.1,0.6c0.1,0,0.2,0.1,0.3,0.1c0.3-0.3,0.9-0.7,1.8-0.3v-0.1
							C17.6,43.8,17.6,43.7,17.6,43.5L17.6,43.5z"/>
						<path id="path322" class="st29" d="M3,54.7c-1.1,0.6-1.8,1.6-2.1,2.6l0,0c0.4-0.7,1-1.5,1.8-2c0,0,2.1-1.4,9.8-3.7
							c0,0,3.6-3.4,7-3.7c-0.1-0.1-0.1-0.2-0.2-0.3c-3.8,0.6-6.8,3.6-6.8,3.6c-3.8,1.1-6.4,2.1-9.2,3.3C3.3,54.5,3,54.7,3,54.7
							L3,54.7z"/>
						<path id="path324" class="st29" d="M6.7,49.8c2.5-0.2,5.4-0.2,7.4-0.1c0,0,0.1,0,0.1-0.1c0.1-0.1,0.3-0.2,0.4-0.2
							c-2-0.1-5.3,0-7.9,0.2c-1.5,0.3-2.4,1.1-2.9,2v0c0,0,0,0,0,0C4.3,50.7,5.3,50,6.7,49.8L6.7,49.8z"/>
						<path id="path326" class="st29" d="M10.6,47.1c1.6,0.2,4,0.9,5.4,1.3c0.1-0.1,0.2-0.1,0.3-0.2c-1.4-0.6-3.9-1.2-5.6-1.5
							c-1.6-0.2-2.6,0.6-3.1,1.3C8.2,47.5,9.1,46.9,10.6,47.1z"/>
						<path id="path328" class="st29" d="M12.9,45.4c1.9,0.2,3.9,1.7,4.7,2.4c0.1,0,0.2-0.1,0.3-0.1c-1.5-1.3-3.3-2.5-4.9-2.6
							c-1.1,0-1.6,0.5-1.9,0.9c0,0,0,0,0,0c0,0,0,0,0,0C11.3,45.7,11.9,45.3,12.9,45.4L12.9,45.4z"/>
						<path id="path330" class="st29" d="M15.6,44.6c1.2,0.5,2.4,1.7,3.2,2.9c0.1,0,0.2,0,0.3-0.1c-0.1-0.2-0.3-0.5-0.4-0.7
							c0,0-0.1-0.1-0.1-0.1c-0.7-0.9-1.6-1.8-2.7-2.2c-0.9-0.3-1.6-0.1-1.9,0.2c0,0,0,0,0,0C14.3,44.4,14.9,44.3,15.6,44.6
							L15.6,44.6z"/>
						<path id="path332" class="st30" d="M13.4,52.1c-0.8,0.8-1.4,1.1-1.6,1.2C7.1,56.4,4.2,58,0.5,60.5c0,0.2,0,0.4,0,0.4l0,0
							c2.7-1.8,4.4-2.8,6.2-4c1.7-1.1,3.5-2.2,5.3-3.4c0.2-0.1,0.8-0.4,1.6-1.2c1.4-1.3,3.4-3.2,6.6-3.5c0,0-0.1-0.1-0.2-0.2l0,0
							C18.9,48.6,16.2,49.1,13.4,52.1L13.4,52.1z"/>
						<path id="path334" class="st30" d="M12.4,51c0,0,0.1-0.1,0.4-0.3c-3.4,0.9-5.4,1.5-9.8,3.2c0,0.2,0,0.3,0,0.3
							S7.9,52.2,12.4,51L12.4,51z"/>
						<path id="path336" class="st30" d="M7.1,49.6c3.4-0.4,5.9-0.4,7.9,0c0.1-0.1,0.1-0.3,0.2-0.4c-2.1-0.4-5.3-0.6-8-0.2
							C7.1,49.4,7.1,49.6,7.1,49.6L7.1,49.6L7.1,49.6z"/>
						<path id="path338" class="st30" d="M16.7,48.1c0.1,0,0.2-0.1,0.2-0.1c-2-1-4.7-1.6-6.1-1.8c-0.1,0.1-0.1,0.2-0.1,0.2
							C12.1,46.6,14.7,47.2,16.7,48.1L16.7,48.1z"/>
						<path id="path340" class="st30" d="M13.6,44.9c1.9,0.4,3.5,1.8,4.6,2.7c0,0,0.1,0,0.2,0c0,0,0,0,0,0c-1.9-1.8-3.4-2.5-4.6-2.8
							C13.7,44.9,13.6,44.9,13.6,44.9L13.6,44.9z"/>
						<path id="path342" class="st30" d="M28.4,38.9c0,0.1,0.1,0.2,0.1,0.3c-0.6,0.1-1.6,0.3-2.4,1.2c-0.1-0.1-0.1-0.1-0.2-0.2
							C26.8,39.2,27.7,39,28.4,38.9L28.4,38.9z"/>
						<path id="path344" class="st29" d="M26.2,36.6c-0.8,0.8-1.3,2.2-1.5,2.8c-0.1,0-0.2-0.1-0.2-0.1c0.1-0.5,0.6-2.3,1.5-3
							c0.1,0,0.2-0.1,0.3,0c0.1,0.1,0.2,0.2,0.2,0.2C26.4,36.4,26.3,36.5,26.2,36.6L26.2,36.6z"/>
						<path id="path346" class="st30" d="M27.4,43c1.3-0.4,2.2,0.2,2.4,0.3c0,0,0,0,0,0c0,0,0,0.1,0,0.1c0,0.1,0,0.2,0,0.3
							c0,0-0.5-0.4-1.4-0.5c0,0-0.1,0-0.1,0c0,0-0.1,0-0.1,0h-0.2c0,0,0,0,0,0c-0.2,0-0.4,0-0.7,0.1C27.4,43.2,27.4,43.1,27.4,43
							L27.4,43z"/>
						<path id="path348" class="st29" d="M28.6,39.9c-0.9,0.1-1.6,0.5-2.1,1c-0.1-0.1-0.1-0.1-0.2-0.2c0.2-0.3,0.9-0.9,2.2-1.1
							c0.1,0,0.2,0,0.3,0.2c0,0.1,0.1,0.1,0.1,0.2C28.8,39.9,28.7,39.9,28.6,39.9z"/>
						<path id="path350" class="st30" d="M25.8,35.8c-0.4,0.3-1.1,1.1-1.7,3.3c-0.1,0-0.2-0.1-0.3-0.1
							C24.7,35.9,25.8,35.8,25.8,35.8z"/>
						<path id="path352" class="st29" d="M23.4,34.8c-0.1,0.9-0.2,3.1-0.2,4c-0.1,0-0.2,0-0.3,0c0-0.3,0-3.8,0.2-4.7v0
							c0,0,0,0,0-0.1c0,0,0,0,0,0c0,0,0,0,0-0.1c0,0,1.2,0.5,2.5,1.7c-0.8-0.6-1.6-0.9-2-1.1C23.6,34.6,23.4,34.6,23.4,34.8
							L23.4,34.8z"/>
						<path id="path354" class="st30" d="M16.6,38.9c0,0.1-0.1,0.2-0.1,0.3c0.6,0.1,1.6,0.3,2.4,1.2c0.1-0.1,0.1-0.1,0.2-0.2
							C18.2,39.2,17.4,39,16.6,38.9L16.6,38.9z"/>
						<path id="path356" class="st29" d="M18.9,36.6c0.8,0.8,1.3,2.2,1.5,2.8c0.1,0,0.2-0.1,0.2-0.1c-0.1-0.5-0.6-2.3-1.5-3
							c-0.1,0-0.2-0.1-0.3,0c-0.1,0.1-0.1,0.2-0.2,0.2C18.6,36.4,18.7,36.5,18.9,36.6L18.9,36.6z"/>
						<path id="path358" class="st30" d="M17.7,43c-1.3-0.4-2.2,0.2-2.4,0.3c0,0,0,0,0,0c0,0,0,0.1,0,0.1c0,0.1,0,0.2,0,0.3
							c0,0,0.5-0.4,1.4-0.5c0,0,0.1,0,0.1,0c0,0,0.1,0,0.1,0H17c0,0,0,0,0,0c0.2,0,0.4,0,0.7,0.1C17.7,43.2,17.7,43.1,17.7,43
							L17.7,43z"/>
						<path id="path360" class="st29" d="M16.4,39.9c0.9,0.1,1.6,0.5,2.1,1c0.1-0.1,0.1-0.1,0.2-0.2c-0.2-0.3-0.9-0.9-2.2-1.1
							c-0.1,0-0.2,0-0.3,0.2c0,0.1-0.1,0.1-0.1,0.2C16.2,39.9,16.3,39.9,16.4,39.9z"/>
						<path id="path362" class="st30" d="M19.2,35.8c0.4,0.3,1.1,1.1,1.7,3.3c0.1,0,0.2-0.1,0.3-0.1C20.4,35.9,19.2,35.8,19.2,35.8z
							"/>
						<path id="path364" class="st29" d="M21.6,34.8c0.1,0.9,0.2,3.1,0.2,4c0.1,0,0.2,0,0.3,0c0-0.3,0-3.8-0.2-4.7c0,0,0,0,0,0
							c0,0,0,0,0-0.1c0,0,0,0,0,0c0,0,0,0,0-0.1c0,0-1.2,0.5-2.6,1.7c0.8-0.6,1.6-0.9,2-1.1C21.4,34.6,21.6,34.6,21.6,34.8
							L21.6,34.8z"/>
						<path id="path366" class="st1" d="M20.9,49.5c0.4,0.8,0.5,1.2,0.4,2c-0.1,0-1.2,0.5-1.1,0c-0.2,0.1-0.4,0.7,0.1,0.9
							c0.1,0.1,0.4,0.1,0.7,0l0.5-0.2c0.2,0.3,0.7,0.3,0.9,0.3v0c-0.8,0.3-1.3,0.1-1.4,0.1c0.2,0.7,0.8,0.7,1.4,0.6
							c0.4-0.1,0.7-0.2,1-0.3c0.2,0,0.6,0,0.8,0.1c0.1-0.4-0.1-0.8-0.5-0.8c0,0-0.1-2,0.4-3c0.4-0.7,0.7-1.1,0.9-1.4
							c-0.8,0.5-1.7,0.8-2.7,0.8c-1,0-1.9-0.3-2.6-0.8C20.2,48.2,20.8,49.1,20.9,49.5L20.9,49.5z M45,61.2c0,0.6-0.4,0.3-0.4,0.3
							c-4.3-2.9-10.2-6.6-11.9-7.7c-0.9-0.6-1.6-1.3-1.9-1.6c-3-3-6-2.9-6.1-2.9c-0.6,0.8-0.5,2.7-0.5,2.7c1,0.4,0.3,1.7,0.3,1.7
							c-0.5-0.5-1.2-0.3-1.2-0.3c-0.3,0.1-0.6,0.2-0.8,0.2c-1.6,0.2-1.8-0.9-1.8-0.9c-0.4,0.1-0.9,0-1-0.5c-0.2-0.8,0.6-1.1,0.6-1.1
							c0,0.5,0.7,0.1,0.7,0.1c0.1-0.9-0.4-1.7-0.7-2c-0.2,0-3.1-0.1-6.1,2.9c-0.3,0.3-1,1.1-1.9,1.6c-1.7,1.1-7.7,4.8-12,7.7
							c0,0-0.4,0.3-0.4-0.3c-0.2-2.6,0.2-5.4,2.5-6.8c0,0-0.3-4.4,4.1-5.3c0,0,0.9-2.8,3.8-2.7c0,0,0.5-1.2,1.8-1.5
							c0,0,0.5-0.1,1.1,0c0,0,0.3-0.8,1.5-1c0,0,0.1-7.3,7.8-10.8c7.7,3.4,7.8,10.8,7.8,10.8c1.2,0.2,1.5,1,1.5,1
							c0.5-0.1,1.1,0,1.1,0c1.4,0.4,1.8,1.5,1.8,1.5c2.9-0.1,3.8,2.7,3.8,2.7c4.4,0.9,4.1,5.3,4.1,5.3C44.8,55.8,45.2,58.5,45,61.2
							L45,61.2z M0.5,60.8L0.5,60.8c2.4-1.5,7-4.5,11.4-7.3c0.2-0.1,0.8-0.4,1.6-1.2c1.4-1.3,3.4-3.2,6.6-3.5c0,0-0.5-0.7-0.8-1.2
							c-3.8,0.6-6.8,3.6-6.8,3.6c-3.8,1.1-6.4,2.1-9.2,3.3c0,0-0.3,0.1-0.3,0.1C-0.1,56.1,0.5,60.8,0.5,60.8L0.5,60.8z M3,54.2
							c0,0,4.9-2,9.4-3.2c0,0,0.7-0.6,1.8-1.4c0.1-0.1,0.3-0.2,0.4-0.2c-2-0.1-5.3,0-7.9,0.2C3,50.1,3,54.2,3,54.2L3,54.2z M7.1,49
							L7.1,49c3.4-0.1,5.9-0.1,7.9,0c0.5-0.3,1-0.6,1.4-0.8c-1.4-0.6-3.9-1.2-5.6-1.5C7.9,46.5,7.1,49,7.1,49L7.1,49z M13,45.1
							c-1.7,0-2.2,1.3-2.2,1.3c1.3,0.2,3.9,0.8,5.9,1.7c0.4-0.2,0.8-0.3,1.1-0.4C16.4,46.4,14.5,45.2,13,45.1L13,45.1z M13.6,44.9
							c1.9,0.4,3.5,1.8,4.6,2.7c0,0,0.1,0,0.2,0c0.2-0.1,0.5-0.1,0.7-0.2c-0.1-0.2-0.2-0.4-0.4-0.6c-0.1-0.1-0.2-0.3-0.3-0.4
							c-0.7-0.9-1.6-1.7-2.5-2.1C14.4,43.9,13.7,44.9,13.6,44.9L13.6,44.9z M17.6,43.5c-1.4-0.3-2.1,0.4-2.1,0.4
							c0.9,0.3,1.7,0.8,2.4,1.4c-0.2-0.5-0.3-1-0.3-1.6C17.6,43.6,17.6,43.6,17.6,43.5L17.6,43.5z M16.2,39.7c-0.5,1-0.8,2.2-1,3.5
							c0,0,0,0.1,0,0.1c0,0.1,0,0.1,0,0.2c0,0,1-0.6,2.4-0.3c0.1-0.9,0.5-1.8,1.1-2.5c-0.2-0.3-0.9-0.9-2.2-1.1
							C16.4,39.6,16.3,39.6,16.2,39.7L16.2,39.7z M19,36.2c-0.1,0-0.2-0.1-0.3,0c-0.8,0.8-1.6,1.8-2.2,3c0.6,0.1,1.6,0.3,2.4,1.2
							c0.5-0.5,1-0.9,1.7-1.2C20.4,38.7,19.9,36.9,19,36.2L19,36.2z M22.1,38.5c0-1,0-4-0.2-4.5l0,0l0,0c0,0-1.3,0.5-2.7,1.8
							c0.4,0.3,1.1,1.1,1.7,3.3c0.4-0.1,0.7-0.2,1.1-0.2V38.5L22.1,38.5z M22.5,39.2c-2.5,0-4.6,2-4.6,4.5c0,2.5,2,4.6,4.6,4.6
							c2.5,0,4.5-2,4.5-4.6C27.1,41.2,25,39.2,22.5,39.2L22.5,39.2z M23.2,34C23,34.5,23,37.4,23,38.5v0.4c0.4,0,0.8,0.1,1.1,0.2
							c0.6-2.2,1.4-3,1.7-3.3C24.4,34.5,23.2,34,23.2,34L23.2,34z M26.3,36.2c-0.1-0.1-0.2-0.1-0.3,0c-0.9,0.7-1.4,2.6-1.5,3
							c0.6,0.3,1.2,0.7,1.6,1.2c0.8-0.9,1.8-1.1,2.4-1.2C27.9,38,27.1,37,26.3,36.2L26.3,36.2z M29.8,43.3
							C29.8,43.3,29.8,43.3,29.8,43.3c-0.2-1.4-0.5-2.6-1-3.6c-0.1-0.1-0.2-0.2-0.3-0.2c-1.3,0.2-2,0.8-2.2,1.1
							c0.6,0.7,0.9,1.6,1,2.5c1.4-0.3,2.4,0.3,2.4,0.3C29.8,43.4,29.8,43.4,29.8,43.3L29.8,43.3z M27.2,45.3
							c0.6-0.6,1.5-1.2,2.4-1.4c0,0-0.7-0.7-2.1-0.4c0,0.1,0,0.1,0,0.2C27.4,44.3,27.3,44.8,27.2,45.3L27.2,45.3z M29.1,44.4
							c-1,0.4-1.9,1.3-2.7,2.2c0,0-0.1,0.1-0.1,0.1c-0.2,0.2-0.3,0.5-0.4,0.7c0.3,0.1,0.5,0.1,0.7,0.2c0.1,0,0.1,0,0.2,0
							c1.1-0.9,2.7-2.3,4.6-2.7C31.4,44.9,30.6,43.9,29.1,44.4L29.1,44.4z M32.1,45.1c-1.6,0.1-3.4,1.3-4.9,2.6
							c0.3,0.1,0.8,0.2,1.1,0.4c2-0.9,4.6-1.5,5.9-1.7C34.2,46.4,33.8,45.1,32.1,45.1L32.1,45.1z M37.9,49c0,0-0.8-2.6-3.7-2.3
							c-1.8,0.2-4.2,0.9-5.6,1.5c0.4,0.2,0.9,0.5,1.4,0.8C32,48.9,34.6,48.9,37.9,49L37.9,49L37.9,49z M38.4,49.5
							c-2.6-0.2-5.9-0.3-7.9-0.2c0.1,0.1,0.2,0.2,0.4,0.2c1.1,0.8,1.8,1.4,1.8,1.4c4.5,1.2,9.4,3.2,9.4,3.2S42.1,50.1,38.4,49.5
							L38.4,49.5z M42.1,54.7c0,0-0.3-0.1-0.3-0.1c-2.8-1.2-5.5-2.2-9.2-3.3c0,0-3-3-6.8-3.6c-0.3,0.4-0.8,1.2-0.8,1.2
							c3.3,0.3,5.3,2.2,6.6,3.5c0.8,0.8,1.4,1.1,1.6,1.2c4.4,2.8,9.1,5.8,11.4,7.3l0,0C44.5,60.8,45.1,56.1,42.1,54.7L42.1,54.7z"/>
						
							<linearGradient id="path376_00000098920719476487402380000006708742154493158796_" gradientUnits="userSpaceOnUse" x1="-182.9291" y1="-438.8628" x2="-182.9291" y2="-439.8138" gradientTransform="matrix(5.2861 0 0 5.409 989.5065 2426.7083)">
							<stop  offset="0" style="stop-color:#FDE093"/>
							<stop  offset="0.4607" style="stop-color:#FCD205"/>
							<stop  offset="1" style="stop-color:#E18F16"/>
						</linearGradient>
						<path id="path376" style="fill:url(#path376_00000098920719476487402380000006708742154493158796_);" d="M22.5,48.6
							c1,0,1.9-0.3,2.7-0.8c-0.2,0.3-0.6,0.8-0.9,1.4c-0.6,1-0.4,3-0.4,3c0.4,0,0.6,0.4,0.5,0.8c-0.1-0.1-0.6-0.2-0.8-0.1
							c-0.2,0-0.6,0.2-1,0.3c-0.6,0.1-1.2,0.1-1.4-0.6c0.1,0,0.6,0.2,1.4-0.1v0c-0.2,0-0.7-0.1-0.9-0.3l-0.5,0.2
							c-0.3,0.1-0.6,0.1-0.7,0c-0.5-0.2-0.3-0.7-0.1-0.9c0,0.5,1.1,0,1.1,0c0-0.9-0.1-1.3-0.4-2c-0.1-0.3-0.8-1.2-1.1-1.6
							C20.6,48.4,21.5,48.6,22.5,48.6L22.5,48.6z"/>
						<path id="path378" class="st30" d="M22.5,52.9c0.4-0.1,0.7-0.3,1-0.3c0.2,0,0.6,0,0.8,0.1c0,0.2,0,0.3,0,0.5
							C24.1,53,23.7,53,23.5,53c-0.2,0-0.6,0.2-1,0.3c-0.6,0.1-1.2,0.1-1.4-0.7c0.1,0,0.2,0.1,0.3,0.1C21.7,53,22.1,53,22.5,52.9
							L22.5,52.9z"/>
						<path id="path380" class="st30" d="M20.3,52c0.1,0.1,0.4,0.1,0.8,0l0.5-0.2c0.1,0.3,0.6,0.7,0.8,0.8c0,0-0.4,0-0.7-0.2
							c-0.1-0.1-0.2-0.1-0.2-0.2l-0.4,0.1c-0.5,0.2-0.8,0.1-0.9,0.1C20,52.3,20,52,20.1,51.8C20.1,51.9,20.2,52,20.3,52L20.3,52z"/>
					</g>
					<path id="해양경찰교육원" class="st32" d="M52.2-4.2c0.4,0,0.8-0.1,1.1-0.2c0.3-0.1,0.6-0.4,0.9-0.6
						c0.3-0.2,0.5-0.5,0.6-0.9C55-6.3,55-6.6,55-7c0-0.5-0.1-0.9-0.4-1.3c-0.3-0.4-0.6-0.7-1-1l0,0h1.5v-1.1h-1.9c0-0.1,0-0.1,0-0.2
						l0,0l0-1.2c0,0,0-0.1,0-0.1l0,0h-1.9v1.5h-1.9v1.1h1.4c-0.4,0.3-0.8,0.6-1,1c-0.3,0.4-0.4,0.8-0.4,1.3c0,0.4,0.1,0.7,0.2,1.1
						c0.1,0.3,0.3,0.6,0.6,0.9c0.3,0.3,0.6,0.4,0.9,0.6C51.4-4.3,51.8-4.2,52.2-4.2z M57.3,0.4v-7.7h0.8v7.7H60v-1.9
						c0-0.3,0-0.7,0-1.1v-6.1c0-0.4,0-0.8,0-1.1l0,0v-1.9h-1.8v3.3h-0.8v-3.3h-1.8l0,1.3c0,0.2,0,0.4,0,0.5l0,0v8.3
						c0,0.3,0,0.5,0,0.8v1.1H57.3z M52.2-5.3c-0.3,0-0.6-0.2-0.8-0.5c-0.2-0.3-0.3-0.7-0.3-1.1s0.1-0.8,0.3-1.2
						c0.1-0.1,0.2-0.3,0.4-0.3c0.1-0.1,0.3-0.1,0.4-0.1c0.2,0,0.3,0.1,0.4,0.1c0.1,0.1,0.2,0.2,0.3,0.3c0.2,0.3,0.3,0.7,0.3,1.2
						c0,0.2,0,0.3-0.1,0.5c0,0.2-0.1,0.4-0.2,0.5c-0.1,0.2-0.2,0.3-0.3,0.4C52.5-5.4,52.3-5.3,52.2-5.3z M72.7-5.1v-1.6h2v-1.1h-2
						v-1.3h2v-1.1c0,0-0.1,0-0.3,0l0,0h-1.7v-1.2c0-0.1,0-0.2,0-0.2l0,0h-2v6.6H72.7z M66.2-5.5c0.5,0,0.9-0.1,1.3-0.3
						c0.4-0.2,0.7-0.4,1-0.7c0.3-0.3,0.5-0.6,0.7-1c0.2-0.4,0.3-0.8,0.3-1.2s-0.1-0.8-0.3-1.2c-0.2-0.4-0.4-0.7-0.7-1
						c-0.3-0.3-0.7-0.5-1.1-0.7c-0.4-0.2-0.8-0.2-1.3-0.2c-0.4,0-0.8,0.1-1.2,0.2c-0.4,0.2-0.8,0.4-1.1,0.6c-0.3,0.3-0.6,0.6-0.8,1
						c-0.2,0.4-0.3,0.8-0.3,1.3c0,0.4,0.1,0.8,0.3,1.2c0.2,0.4,0.4,0.7,0.7,1c0.3,0.3,0.6,0.5,1.1,0.7C65.3-5.6,65.7-5.5,66.2-5.5z
						 M66.2-6.6c-0.2,0-0.4,0-0.5-0.2c-0.2-0.1-0.3-0.2-0.4-0.4C65-7.6,64.8-8,64.8-8.6c0-0.3,0-0.5,0.1-0.8
						c0.1-0.2,0.2-0.4,0.3-0.6c0.1-0.2,0.3-0.3,0.4-0.4c0.2-0.1,0.3-0.2,0.5-0.2c0.2,0,0.4,0.1,0.6,0.2c0.2,0.1,0.3,0.3,0.4,0.5
						c0.1,0.2,0.2,0.4,0.3,0.6c0,0.2,0.1,0.4,0.1,0.6c0,0.6-0.1,1.1-0.4,1.4C67-7,66.9-6.9,66.7-6.8C66.6-6.7,66.4-6.6,66.2-6.6z
						 M69.4,0.8c0.5,0,1-0.1,1.4-0.2C71.2,0.4,71.6,0.2,72,0c0.3-0.3,0.6-0.6,0.8-0.9C72.9-1.3,73-1.6,73-2.1c0-0.4-0.1-0.8-0.3-1.2
						c-0.2-0.4-0.5-0.6-0.8-0.9c-0.4-0.2-0.7-0.4-1.2-0.6c-0.4-0.1-0.9-0.2-1.3-0.2c-0.5,0-0.9,0.1-1.3,0.2
						c-0.4,0.2-0.8,0.4-1.1,0.6c-0.3,0.3-0.6,0.6-0.8,0.9c-0.2,0.4-0.3,0.7-0.3,1.1c0,0.4,0.1,0.8,0.3,1.1S66.6-0.3,67,0
						c0.3,0.3,0.7,0.4,1.1,0.6C68.5,0.7,68.9,0.8,69.4,0.8z M69.4-0.4c-0.2,0-0.4-0.1-0.6-0.2c-0.2-0.1-0.4-0.2-0.5-0.4
						c-0.3-0.3-0.5-0.7-0.5-1.2c0-0.2,0-0.4,0.1-0.6c0.1-0.2,0.2-0.4,0.3-0.6c0.1-0.1,0.3-0.3,0.5-0.4c0.2-0.1,0.4-0.2,0.6-0.2
						s0.4,0.1,0.6,0.2c0.2,0.1,0.4,0.2,0.5,0.4c0.1,0.2,0.2,0.4,0.3,0.6C71-2.5,71-2.3,71-2.1c0,0.2,0,0.4-0.1,0.6
						c-0.1,0.2-0.2,0.4-0.3,0.6c-0.2,0.1-0.3,0.3-0.5,0.4C69.9-0.4,69.6-0.4,69.4-0.4z M77.8-4.9C78.9-4.9,80-5.3,81-6
						c0.3-0.2,0.5-0.3,0.7-0.5c0.2-0.2,0.4-0.4,0.6-0.7c0.2-0.3,0.4-0.5,0.5-0.9c0.1-0.3,0.3-0.7,0.3-1.1h2v1.7H83v1.1h2.2V-5h2
						c0-0.3,0-0.6,0-0.9v-5.7c0-0.1,0-0.2,0-0.2h-2v1.4h-1.9v-1h-5.9v1.1h3.8v0.2c0,0.7-0.1,1.3-0.3,1.8c-0.2,0.5-0.6,1-1,1.4
						C79.5-6.5,79-6.3,78.5-6c-0.6,0.2-1.2,0.4-1.8,0.4L77.8-4.9z M83.4,0.8c0.5,0,0.9-0.1,1.4-0.2c0.4-0.2,0.8-0.3,1.1-0.6
						c0.3-0.3,0.6-0.6,0.8-0.9C86.9-1.3,87-1.7,87-2.1c0-0.4-0.1-0.8-0.3-1.2c-0.2-0.4-0.5-0.7-0.8-0.9c-0.3-0.2-0.7-0.4-1.1-0.6
						c-0.4-0.1-0.8-0.2-1.3-0.2c-0.5,0-1,0.1-1.4,0.2c-0.4,0.2-0.8,0.4-1.1,0.6c-0.3,0.3-0.6,0.6-0.8,0.9c-0.2,0.4-0.3,0.7-0.3,1.1
						c0,0.4,0.1,0.8,0.3,1.1C80.4-0.6,80.6-0.3,81,0c0.3,0.3,0.7,0.4,1.1,0.6C82.5,0.7,83,0.8,83.4,0.8z M83.4-0.4
						c-0.2,0-0.4-0.1-0.6-0.1c-0.2-0.1-0.4-0.2-0.5-0.4c-0.2-0.2-0.3-0.3-0.3-0.5c-0.1-0.2-0.1-0.4-0.1-0.6c0-0.2,0-0.4,0.1-0.6
						c0.1-0.2,0.2-0.4,0.3-0.6c0.1-0.2,0.3-0.3,0.5-0.4c0.2-0.1,0.4-0.2,0.6-0.2c0.2,0,0.4,0.1,0.6,0.2c0.2,0.1,0.4,0.2,0.5,0.4
						c0.1,0.2,0.3,0.4,0.3,0.6C85-2.5,85-2.3,85-2.1c0,0.4-0.2,0.8-0.5,1.2C84.2-0.6,83.9-0.4,83.4-0.4z M96.7-5.5l1-0.8
						c-0.4-0.1-0.7-0.2-1-0.4c-0.4-0.2-0.7-0.4-1-0.7c-0.3-0.3-0.5-0.6-0.7-0.9c-0.2-0.3-0.3-0.6-0.3-1l0,0h2.3v-1.1h-2.3
						c0-0.1,0-0.1,0-0.2l0-1.2c0,0,0-0.1,0-0.1l0,0h-2v1.5h-2.3v1.1h2.2c0,0.3-0.1,0.6-0.3,1c-0.2,0.3-0.4,0.6-0.7,0.9
						S91-7,90.6-6.8c-0.4,0.2-0.7,0.3-1.1,0.4l0,0l1,0.8c0.3,0,0.6-0.1,1-0.3c0.3-0.1,0.6-0.3,0.9-0.5c0.3-0.2,0.5-0.4,0.8-0.7
						c0.2-0.3,0.4-0.5,0.4-0.8C93.7-7.5,93.8-7.2,94-7c0.2,0.3,0.5,0.5,0.8,0.7c0.3,0.2,0.6,0.4,0.9,0.5C96.1-5.7,96.4-5.6,96.7-5.5
						L96.7-5.5z M99.9-5.9v-2.7h2v-1.1c0,0-0.1,0-0.3,0l0,0h-1.7v-1.7c0-0.2,0-0.3,0-0.3l0,0h-2l0,0.3c0,0.1,0,0.1,0,0.2l0,0v3.8
						c0,0.5,0,1,0,1.5l0,0H99.9z M100.1,0.3v-1.1h-6.3v-1.1h6.1v-3.2h-8.2V-4h6.2v1h-6V-1c0,0.4,0.1,0.7,0.4,1
						c0.3,0.2,0.6,0.4,1,0.4l0,0H100.1z M112.6-3.3c0.2-0.4,0.4-0.9,0.5-1.5c0.1-0.6,0.2-1.3,0.2-2.1v-3.2c0,0,0-1.3,0-1.3h-2.5
						h-6.2v1.1h6.7v4.5c0,0.4,0,0.7-0.1,1c0,0.3-0.1,0.6-0.2,0.8c-0.1,0.3-0.2,0.5-0.3,0.7H112.6z M114.5-1.1v-1.1
						c-0.1,0-0.1,0-0.1,0l-3.6,0c-0.1,0-0.2,0-0.4,0l0,0v-4.8h-1.9v4.8h-1c0-0.2,0-0.4,0-0.6l0,0v-4c0-0.1,0-0.1,0-0.2l0,0h-1.9v4.8
						c-0.1,0-0.2,0-0.3,0l-1.6,0c0,0-0.1,0-0.1,0l0,0v1.1H114.5z M122.7-6.6c0.5,0,1-0.1,1.4-0.2c0.4-0.1,0.8-0.3,1.1-0.5
						c0.3-0.2,0.6-0.5,0.8-0.8c0.2-0.3,0.3-0.7,0.3-1c0-0.4-0.1-0.8-0.3-1.2c-0.2-0.3-0.5-0.6-0.8-0.8c-0.3-0.2-0.7-0.4-1.1-0.5
						c-0.4-0.1-0.9-0.2-1.4-0.2c-0.5,0-1,0.1-1.4,0.2c-0.4,0.1-0.8,0.3-1.1,0.5c-0.3,0.2-0.6,0.5-0.8,0.8c-0.2,0.3-0.3,0.7-0.3,1.1
						s0.1,0.7,0.3,1c0.2,0.3,0.4,0.6,0.7,0.8c0.3,0.2,0.7,0.4,1.1,0.5C121.7-6.7,122.2-6.6,122.7-6.6z M122.7-7.8
						c-0.6,0-1-0.1-1.3-0.4c-0.3-0.3-0.4-0.6-0.4-1.1c0-0.2,0-0.4,0.1-0.6c0.1-0.2,0.2-0.4,0.3-0.5c0.1-0.1,0.3-0.3,0.5-0.3
						c0.2-0.1,0.4-0.1,0.7-0.1c0.5,0,0.9,0.2,1.2,0.4c0.3,0.3,0.4,0.7,0.4,1.1c0,0.4-0.1,0.8-0.4,1.1C123.6-7.9,123.2-7.8,122.7-7.8
						z M126.9,0.3v-2.4c0-0.4-0.1-0.7-0.4-0.9c-0.3-0.2-0.6-0.4-1-0.4l0,0v-1.4h2.8v-1.1h-11.3v1.1h2.8v1.4h-1.4v1.1l0.3,0
						c0.1,0,0.2,0,0.3,0l0,0h4.2c0.5,0,1.1,0,1.7,0l0,0v2.6H126.9z M123.6-3.4h-1.8v-1.4h1.8V-3.4z M134.6-6.8
						c0.4,0,0.8-0.1,1.2-0.2c0.4-0.1,0.7-0.3,1-0.5c0.3-0.2,0.5-0.5,0.7-0.8c0.2-0.3,0.3-0.7,0.3-1s-0.1-0.7-0.3-1.1
						c-0.2-0.3-0.4-0.6-0.7-0.8c-0.3-0.2-0.6-0.4-1-0.5c-0.4-0.1-0.8-0.2-1.2-0.2c-0.4,0-0.7,0.1-1.1,0.2c-0.4,0.1-0.7,0.3-1,0.5
						c-0.3,0.2-0.6,0.5-0.8,0.8c-0.2,0.3-0.3,0.7-0.3,1.1c0,0.4,0.1,0.7,0.3,1c0.2,0.3,0.4,0.6,0.7,0.8c0.3,0.2,0.6,0.4,1,0.5
						C133.8-6.9,134.2-6.8,134.6-6.8z M141.2-2.5v-9.2h-2v5.2c0,0.6,0,1.2,0,1.9l0,0h-2.6v1h2.6c0,0.1,0,0.2,0,0.3l0,0v0.8H141.2z
						 M134.6-7.9c-0.4,0-0.7-0.1-0.9-0.4c-0.2-0.3-0.3-0.6-0.3-1s0.1-0.8,0.3-1c0.2-0.3,0.5-0.4,1-0.4c0.2,0,0.4,0,0.6,0.1
						c0.2,0.1,0.3,0.2,0.4,0.3c0.1,0.1,0.2,0.3,0.2,0.5c0,0.2,0.1,0.4,0.1,0.5c0,0.4-0.1,0.7-0.3,1C135.3-8,135-7.9,134.6-7.9z
						 M135.3-3.5v-1.7h3v-1h-7.7v1h2.7v1.7H135.3z M141.6,0.4v-1.1h-6.7V-3h-2v2c0,0.4,0.1,0.7,0.4,1c0.2,0.2,0.6,0.4,1,0.4l0,0
						H141.6z"/>
					<path id="KOREACOASTGUARDACADEMY" class="st32" d="M50.3,10.4V9l0.4-0.6l1,1.9h1.2l-1.4-2.8l1.4-2.1h-1.2l-1.3,2.1V5.5h-1v4.9
						H50.3z M55.1,10.5c1.2,0,2-0.9,2-2.5V7.9c0-1.5-0.8-2.4-1.9-2.4s-2,0.9-2,2.5V8C53.2,9.6,54,10.5,55.1,10.5z M55.1,9.6
						c-0.5,0-0.9-0.5-0.9-1.6V7.9c0-1.1,0.4-1.6,0.9-1.6S56,6.8,56,7.9V8C56,9.1,55.6,9.6,55.1,9.6z M58.8,10.4V8.7h0.5l0.8,1.7h1.1
						l-0.9-1.9c0.5-0.2,0.8-0.7,0.8-1.4v0c0-0.5-0.2-0.9-0.4-1.1c-0.3-0.3-0.8-0.4-1.3-0.4h-1.5v4.9H58.8z M59.2,7.9h-0.4V6.4h0.4
						c0.6,0,0.9,0.3,0.9,0.8C60,7.6,59.7,7.9,59.2,7.9z M64.6,10.4V9.5h-1.8V8.4h1.6V7.5h-1.6V6.4h1.8V5.5h-2.8v4.9H64.6z
						 M65.9,10.4l0.3-1h1.4l0.3,1h1.1l-1.5-4.9h-1l-1.5,4.9H65.9z M67.3,8.5h-0.9l0.5-1.6L67.3,8.5z M72.6,10.5c0.5,0,1-0.2,1.4-0.5
						l-0.5-0.7c-0.2,0.2-0.5,0.4-0.8,0.4c-0.5,0-0.9-0.5-0.9-1.6v0c0-1,0.4-1.6,1-1.6c0.3,0,0.5,0.1,0.7,0.3L74,5.9
						c-0.3-0.3-0.7-0.5-1.3-0.5c-1.2,0-2,0.9-2,2.5V8C70.7,9.6,71.4,10.5,72.6,10.5z M76.3,10.5c1.2,0,2-0.9,2-2.5V7.9
						c0-1.5-0.8-2.4-1.9-2.4c-1.2,0-2,0.9-2,2.5V8C74.4,9.6,75.2,10.5,76.3,10.5z M76.3,9.6c-0.5,0-0.9-0.5-0.9-1.6V7.9
						c0-1.1,0.4-1.6,0.9-1.6s0.9,0.5,0.9,1.6V8C77.2,9.1,76.9,9.6,76.3,9.6z M79.6,10.4l0.3-1h1.4l0.3,1h1.1l-1.5-4.9h-1l-1.5,4.9
						H79.6z M81.1,8.5h-0.9l0.5-1.6L81.1,8.5z M84.4,10.4c0.9,0,1.6-0.6,1.6-1.4v0c0-0.7-0.4-1-1.2-1.5C84.1,7.1,84,7,84,6.7
						c0-0.3,0.2-0.4,0.5-0.4c0.4,0,0.7,0.2,0.9,0.4L86,6c-0.4-0.4-1-0.6-1.5-0.6c-1,0-1.6,0.6-1.6,1.4v0c0,0.7,0.5,1.1,1.3,1.5
						C84.8,8.7,85,8.9,85,9.1c0,0.3-0.2,0.5-0.6,0.5c-0.5,0-0.8-0.3-1-0.5l-0.6,0.7C83.3,10.3,83.8,10.4,84.4,10.4z M88.4,10.4v-4h1
						V5.5h-3.1v0.9h1v4H88.4z M93.4,10.5c0.6,0,1.1-0.2,1.5-0.4V7.6h-1.7v0.8h0.7v1.1c-0.1,0.1-0.3,0.1-0.4,0.1
						c-0.6,0-1.1-0.5-1.1-1.6V7.9c0-1,0.5-1.6,1.1-1.6c0.4,0,0.6,0.2,0.8,0.3l0.6-0.8c-0.4-0.3-0.9-0.5-1.4-0.5
						c-1.3,0-2.2,0.9-2.2,2.5V8C91.3,9.6,92.2,10.5,93.4,10.5z M97.2,10.5c1,0,1.7-0.6,1.7-1.8V5.5h-1v3.3c0,0.6-0.3,0.8-0.7,0.8
						c-0.4,0-0.7-0.3-0.7-0.8V5.5h-1v3.2C95.5,9.9,96.2,10.5,97.2,10.5z M100.4,10.4l0.3-1h1.4l0.3,1h1.1l-1.5-4.9h-1l-1.5,4.9
						H100.4z M101.8,8.5h-0.9l0.5-1.6L101.8,8.5z M104.9,10.4V8.7h0.5l0.8,1.7h1.1l-0.9-1.9c0.5-0.2,0.8-0.7,0.8-1.4v0
						c0-0.5-0.2-0.9-0.4-1.1c-0.3-0.3-0.8-0.4-1.3-0.4h-1.5v4.9H104.9z M105.3,7.9h-0.4V6.4h0.4c0.6,0,0.9,0.3,0.9,0.8
						C106.2,7.6,105.9,7.9,105.3,7.9z M109.2,10.4c1.4,0,2.2-0.9,2.2-2.4V7.9c0-1.5-0.8-2.4-2.2-2.4h-1.3v4.9H109.2z M109.2,9.5
						h-0.3V6.4h0.3c0.7,0,1.2,0.5,1.2,1.6V8C110.4,9.1,109.9,9.5,109.2,9.5z M114.2,10.4l0.3-1h1.4l0.3,1h1.1l-1.5-4.9h-1l-1.5,4.9
						H114.2z M115.6,8.5h-0.9l0.5-1.6L115.6,8.5z M119.5,10.5c0.5,0,1-0.2,1.4-0.5l-0.5-0.7c-0.2,0.2-0.5,0.4-0.8,0.4
						c-0.5,0-0.9-0.5-0.9-1.6v0c0-1,0.4-1.6,1-1.6c0.3,0,0.5,0.1,0.7,0.3l0.6-0.7c-0.3-0.3-0.7-0.5-1.3-0.5c-1.2,0-2,0.9-2,2.5V8
						C117.6,9.6,118.3,10.5,119.5,10.5z M122.1,10.4l0.3-1h1.4l0.3,1h1.1l-1.5-4.9h-1l-1.5,4.9H122.1z M123.5,8.5h-0.9l0.5-1.6
						L123.5,8.5z M126.9,10.4c1.4,0,2.2-0.9,2.2-2.4V7.9c0-1.5-0.8-2.4-2.2-2.4h-1.3v4.9H126.9z M126.9,9.5h-0.3V6.4h0.3
						c0.7,0,1.2,0.5,1.2,1.6V8C128.1,9.1,127.6,9.5,126.9,9.5z M132.7,10.4V9.5h-1.8V8.4h1.6V7.5h-1.6V6.4h1.8V5.5h-2.8v4.9H132.7z
						 M134.3,10.4v-3l1,1.9h0l1-1.9v3.1h1V5.5h-1.1l-0.9,1.9l-0.9-1.9h-1.1v4.9H134.3z M140.2,10.4V8.5l1.4-3h-1.1l-0.8,1.9
						l-0.8-1.9h-1.1l1.4,3v1.9H140.2z"/>
				</g>
			</g>
		</g>
	</g>
</g>
</svg>
