<?xml version="1.0" encoding="utf-8"?>
<!-- Generator: Adobe Illustrator 26.5.0, SVG Export Plug-In . SVG Version: 6.00 Build 0)  -->
<svg version="1.1" id="Layer_1" xmlns="http://www.w3.org/2000/svg" xmlns:xlink="http://www.w3.org/1999/xlink" x="0px" y="0px"
	 viewBox="0 0 226 34.9" style="enable-background:new 0 0 226 34.9;" xml:space="preserve">
<style type="text/css">
	.st0{fill-rule:evenodd;clip-rule:evenodd;fill:#FFFFFF;fill-opacity:0;}
	.st1{fill-rule:evenodd;clip-rule:evenodd;fill:#005BAA;}
	.st2{fill-rule:evenodd;clip-rule:evenodd;fill:url(#Path_00000013899866277960481600000002809668958460240002_);}
	.st3{fill-rule:evenodd;clip-rule:evenodd;fill:url(#Path_00000028323388001155789270000001299024921018078344_);}
	.st4{fill-rule:evenodd;clip-rule:evenodd;fill:#F58220;}
	.st5{fill-rule:evenodd;clip-rule:evenodd;fill:url(#Path_00000142875539646955919270000000082699359057474467_);}
	.st6{fill-rule:evenodd;clip-rule:evenodd;fill:url(#Path_00000154410703878898964100000012077469815679728806_);}
	.st7{fill-rule:evenodd;clip-rule:evenodd;fill:#00AEEF;}
	.st8{fill-rule:evenodd;clip-rule:evenodd;fill:url(#Path_00000070797548948785717580000012675692906784678045_);}
	.st9{fill-rule:evenodd;clip-rule:evenodd;fill:url(#Path_00000055673063068070768110000008853767464436315275_);}
	.st10{fill-rule:evenodd;clip-rule:evenodd;fill:#2E3192;}
	.st11{fill:#FFFFFF;}
	.st12{fill-rule:evenodd;clip-rule:evenodd;fill:#FFFFFF;}
	.st13{fill:#005BAA;}
	.st14{fill:#21409A;}
</style>
<g id="Page-1">
	<g id="HOME-1---Horizon" transform="translate(-1304.000000, -2020.000000)">
		<g id="Group-45" transform="translate(0.000000, 2018.757767)">
			<g id="banner-06" transform="translate(1304.872407, 1.242233)">
				<rect id="Rectangle" x="0.1" y="-32.3" class="st0" width="225" height="100"/>
				<g id="Group-46" transform="translate(0.000000, 33.000000)">
					<g id="Group">
						<path id="Path" class="st1" d="M20-32.3c11.1,0,20,8.9,20,20c0,4.3-1.4,8.3-3.7,11.6c-1.4-0.7-2.9-1.3-4.5-1.8
							c2.2-2.7,3.5-6.1,3.5-9.8c0-8.5-6.9-15.3-15.4-15.3S4.6-20.8,4.6-12.4c0,3.7,1.3,7.1,3.5,9.8C6.6-2.1,5.1-1.5,3.7-0.8
							C1.4-4.1,0-8.1,0-12.4C0-23.4,9-32.3,20-32.3z"/>
						
							<linearGradient id="Path_00000168827018072895928710000015609164191714436498_" gradientUnits="userSpaceOnUse" x1="-168.5135" y1="383.7638" x2="-167.5135" y2="383.7638" gradientTransform="matrix(11.2477 0 0 -17.4147 1904.0768 6665.457)">
							<stop  offset="0" style="stop-color:#F58220"/>
							<stop  offset="1" style="stop-color:#FFFFFF"/>
						</linearGradient>
						
							<path id="Path_00000004527768530812681890000014398723502404904629_" style="fill-rule:evenodd;clip-rule:evenodd;fill:url(#Path_00000168827018072895928710000015609164191714436498_);" d="
							M19.9-26.4C18.4-19.2,14.6-13.7,8.7-9h4.2c0,0,3.8-4.4,5-8C19.2-20.7,19.9-26.4,19.9-26.4z"/>
						
							<linearGradient id="Path_00000038397522723242818620000008259632519884303262_" gradientUnits="userSpaceOnUse" x1="-159.3501" y1="389.201" x2="-159.543" y2="388.3493" gradientTransform="matrix(7.3786 0 0 -22.8069 1192.9651 8852.3438)">
							<stop  offset="0" style="stop-color:#FFF685"/>
							<stop  offset="1" style="stop-color:#F58220"/>
						</linearGradient>
						
							<path id="Path_00000137854280888655115650000002663900074156653757_" style="fill-rule:evenodd;clip-rule:evenodd;fill:url(#Path_00000038397522723242818620000008259632519884303262_);" d="
							M19.9-26.4c0.9,3.9-0.3,13.6-3.8,22.8L12.9-9c0,0,3.8-4.4,5-8C19.2-20.7,19.9-26.1,19.9-26.4z"/>
						<polygon id="Path_00000059271940622284886590000011114271515464125084_" class="st4" points="8.7,-9 12.9,-9 16.2,-3.6 
							12,-3.6 						"/>
						
							<linearGradient id="Path_00000098910048676559038220000001078656655290967696_" gradientUnits="userSpaceOnUse" x1="-152.1395" y1="383.7638" x2="-151.138" y2="383.7638" gradientTransform="matrix(5.6212 0 0 -17.4147 870.7302 6665.457)">
							<stop  offset="0" style="stop-color:#00AEEF"/>
							<stop  offset="1" style="stop-color:#FFFFFF"/>
						</linearGradient>
						
							<path id="Path_00000025426169973699469500000016836266648887610027_" style="fill-rule:evenodd;clip-rule:evenodd;fill:url(#Path_00000098910048676559038220000001078656655290967696_);" d="
							M20-26.4c0.2,7.2-1.3,12.8-4.5,17.4h4.2c0,0,1.7-5,1.4-8.6C20.9-21.3,20-26.4,20-26.4z"/>
						
							<linearGradient id="Path_00000136401024643649696800000000850503079027819432_" gradientUnits="userSpaceOnUse" x1="-143.6793" y1="388.8006" x2="-142.6754" y2="388.8006" gradientTransform="matrix(4.4663 0 0 -22.8069 661.3793 8852.3438)">
							<stop  offset="0" style="stop-color:#00AEEF"/>
							<stop  offset="1" style="stop-color:#8ED8F8"/>
						</linearGradient>
						
							<path id="Path_00000083771545808810052930000010703907108943851711_" style="fill-rule:evenodd;clip-rule:evenodd;fill:url(#Path_00000136401024643649696800000000850503079027819432_);" d="
							M20-26.4c0.1,0.5,0.4,1.1,0.6,1.8c1.6,4.6,5.4,13,2.4,21L19.7-9c0,0,0.7-1.9,1.1-4.3c0.2-1,0.3-2.1,0.3-3.2
							C21.1-20,20-26.1,20-26.4z"/>
						<polygon id="Path_00000170270797937623433590000004083004342726648244_" class="st7" points="15.5,-9 19.7,-9 23,-3.6 
							18.8,-3.6 						"/>
						
							<linearGradient id="Path_00000168110796509773706230000007186341827627154826_" gradientUnits="userSpaceOnUse" x1="-159.3945" y1="383.7638" x2="-158.3945" y2="383.7638" gradientTransform="matrix(7.2219 0 0 -17.4147 1171.1223 6665.457)">
							<stop  offset="0" style="stop-color:#2E3192"/>
							<stop  offset="1" style="stop-color:#00AEEF"/>
						</linearGradient>
						
							<path id="Path_00000150089366368375534880000008123151017132931246_" style="fill-rule:evenodd;clip-rule:evenodd;fill:url(#Path_00000168110796509773706230000007186341827627154826_);" d="
							M20-26.4C22.9-19,23.9-13.5,23.1-9h4c0.1,0,0.3-4.2-1.5-8C23.7-20.8,20-26.4,20-26.4z"/>
						
							<linearGradient id="Path_00000121993994121865914040000004029179568967923329_" gradientUnits="userSpaceOnUse" x1="-167.1987" y1="388.6743" x2="-166.1987" y2="388.6743" gradientTransform="matrix(10.4109 0 0 -22.6311 1760.8033 8781.2432)">
							<stop  offset="0" style="stop-color:#2E3192"/>
							<stop  offset="0.51" style="stop-color:#263B97"/>
							<stop  offset="1" style="stop-color:#00AEEF"/>
						</linearGradient>
						
							<path id="Path_00000041275434850131808740000010124789217385319578_" style="fill-rule:evenodd;clip-rule:evenodd;fill:url(#Path_00000121993994121865914040000004029179568967923329_);" d="
							M20.1-26.2c2.8,2.5,11.1,12.1,10.4,22.6L27.1-9c0,0,0.2-1.3-0.1-3.3c-0.2-1.1-0.4-2.4-1-3.8C24.1-20.4,20.2-25.9,20.1-26.2z"
							/>
						<polygon id="Path_00000120546363742082203230000018049852393663829948_" class="st10" points="23.1,-9 27.2,-9 30.5,-3.6 
							26.4,-3.6 						"/>
						<path id="Shape" class="st11" d="M4.3-22.9L4.1-23l-0.4,0.7l0.2,0.1L4.3-22.9L4.3-22.9z M4.5-22.3C4.5-22.3,4.6-22.4,4.5-22.3
							c0.1-0.1,0.2-0.1,0.2-0.1c0,0,0.1,0,0.1,0c0.1,0,0.1,0,0.1,0.1c0,0,0.1,0.1,0.1,0.1c0,0,0.1,0.1,0.1,0.1c0,0,0,0.1,0,0.1
							c0,0,0,0.1,0,0.1c0,0-0.1,0.1-0.1,0.1s-0.1,0-0.1,0c0,0-0.1,0-0.2,0c-0.1,0-0.1,0-0.1-0.1c0,0-0.1-0.1-0.1-0.1
							S4.6-22,4.5-22.1c0,0,0-0.1,0-0.1C4.5-22.2,4.5-22.3,4.5-22.3L4.5-22.3z M4-21.6l-0.2-0.2l0.9-1.4l0.2,0.2l-0.2,0.3
							c0.1,0,0.2,0,0.3,0c0.1,0,0.2,0,0.3,0.1c0.1,0.1,0.1,0.1,0.2,0.2c0.1,0.1,0.1,0.2,0.1,0.3c0,0.1,0,0.2,0,0.3
							c0,0.1-0.1,0.2-0.1,0.3c-0.1,0.1-0.1,0.2-0.2,0.2c-0.1,0.1-0.2,0.1-0.3,0.1c-0.1,0-0.2,0-0.3,0c-0.1,0-0.2,0-0.3-0.1
							c-0.1-0.1-0.2-0.1-0.2-0.2c-0.1-0.1-0.1-0.2-0.1-0.3L4-21.6L4-21.6z M6.4-22.3l0.3-0.4l-1.1-0.7l0.3-0.4L5.6-24l-0.3,0.4
							L4.8-24l-0.4,0.6c0,0,0.1,0,0.1,0c0.1,0,0.1,0,0.2,0L6.4-22.3L6.4-22.3z M6.1-20.9c0.1,0.1,0.2,0.1,0.3,0.1
							c0.1,0,0.2-0.1,0.2-0.2l0.9-1.4l-0.2-0.2l-0.8,1.3l-0.6-0.4l-0.3,0.5c0,0,0,0,0,0c0,0,0,0,0.1,0c0,0,0.1,0,0.1,0s0.1,0,0.1,0
							L6.1-20.9L6.1-20.9z M7.5-27L8-26.5c0,0,0.1,0.1,0.1,0.1c0,0,0.1,0.1,0.1,0.1c0,0,0,0.1,0.1,0.1s0,0.1,0,0.1l0.3-0.3l0.2,0.2
							L8-25.4L8.4-25l0.5-0.6l0.8,0.8l-0.4,0.4L8.8-25l-1.1,1.1l-0.2-0.2l0.6-0.6L7.7-25l-0.8,0.8l-0.2-0.2L8-25.7
							c0-0.1-0.1-0.1-0.1-0.2C7.8-26,7.7-26,7.7-26.1l-0.3-0.3l-1.1,1.1l-0.2-0.2L7.5-27L7.5-27z M10.4-28.9l-0.5,0.3
							c0.1,0,0.1,0,0.1,0.1c0,0,0,0.1,0,0.1c0,0.1,0,0.2,0,0.4c0,0.1,0,0.2-0.1,0.3s-0.1,0.2-0.2,0.3c-0.1,0.1-0.1,0.2-0.2,0.3
							l0.4,0.1c0,0,0.1-0.1,0.2-0.2c0.1-0.1,0.1-0.2,0.2-0.3c0-0.1,0.1-0.2,0.1-0.3c0-0.1,0.1-0.2,0.1-0.3c0.1,0,0.2,0,0.3,0
							c0.1,0,0.2,0,0.3,0s0.2,0,0.3,0c0.1,0,0.2,0,0.3-0.1l0-0.3c-0.1,0-0.1,0-0.2,0.1c-0.1,0-0.2,0-0.3,0c-0.1,0-0.2,0-0.3,0
							s-0.2,0-0.3,0c0-0.1,0-0.2,0-0.2C10.5-28.7,10.5-28.8,10.4-28.9L10.4-28.9z M11.6-26L11-26.9l-1,0.6l-0.2-0.2l2.4-1.5l0.2,0.2
							l-1,0.6l0.6,0.9L11.6-26L11.6-26z M15-30.9l-0.6,0.2c0,0,0,0,0.1,0c0,0,0,0,0.1,0c0,0,0,0,0.1,0c0,0,0,0,0,0.1l0.5,1.5
							l0.5-0.2l-0.3-0.9l0.5-0.1l-0.1-0.3l-0.5,0.1L15-30.9L15-30.9z M13.7-30.4c0,0.1,0.1,0.2,0.1,0.4c0,0.1,0,0.2,0,0.3
							c0.1,0.1,0.1,0.1,0.2,0.2c0.1,0,0.1,0.1,0.2,0.1c0.1,0,0.1,0.1,0.2,0.1c0.1,0,0.2,0,0.3,0.1l-0.1,0.3c-0.1,0-0.3-0.1-0.4-0.1
							c-0.1,0-0.3-0.1-0.4-0.2c0,0.1,0,0.3-0.1,0.4c-0.1,0.2-0.2,0.3-0.3,0.4l-0.5-0.2c0.1-0.1,0.2-0.2,0.2-0.4
							c0.1-0.1,0.1-0.3,0.1-0.4c0-0.1,0-0.2,0-0.3c0-0.1,0-0.2,0-0.3c0,0,0,0,0,0c0,0-0.1,0-0.1,0L13.7-30.4L13.7-30.4z M14.7-28.9
							c-0.1,0-0.2,0.1-0.3,0.1s-0.1,0.1-0.2,0.2c-0.1,0.1-0.1,0.2-0.1,0.3c0,0.1,0,0.2,0,0.3c0,0.1,0.1,0.2,0.1,0.2
							c0.1,0.1,0.1,0.1,0.2,0.2c0.1,0,0.2,0.1,0.3,0.1c0.1,0,0.2,0,0.3,0c0.1,0,0.2-0.1,0.3-0.1c0.1-0.1,0.1-0.1,0.2-0.2
							c0.1-0.1,0.1-0.2,0.1-0.3c0-0.1,0-0.2,0-0.3c0-0.1-0.1-0.2-0.1-0.2c-0.1-0.1-0.1-0.1-0.2-0.2c-0.1,0-0.2-0.1-0.3-0.1
							C14.9-29,14.8-29,14.7-28.9L14.7-28.9z M14.8-28.6c0,0-0.1,0-0.1,0.1c0,0,0,0.1-0.1,0.1c0,0,0,0.1,0,0.2c0,0.1,0,0.1,0,0.1
							c0,0,0,0.1,0.1,0.1c0,0,0.1,0.1,0.1,0.1s0.1,0.1,0.1,0.1c0,0,0.1,0,0.1,0c0,0,0.1,0,0.1-0.1c0,0,0-0.1,0.1-0.1
							c0,0,0-0.1,0-0.2c0-0.1,0-0.1,0-0.1s0-0.1-0.1-0.1c0,0-0.1-0.1-0.1-0.1c0,0-0.1-0.1-0.1-0.1C14.9-28.7,14.8-28.7,14.8-28.6
							L14.8-28.6z M19.6-28.5l-0.4-3.1l-0.5,0.1l0.4,3.1L19.6-28.5L19.6-28.5z M17.9-31.4l0.6-0.1l0.4,3.1l-0.5,0.1l-0.2-1.9l-0.2,0
							l0,0.2l-0.6,0.1l0.1,0.7l0.8-0.1l0,0.3l-0.9,0.1c-0.1,0-0.2,0-0.3-0.1C17-28.9,17-29,17-29.1l-0.1-0.7c0,0,0-0.1,0-0.1
							c0,0,0-0.1-0.1-0.1c0,0,0,0-0.1-0.1c0,0,0,0,0,0l0.8-0.1l-0.1-0.7l-0.7,0.1l0-0.3l1.2-0.1l0.1,0.8l0.3,0l-0.1-0.7
							c0,0,0-0.1-0.1-0.1C18-31.4,17.9-31.4,17.9-31.4L17.9-31.4z M22.7-31.3C22.8-31.3,22.8-31.3,22.7-31.3
							c0.1,0.2,0.1,0.2,0.1,0.3l-0.1,0.7l-0.6-0.1l0,0.3l0.6,0.1l-0.2,1.9l0.5,0.1l0.4-3.1L22.7-31.3L22.7-31.3z M22.5-31.2l0,0.3
							l-0.5-0.1c0,0.1-0.1,0.3-0.1,0.4c0,0.1-0.1,0.2-0.1,0.3c0.1,0.2,0.2,0.4,0.3,0.5s0.2,0.3,0.4,0.4L22.1-29
							c-0.2-0.1-0.3-0.3-0.4-0.4s-0.2-0.3-0.2-0.4c-0.1,0.1-0.2,0.3-0.3,0.4c-0.1,0.1-0.3,0.3-0.4,0.4l-0.3-0.4
							c0.1-0.1,0.2-0.1,0.3-0.2c0.1-0.1,0.2-0.2,0.2-0.3c0.1-0.1,0.1-0.2,0.2-0.3c0.1-0.1,0.1-0.3,0.2-0.4c0,0,0,0,0,0s0,0,0-0.1
							c0,0,0,0,0-0.1c0,0,0,0,0-0.1l-0.6-0.1l0-0.3L22.5-31.2L22.5-31.2z M25.5-30.2c0,0,0.1,0,0.1,0.1c0,0,0,0.1,0.1,0.1
							c0,0.1,0,0.1,0,0.2c0,0.1,0,0.1,0,0.2c0,0.1,0,0.1-0.1,0.2s-0.1,0.1-0.1,0.1c0,0-0.1,0.1-0.1,0.1c0,0-0.1,0-0.1,0
							c0,0-0.1,0-0.1-0.1c0,0,0-0.1-0.1-0.1c0-0.1,0-0.1,0-0.2c0-0.1,0-0.1,0-0.2c0-0.1,0-0.1,0.1-0.2c0-0.1,0.1-0.1,0.1-0.1
							c0,0,0.1-0.1,0.1-0.1C25.4-30.2,25.4-30.2,25.5-30.2L25.5-30.2z M25.2-30.8C25.2-30.7,25.3-30.7,25.2-30.8
							c0.1,0.1,0.1,0.2,0.1,0.2c-0.1,0-0.1,0-0.2,0c-0.1,0-0.1,0-0.2,0.1c-0.1,0.1-0.2,0.1-0.3,0.2c-0.1,0.1-0.1,0.2-0.1,0.3
							c0,0.1,0,0.2,0,0.3c0,0.1,0,0.2,0.1,0.3c0,0.1,0.1,0.2,0.2,0.2c0.1,0.1,0.2,0.1,0.3,0.2c0.1,0,0.2,0.1,0.3,0
							c0.1,0,0.2,0,0.3-0.1c0.1-0.1,0.2-0.1,0.3-0.2c0.1-0.1,0.1-0.2,0.2-0.3c0-0.1,0-0.2,0-0.3c0-0.1,0-0.2-0.1-0.3
							c0-0.1-0.1-0.1-0.1-0.2c0,0-0.1-0.1-0.1-0.1l0.1-0.2L25.2-30.8L25.2-30.8z M24.5-28.1c0,0.1,0,0.2,0,0.3
							c0,0.1,0.1,0.1,0.2,0.2l1.6,0.5l0.1-0.3l-1.5-0.5l0.3-0.8l-0.6-0.2c0,0,0,0,0,0c0,0,0,0,0,0c0,0,0,0,0,0c0,0,0,0,0,0
							c0,0,0,0.1,0,0.1c0,0,0,0.1,0,0.1L24.5-28.1L24.5-28.1z M27.4-29.4l-0.1,0.3l-0.5-0.1L26.5-28L26-28.1l0.6-2c0,0,0-0.1,0-0.2
							c0-0.1,0-0.1-0.1-0.1l0.6,0.2L27-29.5L27.4-29.4L27.4-29.4z M29.5-27.8l0.5,0.3l-0.8,1.2l0.4,0.3l1.3-2.1l-0.6-0.4
							c0,0,0,0.1,0,0.1c0,0.1,0,0.1,0,0.2l-0.3,0.4L29.7-28L29.5-27.8L29.5-27.8z M27.8-26.8l0.2-0.4c0,0,0,0,0-0.1c0,0,0-0.1,0-0.1
							c0,0,0,0,0-0.1c0,0,0,0,0,0l0.5,0.3l-0.4,0.6l1.3,0.8l-0.2,0.2l-1.5-0.9c-0.1-0.1-0.1-0.1-0.2-0.2
							C27.8-26.6,27.8-26.7,27.8-26.8L27.8-26.8z M30.2-28.4L30-28.1l-0.5-0.3c0,0-0.1,0.1-0.1,0.1c0,0-0.1,0.1-0.1,0.1
							c0,0-0.1,0.1-0.1,0.1s0,0-0.1,0.1c0,0.2,0,0.3,0.1,0.5c0,0.1,0.1,0.3,0.2,0.4l-0.3,0.1c-0.1-0.1-0.2-0.3-0.2-0.4
							c0-0.2-0.1-0.3-0.1-0.4c-0.1,0.1-0.3,0.1-0.4,0.2c-0.1,0-0.3,0.1-0.5,0.1L28-28.2c0.2,0,0.4-0.1,0.6-0.1
							c0.2-0.1,0.3-0.2,0.5-0.3c0,0,0,0,0,0c0,0,0,0,0,0c0,0,0,0,0,0c0,0,0,0,0,0L28.6-29l0.2-0.3L30.2-28.4L30.2-28.4z M31.3-24.6
							l0.7,0.7l-0.2,0.2l-0.7-0.7L31.3-24.6L31.3-24.6z M33.7-25.8l0.5,0.5l-2.2,2.2l-1.1-1.2c-0.1-0.1-0.1-0.2-0.1-0.3
							c0-0.1,0-0.2,0.1-0.2l0.4-0.4c0,0,0.1-0.1,0.1-0.1c0,0,0-0.1,0-0.1l0.4,0.4l-0.2,0.2l0.7,0.7l0.5-0.5L32.2-25
							c-0.1,0-0.2,0-0.3-0.1c-0.1,0-0.2-0.1-0.3-0.2c-0.1-0.1-0.1-0.2-0.2-0.2c0-0.1-0.1-0.2-0.1-0.3c0-0.1,0-0.2,0-0.3
							c0-0.1,0.1-0.2,0.1-0.2c0.1-0.1,0.1-0.1,0.2-0.1s0.2,0,0.3,0l-0.2-0.3l0.2-0.2l1.2,1.2l-0.2,0.2l-0.2-0.3c0,0,0,0.1,0,0.1
							c0,0,0,0.1,0,0.1l0.4,0.4l0.4-0.4c0,0,0,0,0-0.1c0,0,0-0.1,0-0.1C33.7-25.7,33.7-25.7,33.7-25.8
							C33.7-25.7,33.7-25.8,33.7-25.8L33.7-25.8z M32.5-26c0,0-0.1,0-0.1-0.1c0,0-0.1,0-0.1,0c0,0-0.1,0-0.1,0.1
							c0,0-0.1,0.1-0.1,0.1c0,0-0.1,0.1-0.1,0.1c0,0,0,0.1-0.1,0.1c0,0,0,0.1,0,0.1c0,0,0,0.1,0,0.1c0,0,0.1,0,0.1,0.1
							c0,0,0.1,0,0.1,0c0,0,0.1,0,0.1-0.1c0,0,0.1-0.1,0.1-0.1c0,0,0.1-0.1,0.1-0.1c0,0,0-0.1,0.1-0.1c0,0,0-0.1,0-0.1
							C32.5-25.9,32.5-26,32.5-26L32.5-26z M32.6-25.1l0.3,0.3l0.2-0.2l-0.3-0.3c0,0,0,0,0,0s0,0,0,0C32.7-25.1,32.7-25.1,32.6-25.1
							C32.6-25.1,32.6-25.1,32.6-25.1L32.6-25.1z M33.1-26l0.2-0.2l-0.5-0.6l-0.2,0.2L33.1-26L33.1-26z M34.9-22.9c0,0,0,0.1,0,0.1
							c0,0,0,0.1,0,0.1c0,0-0.1,0.1-0.1,0.1c0,0-0.1,0.1-0.1,0.1c0,0-0.1,0.1-0.1,0.1c0,0-0.1,0-0.1,0c0,0-0.1,0-0.1,0
							c0,0-0.1,0-0.1-0.1c0,0,0-0.1,0-0.1c0,0,0-0.1,0-0.1c0,0,0.1-0.1,0.1-0.1c0,0,0.1-0.1,0.1-0.1c0,0,0.1,0,0.1-0.1
							c0,0,0.1,0,0.1,0C34.8-23,34.8-22.9,34.9-22.9C34.9-22.9,34.9-22.9,34.9-22.9L34.9-22.9z M36.2-22.6
							C36.2-22.6,36.2-22.5,36.2-22.6C36.2-22.5,36.2-22.5,36.2-22.6C36.2-22.5,36.2-22.5,36.2-22.6c0,0.1,0,0.1,0,0.1
							c0,0,0,0.1,0,0.1c0,0,0,0-0.1,0.1l-1.6,1c0,0-0.1-0.1-0.2-0.1s-0.1-0.1-0.2-0.2L34-21.9l0.2-0.1c0.1,0,0.1,0.1,0.2,0.1
							c0.1,0,0.1,0,0.2,0c0.1,0,0.2,0,0.2,0c0.1,0,0.1,0,0.2-0.1c0.1,0,0.1-0.1,0.2-0.2c0-0.1,0.1-0.2,0.1-0.3l0.2,0.3l0.2-0.2
							l-1-1.5l-0.2,0.2l0.2,0.3c-0.1,0-0.2,0-0.3,0c-0.1,0-0.2,0-0.2,0.1c-0.1,0-0.1,0.1-0.2,0.1c0,0.1-0.1,0.1-0.1,0.2
							c0,0.1,0,0.1,0,0.2s0,0.1,0,0.2l-0.2,0.1l-0.3-0.5l-0.2,0.2l0.8,1.2c0.1,0.1,0.1,0.2,0.2,0.2c0.1,0.1,0.1,0.1,0.2,0.2
							l-0.6,0.4l0.3,0.4l2.6-1.7L36.2-22.6L36.2-22.6z M35.6-22.8l-0.4-0.7l0.2-0.1l0.4,0.7L35.6-22.8z"/>
						<path id="Path_00000031177699679894069600000014813854904234437808_" class="st12" d="M6.9-2.7C2-0.2,1.8,0,1.8,0
							c0.3-0.2,7.8-2.8,14.7-2.7c4.2,0.1,7.1,2.2,10,3.6c1.3,0.6,2.6,0.8,3.9,0.7c6-0.4,11.7-6.8,11.4-6.4
							c-0.4,0.5-9.3,3.2-15.4,0.1c-2.8-1.4-5.7-1.7-8.1-1.6C13-6.2,11.1-4.7,6.9-2.7z"/>
						<path id="Path_00000116202314007983869360000015249210908947997334_" class="st1" d="M12.5-4.1c-4.5,1.3-7,3-7,3
							c0.4-0.3,7-2.5,12.7-2.1c5.4,0.4,8.2,2.9,12.2,2.7c5.4-0.2,10.4-3.6,10.3-3.4c-0.2,0.4-7.9,2.3-14,0
							C22.5-5.4,16.9-5.4,12.5-4.1z"/>
						<path id="Path_00000158017116648010369840000016205475504866577831_" class="st7" d="M32.4-3.2C32.5-3.4,32.8-3.9,33-4
							c1.1-0.4,1.9,0.1,2.9,0c1.1-0.2,1.8-0.7,2.7-0.8c0,0-0.4,1.1-0.6,1.2C37.8-3.5,33.9-3.1,32.4-3.2z"/>
						<polygon id="Path_00000115504917105364966390000014674085961172365957_" class="st12" points="36.1,-20.4 36.4,-19.5 
							37.3,-19.5 36.6,-18.9 36.9,-18 36.1,-18.6 35.3,-18 35.6,-18.9 34.8,-19.5 35.8,-19.5 						"/>
						<polygon id="Path_00000165950360679313877580000008974767588262751412_" class="st12" points="3.6,-20.4 3.9,-19.5 4.8,-19.5 
							4.1,-18.9 4.4,-18 3.6,-18.6 2.8,-18 3.1,-18.9 2.4,-19.5 3.3,-19.5 						"/>
						<path id="Path_00000126307941628923402270000007346115731184291487_" class="st11" d="M28.4-1.2l-0.3-0.8l0.4-0.3
							c0.1,0,0.1-0.1,0.1-0.1c0,0,0.1,0,0.1,0c0,0,0,0,0,0c0,0,0,0,0,0s0,0,0,0c0,0,0,0,0,0l-0.5-0.1c0,0,0,0,0,0c0,0,0,0,0,0
							c0,0,0,0,0,0s0,0,0,0c0.1,0,0.1,0,0.1,0.1c0,0-0.1,0.1-0.1,0.1l-0.6,0.4l0.1-0.5c0,0,0-0.1,0-0.1c0,0,0,0,0,0c0,0,0,0,0,0
							c0,0,0,0,0.1,0c0,0,0,0,0,0c0,0,0,0,0,0c0,0,0,0,0,0c0,0,0,0,0,0l-0.5-0.1c0,0,0,0-0.1,0c0,0,0,0,0,0.1c0,0,0.1,0,0.1,0
							c0,0,0,0,0,0c0,0,0,0,0,0c0,0,0,0,0,0.1l-0.2,0.9c0,0.1,0,0.1,0,0.1c0,0-0.1,0-0.1,0c0,0,0,0-0.1,0s0,0,0,0.1l0.5,0.1
							c0,0,0,0,0,0c0,0,0,0,0,0c0,0,0,0,0,0c0,0,0,0,0,0c-0.1,0-0.1,0-0.1,0c0,0,0-0.1,0-0.1l0.1-0.2l0.3-0.2l0.2,0.5
							c0,0,0,0.1,0,0.1c0,0-0.1,0-0.1,0c0,0,0,0,0,0s0,0,0,0.1l0.6,0.1c0,0,0,0,0,0c0,0,0,0,0,0c0,0,0,0,0,0c0,0,0,0,0,0
							C28.5-1,28.5-1.1,28.4-1.2C28.5-1.1,28.4-1.1,28.4-1.2z"/>
						<path id="Shape_00000135665921032059081530000000905131267124301697_" class="st11" d="M30.2-1l-0.4-1.3c0,0,0,0-0.1,0
							s-0.1,0-0.1,0l-0.6,1.2c0,0,0,0.1-0.1,0.1c0,0-0.1,0-0.1,0c0,0,0,0,0,0c0,0,0,0,0,0l0.4,0c0,0,0,0,0,0c0,0,0,0,0,0
							c0,0,0,0,0,0c0,0,0,0,0,0c-0.1,0-0.1,0-0.1,0c0,0,0,0,0-0.1l0.1-0.3l0.5,0L30-1.1C30-1,30-1,30-1s-0.1,0-0.1,0c0,0,0,0,0,0
							c0,0,0,0,0,0c0,0,0,0,0,0c0,0,0,0,0,0l0.5,0c0,0,0,0,0,0c0,0,0,0,0,0s0,0,0,0c0,0,0,0,0,0C30.3-0.9,30.3-1,30.2-1
							C30.2-1,30.2-1,30.2-1L30.2-1z M29.8-1.4l-0.4,0L29.7-2L29.8-1.4z"/>
						<path id="Path_00000078026806620234881150000015128095525672009858_" class="st11" d="M31.4-1.7l-0.3-0.1
							c-0.1,0-0.1,0-0.1-0.1c0,0,0-0.1-0.1-0.1c0-0.1,0-0.1,0.1-0.1s0.1-0.1,0.2-0.1c0.1,0,0.2,0,0.2,0.1c0.1,0.1,0.1,0.1,0.2,0.3
							c0,0,0,0,0.1,0c0,0,0.1,0,0,0l-0.1-0.5c0,0,0,0,0,0c0,0,0,0-0.1,0l0,0.1c-0.1,0-0.1-0.1-0.2-0.1c-0.1,0-0.1,0-0.2,0
							c-0.1,0-0.2,0.1-0.3,0.1c-0.1,0.1-0.1,0.2-0.1,0.3c0,0.1,0,0.1,0,0.2c0,0.1,0.1,0.1,0.1,0.1c0.1,0,0.1,0.1,0.2,0.1
							c0.1,0,0.1,0,0.2,0c0.1,0,0.2,0,0.3,0.1c0,0,0.1,0.1,0.1,0.2c0,0.1,0,0.1-0.1,0.2c0,0.1-0.1,0.1-0.2,0.1c-0.1,0-0.2,0-0.3-0.1
							c-0.1-0.1-0.2-0.2-0.2-0.3c0,0,0,0-0.1,0s-0.1,0,0,0l0,0.5c0,0,0,0,0,0c0,0,0,0,0.1,0l0-0.1C31-1,31-0.9,31.1-0.9
							c0.1,0,0.1,0,0.2,0c0.2,0,0.3-0.1,0.4-0.1c0.1-0.1,0.1-0.2,0.1-0.3c0-0.1,0-0.2-0.1-0.3C31.6-1.7,31.5-1.7,31.4-1.7z"/>
						<path id="Shape_00000161608169022096949770000010673407402280807080_" class="st11" d="M33.4-1.4l-0.7-1c0,0,0,0-0.1,0
							c0,0-0.1,0-0.1,0l-0.2,1.1c0,0,0,0.1,0,0.1c0,0,0,0-0.1,0c0,0,0,0,0,0c0,0,0,0,0,0l0.4-0.1c0,0,0,0,0,0c0,0,0,0,0,0
							c0,0,0,0,0,0c0,0,0,0,0,0c-0.1,0-0.1,0-0.1,0c0,0,0,0,0-0.1l0-0.2L33-1.6l0.1,0.2c0,0,0,0.1,0,0.1c0,0,0,0-0.1,0c0,0,0,0,0,0
							c0,0,0,0,0,0c0,0,0,0,0,0c0,0,0,0,0,0l0.4-0.1c0,0,0,0,0,0c0,0,0,0,0,0s0,0,0,0c0,0,0,0,0,0C33.5-1.4,33.5-1.4,33.4-1.4
							C33.4-1.4,33.4-1.4,33.4-1.4L33.4-1.4z M33-1.7l-0.4,0.1l0.1-0.5L33-1.7z"/>
						<path id="Path_00000173122998956850885720000013129589125921281685_" class="st13" d="M4.5-22.3C4.5-22.3,4.6-22.3,4.5-22.3
							c0.1-0.1,0.2-0.1,0.2-0.1c0,0,0.1,0,0.1,0c0.1,0,0.1,0,0.1,0.1s0.1,0.1,0.1,0.1c0,0,0.1,0.1,0.1,0.1c0,0,0,0.1,0,0.1
							c0,0,0,0.1,0,0.1c0,0-0.1,0.1-0.1,0.1c0,0-0.1,0-0.1,0c0,0-0.1,0-0.2,0c-0.1,0-0.1,0-0.1-0.1c0,0-0.1-0.1-0.1-0.1
							S4.6-22,4.5-22c0,0,0-0.1,0-0.1C4.5-22.2,4.5-22.2,4.5-22.3L4.5-22.3z"/>
						<path id="Path_00000077289417313115558510000000309595575400448671_" class="st13" d="M14.8-28.6c0,0-0.1,0-0.1,0.1
							c0,0,0,0.1-0.1,0.1c0,0.1,0,0.1,0,0.2c0,0.1,0,0.1,0,0.2c0,0,0,0.1,0.1,0.1c0,0,0.1,0.1,0.1,0.1c0,0,0.1,0.1,0.1,0.1
							c0,0,0.1,0,0.1,0c0,0,0.1,0,0.1-0.1c0,0,0-0.1,0.1-0.1c0,0,0-0.1,0-0.2c0-0.1,0-0.1,0-0.1c0,0,0-0.1-0.1-0.1
							c0,0-0.1-0.1-0.1-0.1c0,0-0.1-0.1-0.1-0.1C14.9-28.6,14.8-28.6,14.8-28.6L14.8-28.6z"/>
						<polygon id="Path_00000052792439237250936050000013913493005310060673_" class="st13" points="31.3,-24.6 32,-23.9 
							31.8,-23.7 31.1,-24.4 						"/>
					</g>
					<g id="Group_00000014625871733193564940000001843075536027042696_" transform="translate(47.830489, 7.716785)">
						<polygon id="Path_00000123428560548074174610000010915129399908944046_" class="st14" points="37.1,-31.4 34.9,-31.4 
							34.9,-20.9 37.1,-20.9 37.1,-25.3 38.9,-25.3 38.9,-27.6 37.1,-27.6 						"/>
						<path id="Shape_00000089537560390455222240000003623119714298816898_" class="st14" d="M24.7-26.6c0,1.2,0.4,2.2,1.3,3
							c0.8,0.8,1.7,1.2,2.8,1.2c1.1,0,2-0.4,2.8-1.2c0.8-0.8,1.3-1.8,1.3-3c0-0.4-0.1-0.8-0.2-1.1c-0.1-0.3-0.3-0.6-0.5-0.9h1.2
							v-2.1h-3.3v-1.4h-2.4v1.4h-3.3v2.1h1.1c-0.2,0.3-0.4,0.6-0.5,1C24.7-27.4,24.7-27,24.7-26.6z M27.4-28
							c0.4-0.4,0.8-0.6,1.3-0.6c0.5,0,0.9,0.2,1.3,0.6c0.4,0.4,0.6,0.9,0.6,1.4c0,0.6-0.2,1-0.6,1.4c-0.4,0.4-0.8,0.6-1.3,0.6
							c-0.5,0-0.9-0.2-1.3-0.6c-0.4-0.4-0.5-0.9-0.5-1.4C26.9-27.2,27-27.6,27.4-28z"/>
						<path id="Path_00000030486356268031753730000016737403045249876144_" class="st14" d="M27.6-21.7h-2.2v4.3
							c0,0.5,0.1,0.9,0.3,1.1c0.2,0.2,0.4,0.3,0.8,0.3h10.8v-2.2h-9.7L27.6-21.7L27.6-21.7z"/>
						<polygon id="Path_00000068662452843385375120000017066387283381999499_" class="st14" points="52.7,-31.4 40.2,-31.4 
							40.2,-29.1 50.5,-29.1 50.5,-26.4 39.7,-26.4 39.7,-24.2 45.3,-24.2 45.3,-22.1 40.2,-22.1 40.2,-19.9 50.5,-19.9 50.5,-16.1 
							52.7,-16.1 52.7,-22.1 47.6,-22.1 47.6,-24.2 53.4,-24.2 53.4,-26.4 52.7,-26.4 						"/>
						<polygon id="Path_00000049938788177498532000000018325001499152946076_" class="st14" points="55.3,-20.9 60.9,-20.9 
							60.9,-16 63.1,-16 63.1,-20.9 68.7,-20.9 68.7,-23.1 55.3,-23.1 						"/>
						<path id="Path_00000018229390015084498720000009560382778572122266_" class="st14" d="M62-27.8c0.5,0.9,1.3,1.5,2.6,2.1
							c1.1,0.5,2.4,0.8,3.7,0.8v-2.4c-1.6,0-2.8-0.4-3.7-1.1c-0.9-0.7-1.4-1.7-1.4-3h-2.5c0,1.3-0.5,2.3-1.4,3
							c-0.9,0.7-2.1,1.1-3.7,1.1v2.4c1.3,0,2.6-0.3,3.7-0.8C60.7-26.2,61.5-26.9,62-27.8z"/>
						<polygon id="Path_00000032621190415891630430000007367198412616156593_" class="st14" points="83.9,-31.4 81.6,-31.4 
							81.6,-24.1 83.9,-24.1 83.9,-26.6 85.7,-26.6 85.7,-28.8 83.9,-28.8 						"/>
						<path id="Shape_00000111177630036203751020000005815107887080240559_" class="st14" d="M79.7-24.7v-1.7
							c-1.2-0.2-2.1-0.8-2.6-1.7c-0.5-0.8-0.7-1.9-0.7-3.3h-2.3c0,1.4-0.2,2.5-0.7,3.3c-0.5,0.9-1.4,1.5-2.6,1.7v2.3
							c0.8,0,1.7-0.3,2.5-0.8c0.9-0.6,1.5-1.2,1.9-2c0.4,0.8,1,1.5,1.8,2c0.2,0.1,0.3,0.2,0.5,0.3c-0.7,0.2-1.4,0.6-2,1.2
							c-0.9,0.9-1.4,2.1-1.4,3.5s0.5,2.6,1.4,3.5c0.9,0.9,1.9,1.3,3.1,1.3c1.2,0,2.2-0.4,3.1-1.3c1-0.9,1.4-2.1,1.4-3.5
							c0-1.4-0.5-2.6-1.4-3.5C81.2-24.1,80.5-24.5,79.7-24.7z M80.3-18.3c-0.4,0.5-1,0.7-1.6,0.7c-0.6,0-1.1-0.2-1.6-0.7
							c-0.5-0.5-0.7-1.1-0.7-1.8c0-0.7,0.2-1.3,0.7-1.8c0.4-0.5,1-0.7,1.6-0.7c0.6,0,1.1,0.2,1.6,0.7c0.5,0.5,0.7,1.1,0.7,1.8
							S80.8-18.8,80.3-18.3z"/>
						<path id="Path_00000136408941781672009670000014387590457557292421_" class="st14" d="M94.4-28h-1.1v-3.4h-6.4v2.2h4.2v2.4
							h-4.2v5.9c0,0.5,0.1,0.9,0.3,1.1c0.2,0.2,0.4,0.3,0.8,0.3h5.8v-2.2h-4.7v-2.9h4.2v-1.1h1.1v9.6h2.1v-15.3h-2.1V-28L94.4-28z"
							/>
						
							<rect id="Rectangle_00000058571097069718845690000008437026440508344744_" x="97.3" y="-31.4" class="st14" width="2.1" height="15.3"/>
						<path id="Path_00000170978843746783675160000008919840540499081610_" class="st14" d="M108.5-23.7c-0.6-1.2-0.8-3.1-0.9-5.5
							h2.9v-2.2h-8.1v2.2h2.9c-0.1,2.4-0.4,4.2-0.9,5.5c-0.5,1.1-1.2,1.8-2.2,2v2.5c0.9-0.2,1.7-0.5,2.5-1.2
							c0.8-0.7,1.4-1.5,1.8-2.6c0.4,1.1,1,2,1.7,2.6c0.7,0.6,1.6,1,2.6,1.2v-2.5C109.8-21.9,109-22.5,108.5-23.7z"/>
						<polygon id="Path_00000065054879546005118830000011777103497148697480_" class="st14" points="112.8,-27.2 109.8,-27.2 
							109.8,-25 112.8,-25 112.8,-16.1 115,-16.1 115,-31.4 112.8,-31.4 						"/>
						<polygon id="Path_00000127724191742367814960000005624571409931591815_" class="st14" points="130.6,-31.4 128.4,-31.4 
							128.4,-20.9 130.6,-20.9 130.6,-25.3 132.4,-25.3 132.4,-27.6 130.6,-27.6 						"/>
						<path id="Shape_00000070822716205259078510000008635259022089484683_" class="st14" d="M121.8-23.1c1.1,0,2.1-0.4,2.9-1.2
							c0.9-0.9,1.3-1.9,1.3-3.2c0-1.3-0.4-2.4-1.3-3.3c-0.8-0.8-1.8-1.2-2.9-1.2c-1.1,0-2.1,0.4-2.9,1.2c-0.9,0.9-1.3,1.9-1.3,3.3
							c0,1.3,0.4,2.4,1.3,3.2C119.7-23.5,120.6-23.1,121.8-23.1z M120.4-29.1c0.4-0.4,0.9-0.6,1.4-0.6c0.5,0,1,0.2,1.3,0.6
							c0.4,0.4,0.6,0.9,0.6,1.5c0,0.6-0.2,1.1-0.6,1.5c-0.4,0.4-0.8,0.6-1.3,0.6c-0.5,0-1-0.2-1.4-0.6c-0.4-0.4-0.6-0.9-0.6-1.5
							C119.8-28.2,120-28.7,120.4-29.1z"/>
						<path id="Path_00000124148614119883183210000007708512264416571058_" class="st14" d="M121-21.7h-2.2v4.3
							c0,0.5,0.1,0.9,0.3,1.1c0.2,0.2,0.4,0.3,0.8,0.3h10.8v-2.2H121L121-21.7L121-21.7z"/>
						<path id="Path_00000034064012241424085920000011131139307783898770_" class="st14" d="M136.6-21.7h-2.2v4.2
							c0,0.5,0.1,0.9,0.3,1.1c0.2,0.2,0.4,0.3,0.8,0.3h10.8v-2.2h-9.7L136.6-21.7L136.6-21.7z"/>
						<polygon id="Path_00000107558939626440227490000016089505830677491899_" class="st14" points="143.9,-20.9 146.2,-20.9 
							146.2,-31.4 143.9,-31.4 143.9,-28.6 142,-28.6 142,-26.3 143.9,-26.3 						"/>
						<path id="Path_00000062156645822354336950000008301542139527694236_" class="st14" d="M137.6-25.9c0.4,0.8,0.9,1.5,1.7,2
							c0.7,0.5,1.5,0.8,2.4,0.8v-2.4c-1-0.2-1.7-0.6-2.2-1.3c-0.4-0.6-0.7-1.4-0.8-2.4h2.9v-2.2h-8v2.2h2.8c-0.1,1-0.3,1.8-0.7,2.4
							c-0.5,0.7-1.2,1.1-2.1,1.3v2.4c0.8-0.1,1.5-0.3,2.3-0.8C136.6-24.4,137.2-25.1,137.6-25.9z"/>
						<path id="Shape_00000047741615442999601960000004738097904968100766_" class="st14" d="M149.6-27.2c0,1.1,0.4,1.9,1.1,2.6
							c0.7,0.7,1.6,1,2.5,1c1,0,1.8-0.3,2.5-1c0.8-0.7,1.1-1.6,1.1-2.6c0-0.3,0-0.6-0.1-0.8c-0.1-0.3-0.2-0.5-0.3-0.7h0.9v-2h-2.9
							v-1.4h-2.4v1.4h-2.9v2h0.9c-0.1,0.3-0.3,0.5-0.3,0.8C149.6-27.8,149.6-27.5,149.6-27.2z M152.2-28.3c0.3-0.3,0.7-0.4,1.1-0.4
							s0.8,0.2,1.1,0.4c0.3,0.3,0.5,0.7,0.5,1.1c0,0.4-0.2,0.8-0.5,1.1c-0.3,0.3-0.7,0.5-1.1,0.5c-0.4,0-0.8-0.2-1.1-0.5
							c-0.3-0.3-0.4-0.7-0.4-1.1C151.7-27.6,151.9-28,152.2-28.3z"/>
						<polygon id="Path_00000085223817436360585200000011018894597843234237_" class="st14" points="159.5,-29.9 157.7,-29.9 
							157.7,-27.8 159.5,-27.8 159.5,-26.8 157.7,-26.8 157.7,-24.6 159.5,-24.6 159.5,-23.7 161.7,-23.7 161.7,-31.4 159.5,-31.4 
													"/>
						<path id="Shape_00000050631625887909506900000016927612601782153139_" class="st14" d="M159.5-21.7h-7.4v-1.3h-2.2v5.4
							c0,0.5,0.1,0.9,0.3,1.1c0.2,0.2,0.4,0.3,0.8,0.3h9.6c0.4,0,0.6-0.1,0.8-0.3c0.2-0.2,0.3-0.6,0.3-1.1v-5.4h-2.2L159.5-21.7
							L159.5-21.7z M159.5-18.4h-7.4v-1.2h7.4V-18.4z"/>
						<path id="Shape_00000064315312096429862930000001220590490958544015_" class="st14" d="M175.1-31.4v11H170v-2
							c0.6-0.2,1.2-0.5,1.7-1c0.8-0.8,1.3-1.8,1.3-3.1c0-0.4-0.1-0.8-0.2-1.2c-0.1-0.3-0.3-0.7-0.5-1h0.2h0.8v-2.2h-3.2v-1.4h-2.4
							v1.4h-3.2v2.2h1c-0.2,0.3-0.4,0.7-0.5,1c-0.1,0.4-0.2,0.7-0.2,1.1c0,1.2,0.4,2.3,1.3,3.1c0.5,0.5,1.1,0.8,1.7,1v2h-3.5v2.2
							h10.8v2.1h2.2v-15.3L175.1-31.4L175.1-31.4z M167.1-26.5c0-0.6,0.2-1.1,0.5-1.4c0.3-0.4,0.8-0.6,1.3-0.6
							c0.5,0,0.9,0.2,1.3,0.6c0.4,0.4,0.6,0.9,0.6,1.4c0,0.6-0.2,1.1-0.6,1.4c-0.3,0.4-0.8,0.6-1.3,0.6c-0.5,0-0.9-0.2-1.3-0.6
							C167.2-25.5,167.1-25.9,167.1-26.5z"/>
						<polygon id="Path_00000054238698277074120660000017009597555320386229_" class="st14" points="7.4,-32.3 6.2,-32.3 6.2,-24.4 
							7.4,-24.4 7.4,-28.5 8.5,-28.5 8.5,-29.6 7.4,-29.6 						"/>
						<path id="Path_00000096025378225877258420000016507901554038405526_" class="st14" d="M2.5-28c0.2,0.6,0.6,1,1,1.3
							C4-26.3,4.5-26.1,5.1-26v-1.3c-0.6-0.1-1.1-0.5-1.4-1.2c-0.3-0.8-0.5-2-0.5-3.8H1.9c0,1.7-0.2,3-0.5,3.8
							c-0.3,0.7-0.8,1.1-1.4,1.2v1.3c0.5-0.1,1-0.3,1.5-0.6C2-27,2.3-27.4,2.5-28z"/>
						<path id="Path_00000047777504072458996960000015667509496295878305_" class="st14" d="M16.9-32.3h-1.3v3H11v-1.9h3.2v-1.2H9.7
							v3.5c0,0.3,0.1,0.4,0.2,0.6c0.1,0.1,0.3,0.1,0.5,0.1h5.3v1.2H17v-2.6h1v-1.2h-1L16.9-32.3L16.9-32.3z"/>
						<path id="Path_00000140711756933439400660000007491287152075780543_" class="st14" d="M11.5-27.3h-1.3v2.2
							c0,0.3,0.1,0.4,0.2,0.6c0.1,0.1,0.3,0.1,0.5,0.1H17v-1.2h-5.6V-27.3z"/>
						<path id="Shape_00000143581773193483034370000012838638493114804361_" class="st14" d="M6.2-21.7H4.8V-23H3.5v0.7h-2V-23H0.2
							v3c0,0.3,0.1,0.4,0.2,0.6c0.1,0.1,0.2,0.1,0.5,0.1h3.3c0.2,0,0.4,0,0.5-0.1c0.1-0.1,0.2-0.3,0.2-0.6v-0.6h1.3v1.5h1.3V-23H6.2
							V-21.7L6.2-21.7z M3.5-20.5h-2v-0.7h2V-20.5z"/>
						<path id="Shape_00000106847602334461971460000004457239544605338759_" class="st14" d="M6.2-18H1.9v-0.6H0.7v2.7
							c0,0.3,0.1,0.4,0.2,0.6c0.1,0.1,0.3,0.1,0.5,0.1h5.5c0.2,0,0.4,0,0.5-0.1c0.1-0.1,0.2-0.3,0.2-0.6v-2.7H6.2V-18L6.2-18z
							 M6.2-16.3H1.9v-0.6h4.2V-16.3L6.2-16.3z"/>
						<path id="Path_00000134241308525474211950000001887375395632126907_" class="st14" d="M11.5-18h-1.3v2.2
							c0,0.3,0.1,0.4,0.2,0.6c0.1,0.1,0.2,0.1,0.5,0.1H17v-1.2h-5.6V-18z"/>
						<path id="Shape_00000037675946530512641390000002368556706368904639_" class="st14" d="M11.9-18.7c0.6,0,1.2-0.2,1.7-0.6
							c0.5-0.4,0.8-1,0.8-1.7c0-0.7-0.3-1.2-0.8-1.7c-0.5-0.4-1-0.6-1.7-0.6c-0.6,0-1.2,0.2-1.7,0.6c-0.5,0.4-0.8,1-0.8,1.7
							c0,0.7,0.3,1.2,0.8,1.7C10.7-18.9,11.2-18.7,11.9-18.7z M11.1-21.8c0.2-0.2,0.5-0.3,0.8-0.3c0.3,0,0.6,0.1,0.8,0.3
							c0.2,0.2,0.4,0.5,0.4,0.8c0,0.3-0.1,0.6-0.4,0.8c-0.2,0.2-0.5,0.3-0.8,0.3c-0.3,0-0.6-0.1-0.8-0.3c-0.2-0.2-0.4-0.5-0.4-0.8
							C10.7-21.3,10.8-21.6,11.1-21.8z"/>
						
							<rect id="Rectangle_00000157287813120684637010000002344563656672162198_" x="15.7" y="-23" class="st14" width="1.3" height="5.4"/>
					</g>
				</g>
			</g>
		</g>
	</g>
</g>
</svg>
