<?xml version="1.0" encoding="utf-8"?>
<!-- Generator: Adobe Illustrator 26.5.0, SVG Export Plug-In . SVG Version: 6.00 Build 0)  -->
<svg version="1.1" id="Layer_1" xmlns="http://www.w3.org/2000/svg" xmlns:xlink="http://www.w3.org/1999/xlink" x="0px" y="0px"
	 viewBox="0 0 113 36" style="enable-background:new 0 0 113 36;" xml:space="preserve">
<style type="text/css">
	.st0{fill-rule:evenodd;clip-rule:evenodd;fill:#FFFFFF;fill-opacity:0;}
	.st1{fill-rule:evenodd;clip-rule:evenodd;fill:#295FE5;}
	.st2{filter:url(#Adobe_OpacityMaskFilter);}
	.st3{fill-rule:evenodd;clip-rule:evenodd;fill:#FFFFFF;}
	.st4{mask:url(#mask-2_00000020372143934716085610000008282893424462390915_);fill-rule:evenodd;clip-rule:evenodd;fill:#8CC63F;}
	.st5{fill-rule:evenodd;clip-rule:evenodd;fill:#FFBC00;}
</style>
<g id="Page-1">
	<g id="HOME-1---Horizon" transform="translate(-1162.000000, -2020.000000)">
		<g id="Group-45" transform="translate(0.000000, 2018.757767)">
			<g id="banner-05" transform="translate(1162.086677, 1.242233)">
				<rect id="Rectangle" x="0" y="-32" class="st0" width="112" height="100"/>
				<path id="Fill-1" class="st1" d="M46.4,19.6c0,1.7-0.5,2.5-1.4,2.5h-0.3c-0.4,0-0.6-0.2-0.6-0.6V10.1h2.3V14h2.2
					c0.3,0,0.5,0.2,0.5,0.6c0,0.9-0.3,1.3-0.9,1.3h-1.8V19.6z M35.8,20.7h2.3v3.5c0,0.4,0.2,0.6,0.6,0.6h7.5c0.3,0,0.5,0.2,0.5,0.6
					c0,0.9-0.3,1.3-0.9,1.3H38c-0.7,0-1.3-0.1-1.6-0.4c-0.4-0.3-0.5-0.8-0.5-1.5V20.7z M37.7,17.3c0.3,0,0.6-0.1,0.8-0.2
					c0.3-0.1,0.5-0.3,0.7-0.6c0.2-0.2,0.3-0.5,0.5-0.8c0.1-0.3,0.2-0.6,0.2-1c0-0.3-0.1-0.7-0.2-1c-0.1-0.3-0.3-0.6-0.5-0.8
					c-0.2-0.2-0.4-0.4-0.7-0.5c-0.3-0.1-0.5-0.2-0.8-0.2c-0.3,0-0.6,0.1-0.9,0.2s-0.5,0.3-0.7,0.5c-0.2,0.2-0.3,0.5-0.4,0.8
					c-0.1,0.3-0.2,0.6-0.2,1c0,0.3,0.1,0.7,0.2,1c0.1,0.3,0.2,0.6,0.4,0.8c0.2,0.2,0.4,0.4,0.7,0.6C37.1,17.2,37.4,17.3,37.7,17.3
					L37.7,17.3z M37.7,10.4c0.7,0,1.3,0.1,1.9,0.4c0.6,0.2,1,0.5,1.4,0.9c0.4,0.4,0.7,0.9,0.9,1.4c0.2,0.5,0.3,1.1,0.3,1.7
					c0,0.6-0.1,1.2-0.3,1.7c-0.2,0.5-0.5,1-0.9,1.4c-0.4,0.4-0.9,0.7-1.4,0.9c-0.6,0.2-1.2,0.4-1.9,0.4c-0.7,0-1.3-0.1-1.9-0.4
					c-0.6-0.2-1-0.5-1.4-0.9c-0.4-0.4-0.7-0.9-0.9-1.4c-0.2-0.5-0.3-1.1-0.3-1.7c0-0.6,0.1-1.2,0.3-1.7s0.5-1,0.9-1.4
					c0.4-0.4,0.9-0.7,1.4-0.9C36.4,10.5,37.1,10.4,37.7,10.4L37.7,10.4z"/>
				<path id="Fill-3" class="st1" d="M58.5,13.8H61v-3.8h2.4v9.5c0,1.7-0.5,2.5-1.4,2.5h-0.3c-0.4,0-0.6-0.2-0.6-0.6v-5.7h-2.6V13.8
					z M52.6,20.7H55v3.5c0,0.4,0.2,0.6,0.6,0.6h7.7c0.3,0,0.5,0.2,0.5,0.6c0,0.9-0.3,1.3-0.9,1.3h-8.1c-0.7,0-1.3-0.1-1.6-0.4
					c-0.4-0.3-0.5-0.8-0.5-1.5V20.7z M50.1,10.7h7.9c0.3,0,0.5,0.2,0.5,0.6c0,0.8-0.3,1.3-0.8,1.3h-2.3v0.4c0,0.7,0.3,1.5,0.9,2.2
					c0.6,0.8,1.3,1.5,2.3,2.1c0.2,0.2,0.3,0.3,0.3,0.5c0,0.2,0,0.3-0.1,0.5c-0.1,0.1-0.2,0.3-0.3,0.4c-0.1,0.1-0.2,0.2-0.3,0.3
					c-0.1,0.1-0.2,0.1-0.3,0.1c-0.2,0-0.3-0.1-0.5-0.2c-0.6-0.4-1.2-0.8-1.7-1.2c-0.5-0.4-1-0.9-1.4-1.4c-0.4,0.6-0.8,1.1-1.4,1.6
					c-0.6,0.5-1.2,0.9-1.9,1.4c-0.1,0-0.1,0.1-0.2,0.1c-0.1,0-0.1,0-0.2,0c-0.1,0-0.2,0-0.3-0.1c-0.1-0.1-0.2-0.2-0.3-0.3
					c-0.1-0.1-0.2-0.2-0.2-0.4c-0.1-0.1-0.1-0.3-0.1-0.4c0-0.2,0.1-0.4,0.3-0.5c0.5-0.3,0.9-0.7,1.3-1.1c0.4-0.4,0.7-0.8,0.9-1.1
					c0.3-0.4,0.4-0.8,0.6-1.2c0.1-0.4,0.2-0.8,0.2-1.1v-0.4h-2.9V10.7z"/>
				<path id="Fill-5" class="st1" d="M78.4,19.7c0,1.6-0.5,2.3-1.4,2.3h-0.3c-0.4,0-0.6-0.2-0.6-0.6V10.1h2.3V19.7z M67.6,20.7H70
					v3.5c0,0.4,0.2,0.6,0.6,0.6h7.7c0.3,0,0.5,0.2,0.5,0.6c0,0.9-0.3,1.3-0.9,1.3h-8.1c-0.7,0-1.3-0.1-1.6-0.4
					c-0.4-0.3-0.5-0.8-0.5-1.5V20.7z M66,19.3c-0.1,0.1-0.3,0.1-0.3,0.1c-0.1,0-0.2,0-0.3-0.1c-0.1-0.1-0.2-0.2-0.3-0.3
					c-0.1-0.1-0.2-0.2-0.3-0.4c-0.1-0.1-0.1-0.3-0.1-0.5c0-0.2,0.1-0.4,0.4-0.6c1-0.7,1.8-1.5,2.4-2.5c0.5-1,0.8-2,0.8-3.1v-1.4h2.4
					V12c0,1.1,0.3,2.1,0.8,3.1c0.6,0.9,1.4,1.7,2.4,2.4c0.1,0.1,0.2,0.1,0.2,0.2c0.1,0.1,0.1,0.2,0.1,0.3c0,0.2,0,0.3-0.1,0.4
					c-0.1,0.1-0.2,0.3-0.3,0.4c-0.1,0.1-0.2,0.2-0.3,0.3c-0.1,0.1-0.2,0.1-0.3,0.1c-0.2,0-0.3-0.1-0.5-0.2c-0.7-0.4-1.4-0.8-1.9-1.3
					c-0.6-0.5-1-1-1.4-1.6c-0.4,0.7-0.9,1.3-1.5,1.8C67.4,18.4,66.8,18.9,66,19.3L66,19.3z"/>
				<path id="Fill-7" class="st1" d="M91,14.8c0.4,0,0.5-0.3,0.5-1v-1.6h-7.2v2c0,0.4,0.2,0.6,0.6,0.6H91z M82.2,21.6h2.3v2.6
					c0,0.4,0.2,0.6,0.6,0.6h8.4c0.3,0,0.4,0.2,0.4,0.6c0,0.9-0.3,1.3-0.9,1.3h-8.8c-0.7,0-1.3-0.1-1.6-0.4c-0.4-0.3-0.5-0.8-0.5-1.5
					V21.6z M93.9,13.3c0,1.2-0.1,2-0.4,2.6c-0.3,0.6-0.7,0.9-1.3,0.9H84c-0.7,0-1.2-0.2-1.5-0.5c-0.3-0.3-0.5-0.9-0.5-1.6v-4.3h10.9
					c0.7,0,1,0.3,1,1V13.3z M79.8,18.2h15.8c0.3,0,0.5,0.2,0.5,0.6c0,0.8-0.3,1.3-0.9,1.3h-5.6v1.6c0,0.6-0.1,1.1-0.3,1.4
					c-0.2,0.3-0.5,0.5-0.9,0.5h-0.5c-0.4,0-0.6-0.2-0.6-0.6v-2.9h-7.5V18.2z"/>
				<path id="Fill-9" class="st1" d="M106.5,19.4c0.6-2.3,0.9-4.3,0.9-6.2v-0.6h-9.1v-1.9h10.5c0.7,0,1,0.3,1,1v1.6
					c0,0.8-0.1,1.6-0.3,2.5c-0.2,0.9-0.4,1.9-0.7,3c-0.1,0.4-0.4,0.6-0.8,0.6H106.5z M111.9,21.5c0.2,0.4,0.2,0.7,0.1,1
					c-0.1,0.3-0.4,0.6-0.7,0.7c-0.2,0.1-0.6,0.2-1.1,0.4c-0.5,0.1-1,0.2-1.7,0.4c-0.6,0.1-1.3,0.2-2.1,0.3c-0.8,0.1-1.5,0.1-2.3,0.1
					c-0.8,0-1.5,0-2.3-0.1c-0.8-0.1-1.5-0.2-2.1-0.3c-0.7-0.1-1.2-0.2-1.7-0.4c-0.5-0.1-0.9-0.3-1.1-0.4c-0.3-0.1-0.6-0.4-0.7-0.7
					c-0.1-0.3-0.1-0.7,0.1-1c0.1-0.2,0.2-0.3,0.4-0.3c0.2-0.1,0.4,0,0.7,0c0.3,0.1,0.6,0.1,0.8,0.2c0.2,0.1,0.4,0.1,0.8,0.2
					c0.4,0.1,0.8,0.2,1.3,0.3c0.4,0.1,0.9,0.1,1.4,0.2v-5.1h2.4v5.2h0.2c0.9,0,1.6,0,2.2-0.1c0.6-0.1,1.2-0.2,1.6-0.3
					c0.4-0.1,0.8-0.2,1.1-0.3c0.3-0.1,0.5-0.2,0.7-0.2c0.2-0.1,0.3-0.1,0.5-0.1c0.2,0,0.4-0.1,0.6-0.1c0.2,0,0.4,0,0.6,0
					C111.7,21.2,111.8,21.3,111.9,21.5L111.9,21.5z"/>
				<g id="Group-13" transform="translate(0.000000, 32.000000)">
					<g id="Clip-12">
					</g>
					<defs>
						<filter id="Adobe_OpacityMaskFilter" filterUnits="userSpaceOnUse" x="0" y="-32" width="17" height="22.6">
							<feColorMatrix  type="matrix" values="1 0 0 0 0  0 1 0 0 0  0 0 1 0 0  0 0 0 1 0"/>
						</filter>
					</defs>
					
						<mask maskUnits="userSpaceOnUse" x="0" y="-32" width="17" height="22.6" id="mask-2_00000020372143934716085610000008282893424462390915_">
						<g class="st2">
							<polygon id="path-1_00000096761501360121817090000015342205895136831163_" class="st3" points="0,-32 17,-32 17,-9.4 0,-9.4 
															"/>
						</g>
					</mask>
					<path id="Fill-11" class="st4" d="M0.1-28.4c0,0,6.8,1.8,14.3-3.6c1,0.8,2.6,1.7,2.6,1.7s-8.4,6.2-3.8,16.1
						C9.2-8,2.1-9.6,2.1-9.6S-0.6-13.7,0.1-28.4"/>
				</g>
				<path id="Fill-14" class="st1" d="M15,16.8c0,0-4.4-8.7,4.3-14c5,1.8,9.4,0.9,9.4,0.9s1.1,14.4-2.8,20.5
					C25.9,24.1,23.2,17.4,15,16.8"/>
				<path id="Fill-16" class="st5" d="M3.2,24.7c0,0,6.9,1,11.8-5.8c5.2,0,9.3,5,9.6,7.6c-1.4,3-7.5,8.4-10.2,9.5
					C9.2,33.3,4.6,27.9,3.2,24.7"/>
			</g>
		</g>
	</g>
</g>
</svg>
